<svg width="19" height="44" viewBox="0 0 19 44" fill="none" xmlns="http://www.w3.org/2000/svg">
<rect width="5" height="1" rx="0.5" fill="#1260FE"/>
<rect y="3" width="5" height="1" rx="0.5" fill="#1260FE"/>
<rect y="6" width="5" height="1" rx="0.5" fill="#1260FE"/>
<rect y="9" width="5" height="1" rx="0.5" fill="#1260FE"/>
<rect y="12" width="5" height="1" rx="0.5" fill="#1260FE"/>
<rect y="15" width="5" height="1" rx="0.5" fill="#1260FE"/>
<rect y="18" width="5" height="1" rx="0.5" fill="#1260FE"/>
<rect y="21" width="5" height="1" rx="0.5" fill="#1260FE"/>
<rect y="24" width="5" height="1" rx="0.5" fill="#1260FE"/>
<rect y="27" width="5" height="1" rx="0.5" fill="#1260FE"/>
<rect x="14" y="16" width="5" height="1" rx="0.5" fill="#00F0FF"/>
<rect x="14" y="19" width="5" height="1" rx="0.5" fill="#00F0FF"/>
<rect x="14" y="22" width="5" height="1" rx="0.5" fill="#00F0FF"/>
<rect x="14" y="25" width="5" height="1" rx="0.5" fill="#00F0FF"/>
<rect x="14" y="28" width="5" height="1" rx="0.5" fill="#00F0FF"/>
<rect x="14" y="31" width="5" height="1" rx="0.5" fill="#00F0FF"/>
<rect x="14" y="34" width="5" height="1" rx="0.5" fill="#00F0FF"/>
<rect x="14" y="37" width="5" height="1" rx="0.5" fill="#00F0FF"/>
<rect x="14" y="40" width="5" height="1" rx="0.5" fill="#00F0FF"/>
<rect x="14" y="43" width="5" height="1" rx="0.5" fill="#00F0FF"/>
<rect x="7" y="8" width="5" height="1" rx="0.5" fill="url(#paint0_linear_6438_1596)"/>
<rect x="7" y="11" width="5" height="1" rx="0.5" fill="url(#paint1_linear_6438_1596)"/>
<rect x="7" y="14" width="5" height="1" rx="0.5" fill="url(#paint2_linear_6438_1596)"/>
<rect x="7" y="17" width="5" height="1" rx="0.5" fill="url(#paint3_linear_6438_1596)"/>
<rect x="7" y="20" width="5" height="1" rx="0.5" fill="url(#paint4_linear_6438_1596)"/>
<rect x="7" y="23" width="5" height="1" rx="0.5" fill="url(#paint5_linear_6438_1596)"/>
<rect x="7" y="26" width="5" height="1" rx="0.5" fill="url(#paint6_linear_6438_1596)"/>
<rect x="7" y="29" width="5" height="1" rx="0.5" fill="url(#paint7_linear_6438_1596)"/>
<rect x="7" y="32" width="5" height="1" rx="0.5" fill="url(#paint8_linear_6438_1596)"/>
<rect x="7" y="35" width="5" height="1" rx="0.5" fill="url(#paint9_linear_6438_1596)"/>
<defs>
<linearGradient id="paint0_linear_6438_1596" x1="9.5" y1="8" x2="9.5" y2="9" gradientUnits="userSpaceOnUse">
<stop stop-color="#550ECA"/>
<stop offset="1" stop-color="#F929BB"/>
</linearGradient>
<linearGradient id="paint1_linear_6438_1596" x1="9.5" y1="11" x2="9.5" y2="12" gradientUnits="userSpaceOnUse">
<stop stop-color="#550ECA"/>
<stop offset="1" stop-color="#F929BB"/>
</linearGradient>
<linearGradient id="paint2_linear_6438_1596" x1="9.5" y1="14" x2="9.5" y2="15" gradientUnits="userSpaceOnUse">
<stop stop-color="#550ECA"/>
<stop offset="1" stop-color="#F929BB"/>
</linearGradient>
<linearGradient id="paint3_linear_6438_1596" x1="9.5" y1="17" x2="9.5" y2="18" gradientUnits="userSpaceOnUse">
<stop stop-color="#550ECA"/>
<stop offset="1" stop-color="#F929BB"/>
</linearGradient>
<linearGradient id="paint4_linear_6438_1596" x1="9.5" y1="20" x2="9.5" y2="21" gradientUnits="userSpaceOnUse">
<stop stop-color="#550ECA"/>
<stop offset="1" stop-color="#F929BB"/>
</linearGradient>
<linearGradient id="paint5_linear_6438_1596" x1="9.5" y1="23" x2="9.5" y2="24" gradientUnits="userSpaceOnUse">
<stop stop-color="#550ECA"/>
<stop offset="1" stop-color="#F929BB"/>
</linearGradient>
<linearGradient id="paint6_linear_6438_1596" x1="9.5" y1="26" x2="9.5" y2="27" gradientUnits="userSpaceOnUse">
<stop stop-color="#550ECA"/>
<stop offset="1" stop-color="#F929BB"/>
</linearGradient>
<linearGradient id="paint7_linear_6438_1596" x1="9.5" y1="29" x2="9.5" y2="30" gradientUnits="userSpaceOnUse">
<stop stop-color="#550ECA"/>
<stop offset="1" stop-color="#F929BB"/>
</linearGradient>
<linearGradient id="paint8_linear_6438_1596" x1="9.5" y1="32" x2="9.5" y2="33" gradientUnits="userSpaceOnUse">
<stop stop-color="#550ECA"/>
<stop offset="1" stop-color="#F929BB"/>
</linearGradient>
<linearGradient id="paint9_linear_6438_1596" x1="9.5" y1="35" x2="9.5" y2="36" gradientUnits="userSpaceOnUse">
<stop stop-color="#550ECA"/>
<stop offset="1" stop-color="#F929BB"/>
</linearGradient>
</defs>
</svg>
