<svg width="27" height="16" viewBox="0 0 27 16" fill="none" xmlns="http://www.w3.org/2000/svg">
<path d="M13.125 15.125C12.6172 15.125 12.168 14.9492 11.7773 14.5977L0.527344 3.34766C0.175781 2.95703 0 2.50781 0 2C0 1.49219 0.175781 1.04297 0.527344 0.652344C0.917969 0.300781 1.36719 0.125 1.875 0.125C2.38281 0.125 2.83203 0.300781 3.22266 0.652344L13.125 10.6133L23.0273 0.652344C23.418 0.300781 23.8672 0.125 24.375 0.125C24.8828 0.125 25.332 0.300781 25.7227 0.652344C26.0742 1.04297 26.25 1.49219 26.25 2C26.25 2.50781 26.0742 2.95703 25.7227 3.34766L14.4727 14.5977C14.082 14.9492 13.6328 15.125 13.125 15.125Z" fill="#181818"/>
</svg>
