<svg width="60" height="60" viewBox="0 0 60 60" fill="none" xmlns="http://www.w3.org/2000/svg">
<g clip-path="url(#clip0_6532_236)">
<path d="M36.914 56.4726H34.9783C34.1616 52.4659 30.6112 49.4414 26.3671 49.4414H12.3047C8.06061 49.4414 4.51019 52.4659 3.69351 56.4726H1.75781C0.786209 56.4726 0 57.2589 0 58.2305C0 59.2021 0.786209 59.9883 1.75781 59.9883C13.4994 59.9883 25.1837 59.9883 36.914 59.9883C37.8856 59.9883 38.6718 59.2021 38.6718 58.2305C38.6718 57.2589 37.8856 56.4726 36.914 56.4726Z" fill="#1260FE"/>
<path d="M45.7764 15.9569L30.8609 1.04153C29.4878 -0.331552 27.2619 -0.331552 25.889 1.04153C24.5162 2.41438 24.5162 4.64035 25.889 6.01332L40.8046 20.9288C42.1775 22.3016 44.4034 22.3016 45.7764 20.9288C47.1492 19.5557 47.1492 17.33 45.7764 15.9569Z" fill="#1260FE"/>
<path d="M20.9172 40.8163L6.0016 25.9007C4.62875 24.5279 2.40278 24.5279 1.02981 25.9007C-0.343271 27.2736 -0.343271 29.4996 1.02981 30.8726L15.9453 45.7881C17.3184 47.161 19.5441 47.161 20.9172 45.7881C22.29 44.4153 22.29 42.1893 20.9172 40.8163Z" fill="#1260FE"/>
<path d="M23.4015 8.49887L8.48633 23.4141L23.4015 38.3293L38.3167 23.4141L23.4015 8.49887Z" fill="#1260FE"/>
<path d="M58.455 50.9878L55.9539 48.2734L48.4961 55.7312L50.9972 58.4456C53.0567 60.505 56.3956 60.505 58.455 58.4456C60.5144 56.3862 60.5144 53.0473 58.455 50.9878Z" fill="#1260FE"/>
<path d="M41.6665 34.2175C41.9628 33.0547 41.7146 31.7797 40.8046 30.8697C39.4315 29.4966 37.2055 29.4966 35.8327 30.8697L30.8609 35.8414C29.4878 37.2143 29.4878 39.4403 30.8609 40.8133C31.7709 41.7234 33.0461 41.9716 34.2087 41.6753L46.0106 53.2428L53.4684 45.785L41.6665 34.2175Z" fill="#1260FE"/>
</g>
<defs>
<clipPath id="clip0_6532_236">
<rect width="60" height="60" fill="white"/>
</clipPath>
</defs>
</svg>
