<svg width="1920" height="1071" viewBox="0 0 1920 1071" fill="none" xmlns="http://www.w3.org/2000/svg">
<path d="M-35 823.207V90.5C-35 -8.91125 45.5888 -89.5 145 -89.5H1776C1875.41 -89.5 1956 -8.91129 1956 90.5V931.7C1956 1008.63 1893.63 1071 1816.7 1071C1779.76 1071 1744.32 1056.32 1718.2 1030.2L1654.5 966.5C1596.79 908.786 1503.21 908.786 1445.5 966.5C1387.79 1024.21 1294.21 1024.21 1236.5 966.5C1178.79 908.786 1085.21 908.786 1027.5 966.5C969.786 1024.21 876.214 1024.21 818.5 966.5C760.786 908.786 667.214 908.786 609.5 966.5L602.994 973.006C547.011 1028.99 458.102 1034.52 395.608 985.917L309.404 918.87C265.641 884.832 204.359 884.832 160.596 918.87C80.9901 980.785 -35 924.057 -35 823.207Z" fill="#1260FE"/>
</svg>
