<svg width="36" height="36" viewBox="0 0 36 36" fill="none" xmlns="http://www.w3.org/2000/svg">
<path d="M8.625 33.0001C8.79076 33.0001 8.94973 32.9342 9.06694 32.817C9.18415 32.6998 9.25 32.5408 9.25 32.3751C9.25 32.2093 9.18415 32.0503 9.06694 31.9331C8.94973 31.8159 8.79076 31.7501 8.625 31.7501H6.125C5.95924 31.7501 5.80027 31.8159 5.68306 31.9331C5.56585 32.0503 5.5 32.2093 5.5 32.3751C5.5 32.5408 5.56585 32.6998 5.68306 32.817C5.80027 32.9342 5.95924 33.0001 6.125 33.0001H8.625ZM15.5 29.2501C15.5 29.9917 15.7199 30.7168 16.132 31.3334C16.544 31.9501 17.1297 32.4308 17.8149 32.7146C18.5002 32.9984 19.2542 33.0727 19.9816 32.928C20.709 32.7833 21.3772 32.4261 21.9017 31.9017C22.4261 31.3773 22.7833 30.7091 22.9279 29.9816C23.0726 29.2542 22.9984 28.5002 22.7146 27.815C22.4307 27.1298 21.9501 26.5441 21.3334 26.132C20.7167 25.72 19.9917 25.5001 19.25 25.5001C18.2554 25.5001 17.3016 25.8951 16.5984 26.5984C15.8951 27.3017 15.5 28.2555 15.5 29.2501ZM21.75 29.2501C21.75 29.7445 21.6034 30.2279 21.3287 30.639C21.054 31.0501 20.6635 31.3705 20.2067 31.5597C19.7499 31.749 19.2472 31.7985 18.7623 31.702C18.2773 31.6056 17.8319 31.3674 17.4822 31.0178C17.1326 30.6682 16.8945 30.2227 16.798 29.7378C16.7016 29.2528 16.7511 28.7502 16.9403 28.2933C17.1295 27.8365 17.45 27.4461 17.8611 27.1714C18.2722 26.8967 18.7555 26.7501 19.25 26.7501C19.913 26.7501 20.5489 27.0134 21.0178 27.4823C21.4866 27.9511 21.75 28.587 21.75 29.2501ZM23.9688 21.1251C24.054 21.1256 24.1384 21.1087 24.2169 21.0753C24.2954 21.042 24.3662 20.993 24.425 20.9313C24.4836 20.8732 24.5301 20.8041 24.5618 20.7279C24.5935 20.6517 24.6099 20.5701 24.6099 20.4876C24.6099 20.405 24.5935 20.3234 24.5618 20.2472C24.5301 20.171 24.4836 20.1019 24.425 20.0438C23.0327 18.7287 21.1901 17.9961 19.275 17.9961C17.3599 17.9961 15.5173 18.7287 14.125 20.0438C14.0651 20.1004 14.0169 20.1683 13.9832 20.2436C13.9495 20.3188 13.931 20.4 13.9287 20.4824C13.9264 20.5648 13.9403 20.6468 13.9697 20.7239C13.9991 20.8009 14.0434 20.8714 14.1 20.9313C14.1566 20.9912 14.2245 21.0394 14.2998 21.0731C14.375 21.1068 14.4562 21.1253 14.5386 21.1276C14.621 21.1299 14.703 21.116 14.7801 21.0866C14.8571 21.0572 14.9276 21.0129 14.9875 20.9563C16.1473 19.8628 17.681 19.2538 19.275 19.2538C20.869 19.2538 22.4027 19.8628 23.5625 20.9563C23.673 21.0599 23.8174 21.1199 23.9688 21.1251Z" fill="#DE0977"/>
<path d="M34.875 34.25H33V7.6875L35.25 6C35.3157 5.95075 35.371 5.88906 35.4128 5.81843C35.4546 5.74781 35.4821 5.66964 35.4937 5.58839C35.5053 5.50714 35.5008 5.4244 35.4804 5.34489C35.4601 5.26538 35.4242 5.19066 35.375 5.125C35.3258 5.05934 35.2641 5.00402 35.1934 4.9622C35.1228 4.92039 35.0446 4.89289 34.9634 4.88128C34.8821 4.86967 34.7994 4.87418 34.7199 4.89455C34.6404 4.91492 34.5657 4.95075 34.5 5L29.5 8.75C29.3674 8.84946 29.2797 8.99752 29.2563 9.16161C29.2328 9.32571 29.2755 9.49239 29.375 9.625C29.4332 9.70262 29.5087 9.76562 29.5955 9.80902C29.6823 9.85241 29.778 9.875 29.875 9.875C30.0102 9.875 30.1418 9.83114 30.25 9.75L31.75 8.625V34.25H28.8813L26.75 32.1125C26.925 31.9125 27.0938 31.7125 27.25 31.4875C27.3495 31.3549 27.3922 31.1882 27.3687 31.0241C27.3453 30.86 27.2576 30.712 27.125 30.6125C26.9924 30.513 26.8257 30.4703 26.6616 30.4938C26.4975 30.5172 26.3495 30.6049 26.25 30.7375C26.0013 31.0685 25.7298 31.3818 25.4375 31.675C23.8475 33.2593 21.7095 34.1719 19.4656 34.2243C17.2216 34.2766 15.0434 33.4646 13.3813 31.9563C14.1405 30.5885 14.4107 29.0027 14.1471 27.4608C13.8834 25.9188 13.1018 24.5128 11.9313 23.475C12.2225 22.8352 12.3738 22.1405 12.375 21.4375C12.3679 21.058 12.3175 20.6806 12.225 20.3125C13.036 19.2109 14.094 18.3148 15.314 17.6961C16.534 17.0774 17.8821 16.7534 19.25 16.75C19.8378 16.7488 20.4241 16.8074 21 16.925C22.5645 17.2486 24.0105 17.9943 25.1813 19.0812C26.4378 20.2409 27.3271 21.7432 27.7392 23.4027C28.1513 25.0622 28.0681 26.806 27.5 28.4187C27.4459 28.5746 27.4557 28.7455 27.5271 28.8942C27.5985 29.0429 27.7258 29.1573 27.8813 29.2125C27.9494 29.2372 28.0213 29.2499 28.0938 29.25C28.2229 29.2495 28.3488 29.2089 28.454 29.134C28.5592 29.059 28.6386 28.9532 28.6812 28.8313C29.2491 27.2261 29.395 25.502 29.105 23.8242C28.815 22.1465 28.0987 20.5714 27.025 19.25H29.25C29.4158 19.25 29.5747 19.1842 29.6919 19.0669C29.8092 18.9497 29.875 18.7908 29.875 18.625V14.25C30.0408 14.25 30.1997 14.1842 30.3169 14.0669C30.4342 13.9497 30.5 13.7908 30.5 13.625C30.5 13.4592 30.4342 13.3003 30.3169 13.1831C30.1997 13.0658 30.0408 13 29.875 13H20.5C20.3342 13 20.1753 13.0658 20.0581 13.1831C19.9408 13.3003 19.875 13.4592 19.875 13.625C19.875 13.7908 19.9408 13.9497 20.0581 14.0669C20.1753 14.1842 20.3342 14.25 20.5 14.25V15.5875C20.0855 15.5333 19.668 15.504 19.25 15.5C17.8169 15.5025 16.4011 15.8129 15.0985 16.4103C13.7959 17.0077 12.6369 17.8781 11.7 18.9625C11.1529 17.9855 10.2885 17.2248 9.25 16.8062V7.43125L9.7625 4.86875H10.5C10.6658 4.86875 10.8247 4.8029 10.9419 4.68569C11.0592 4.56848 11.125 4.40951 11.125 4.24375C11.125 4.07799 11.0592 3.91902 10.9419 3.80181C10.8247 3.6846 10.6658 3.61875 10.5 3.61875H9.875V2.375H10.5C10.6658 2.375 10.8247 2.30915 10.9419 2.19194C11.0592 2.07473 11.125 1.91576 11.125 1.75C11.125 1.58424 11.0592 1.42527 10.9419 1.30806C10.8247 1.19085 10.6658 1.125 10.5 1.125H9.875C9.875 0.95924 9.80915 0.800269 9.69194 0.683058C9.57473 0.565848 9.41576 0.5 9.25 0.5H5.5C5.33424 0.5 5.17527 0.565848 5.05806 0.683058C4.94085 0.800269 4.875 0.95924 4.875 1.125H4.25C4.08424 1.125 3.92527 1.19085 3.80806 1.30806C3.69085 1.42527 3.625 1.58424 3.625 1.75C3.625 1.91576 3.69085 2.07473 3.80806 2.19194C3.92527 2.30915 4.08424 2.375 4.25 2.375H4.875V3.625H4.25C4.08424 3.625 3.92527 3.69085 3.80806 3.80806C3.69085 3.92527 3.625 4.08424 3.625 4.25C3.625 4.41576 3.69085 4.57473 3.80806 4.69194C3.92527 4.80915 4.08424 4.875 4.25 4.875H4.9875L5.5 7.4375V16.8125C5.15553 16.9503 4.82661 17.1242 4.51875 17.3312C4.39219 17.4294 4.30811 17.5723 4.28387 17.7306C4.25963 17.8889 4.29707 18.0505 4.38847 18.1819C4.47988 18.3134 4.61826 18.4048 4.77508 18.4373C4.9319 18.4697 5.09519 18.4407 5.23125 18.3563C5.31704 18.2942 5.40682 18.2378 5.5 18.1875V24.875C4.97529 25.2685 4.58771 25.8172 4.39215 26.4432C4.19658 27.0693 4.20296 27.741 4.41036 28.3632C4.61777 28.9854 5.0157 29.5266 5.54778 29.9101C6.07986 30.2936 6.71912 30.5 7.375 30.5C8.03088 30.5 8.67014 30.2936 9.20222 29.9101C9.7343 29.5266 10.1322 28.9854 10.3396 28.3632C10.547 27.741 10.5534 27.0693 10.3579 26.4432C10.1623 25.8172 9.77471 25.2685 9.25 24.875V18.1938C10.0677 18.6702 10.6749 19.4382 10.95 20.3438C11.0649 20.697 11.1239 21.066 11.125 21.4375C11.12 22.0973 10.9411 22.744 10.6062 23.3125C10.5294 23.4444 10.5036 23.5999 10.5335 23.7495C10.5634 23.8992 10.6471 24.0328 10.7688 24.125C11.7087 24.8361 12.4015 25.8244 12.7494 26.9505C13.0973 28.0766 13.0827 29.2835 12.7076 30.4008C12.3326 31.5181 11.6161 32.4894 10.6592 33.1775C9.7024 33.8657 8.55358 34.2359 7.375 34.2359C6.19642 34.2359 5.0476 33.8657 4.09077 33.1775C3.13393 32.4894 2.41741 31.5181 2.04238 30.4008C1.66735 29.2835 1.65275 28.0766 2.00064 26.9505C2.34853 25.8244 3.04134 24.8361 3.98125 24.125C4.10288 24.0328 4.18656 23.8992 4.21649 23.7495C4.24643 23.5999 4.22055 23.4444 4.14375 23.3125C3.8089 22.744 3.62996 22.0973 3.625 21.4375C3.62593 21.1664 3.65526 20.8962 3.7125 20.6312C3.73179 20.5499 3.73458 20.4656 3.72069 20.3832C3.70681 20.3007 3.67654 20.2219 3.63167 20.1514C3.5868 20.0809 3.52824 20.0201 3.45946 19.9727C3.39069 19.9252 3.31309 19.892 3.23125 19.875C3.1508 19.8576 3.06771 19.8562 2.98673 19.871C2.90575 19.8858 2.8285 19.9164 2.75939 19.9611C2.69028 20.0058 2.63069 20.0637 2.58403 20.1316C2.53737 20.1994 2.50457 20.2757 2.4875 20.3563C2.41149 20.7116 2.37378 21.0741 2.375 21.4375C2.37439 22.1447 2.52572 22.8438 2.81875 23.4875C2.0444 24.1772 1.43611 25.0331 1.0394 25.9912C0.64269 26.9493 0.46785 27.9847 0.527967 29.0199C0.588085 30.0552 0.881602 31.0634 1.38654 31.9691C1.89149 32.8748 2.59477 33.6546 3.44375 34.25H1.125C0.95924 34.25 0.800269 34.3158 0.683058 34.4331C0.565848 34.5503 0.5 34.7092 0.5 34.875C0.5 35.0408 0.565848 35.1997 0.683058 35.3169C0.800269 35.4342 0.95924 35.5 1.125 35.5H34.875C35.0408 35.5 35.1997 35.4342 35.3169 35.3169C35.4342 35.1997 35.5 35.0408 35.5 34.875C35.5 34.7092 35.4342 34.5503 35.3169 34.4331C35.1997 34.3158 35.0408 34.25 34.875 34.25ZM21.75 14.25H28.625V18H25.8438C24.6679 16.9636 23.266 16.2167 21.75 15.8188V14.25ZM8 9.25H6.75V8H8V9.25ZM8 10.5V11.75H6.75V10.5H8ZM8 13V14.25H6.75V13H8ZM8 15.5V16.75H6.75V15.5H8ZM6.75 23H8V24.325C7.58794 24.2374 7.16206 24.2374 6.75 24.325V23ZM8 21.75H6.75V20.5H8V21.75ZM8 19.25H6.75V18H8V19.25ZM6.125 1.75H8.625V4.1875L8.1125 6.75H6.6375L6.125 4.1875V1.75ZM7.375 29.25C6.87772 29.25 6.40081 29.0525 6.04917 28.7008C5.69754 28.3492 5.5 27.8723 5.5 27.375C5.50198 27.0478 5.58955 26.7268 5.75401 26.4439C5.91848 26.161 6.15412 25.9261 6.4375 25.7625C6.7201 25.5909 7.04438 25.5002 7.375 25.5002C7.70562 25.5002 8.0299 25.5909 8.3125 25.7625C8.59588 25.9261 8.83152 26.161 8.99599 26.4439C9.16045 26.7268 9.24802 27.0478 9.25 27.375C9.25 27.8723 9.05246 28.3492 8.70083 28.7008C8.34919 29.0525 7.87228 29.25 7.375 29.25ZM11.2938 34.25C11.805 33.8978 12.2655 33.4772 12.6625 33C13.2085 33.4808 13.8059 33.9 14.4437 34.25H11.2938ZM24.0562 34.25C24.6998 33.8998 25.3033 33.4806 25.8563 33L27.1063 34.25H24.0562Z" fill="#DE0977"/>
</svg>
