<svg width="34" height="36" viewBox="0 0 34 36" fill="none" xmlns="http://www.w3.org/2000/svg">
<path fill-rule="evenodd" clip-rule="evenodd" d="M4.74224 22.9123C6.05392 22.9123 7.12112 21.8451 7.12112 20.5334C7.12112 19.2217 6.05392 18.1545 4.74224 18.1545C3.43056 18.1545 2.36336 19.2217 2.36336 20.5334C2.36336 21.8452 3.43056 22.9123 4.74224 22.9123ZM4.74224 19.2156C5.46888 19.2156 6.06008 19.8068 6.06008 20.5334C6.06008 21.2601 5.46896 21.8513 4.74224 21.8513C4.01552 21.8513 3.4244 21.2601 3.4244 20.5334C3.4244 19.8068 4.01552 19.2156 4.74224 19.2156ZM4.49072 24.3518V27.3579C4.49072 27.4986 4.43483 27.6335 4.33534 27.733C4.23586 27.8325 4.10093 27.8884 3.96024 27.8884C3.81954 27.8884 3.68462 27.8325 3.58513 27.733C3.48565 27.6335 3.42976 27.4986 3.42976 27.3579V24.3518C3.42976 24.2111 3.48565 24.0762 3.58513 23.9767C3.68462 23.8772 3.81954 23.8213 3.96024 23.8213C4.10093 23.8213 4.23586 23.8772 4.33534 23.9767C4.43483 24.0762 4.49072 24.2111 4.49072 24.3518ZM6.05472 24.3518V26.2814C6.05472 26.4221 5.99883 26.557 5.89934 26.6565C5.79986 26.756 5.66493 26.8119 5.52424 26.8119C5.38354 26.8119 5.24862 26.756 5.14913 26.6565C5.04965 26.557 4.99376 26.4221 4.99376 26.2814V24.3518C4.99375 24.2822 5.00746 24.2132 5.03412 24.1488C5.06077 24.0844 5.09985 24.0259 5.14911 23.9767C5.19837 23.9274 5.25685 23.8884 5.32122 23.8617C5.38558 23.835 5.45457 23.8213 5.52424 23.8213C5.5939 23.8213 5.66289 23.835 5.72726 23.8617C5.79162 23.8884 5.8501 23.9274 5.89937 23.9767C5.94863 24.0259 5.9877 24.0844 6.01436 24.1488C6.04101 24.2132 6.05473 24.2822 6.05472 24.3518ZM31.472 16.0016C32.3469 16.0016 33.0587 16.7133 33.0586 17.5883V33.9893C33.0586 34.825 32.3786 35.505 31.5428 35.505H2.45712C1.62136 35.505 0.941437 34.8251 0.941437 33.9893V17.5883C0.941437 16.7134 1.6532 16.0016 2.52816 16.0016H6.95608C7.83096 16.0016 8.5428 16.7133 8.5428 17.5883V21.6405L9.31336 19.5953C9.3387 19.5281 9.37743 19.4668 9.4272 19.415C9.47696 19.3632 9.53673 19.322 9.60288 19.294L12.3514 18.1293L15.4222 10.6411C15.5009 10.448 15.6355 10.2828 15.8087 10.1666C15.9819 10.0504 16.1858 9.98864 16.3943 9.9891H17.6058C18.0339 9.9891 18.4154 10.245 18.5779 10.6411L21.6487 18.1293L24.3972 19.294C24.4634 19.322 24.5231 19.3631 24.5729 19.4149C24.6227 19.4667 24.6614 19.5281 24.6867 19.5953L25.4574 21.6407V17.5884C25.4574 16.7135 26.1691 16.0017 27.0441 16.0017H31.472V16.0016ZM26.5184 17.5883H26.5186V24.4568L28.7202 30.3005H31.9978V17.5882C31.9976 17.4489 31.9422 17.3152 31.8436 17.2167C31.7451 17.1181 31.6114 17.0627 31.4721 17.0625H27.0441C26.9047 17.0627 26.7711 17.1182 26.6726 17.2167C26.574 17.3153 26.5186 17.4489 26.5184 17.5883ZM16.4014 11.0501L13.7394 17.5411L16.7932 16.2471C16.8587 16.2193 16.929 16.205 17.0002 16.205C17.0713 16.205 17.1416 16.2193 17.2071 16.2471L20.2608 17.541L17.599 11.0501L16.4014 11.0501ZM10.2262 20.1821L17.0002 17.3117L23.7741 20.1821L27.5864 30.3005H26.5064L23.0612 21.1564C23.0359 21.0892 22.9971 21.0278 22.9474 20.976C22.8976 20.9242 22.8378 20.883 22.7717 20.855L17.207 18.497C17.1416 18.4693 17.0712 18.455 17.0001 18.455C16.929 18.455 16.8586 18.4693 16.7931 18.497L11.2285 20.8549C11.1623 20.883 11.1026 20.9241 11.0528 20.976C11.003 21.0278 10.9643 21.0892 10.939 21.1564L7.49384 30.3005H6.41384L10.2262 20.1821ZM25.3726 30.3005L22.1485 21.7432L17.0002 19.5616L11.8518 21.7432L8.62768 30.3005H25.3726ZM2.52824 17.0625H6.95616C7.09552 17.0627 7.22913 17.1181 7.32768 17.2167C7.42623 17.3152 7.48167 17.4489 7.48184 17.5882V24.4565L5.28008 30.3003H2.00256V17.5882C2.00273 17.4489 2.05816 17.3152 2.15671 17.2167C2.25526 17.1181 2.38887 17.0627 2.52824 17.0625ZM31.9977 33.9893V31.3615H2.00256V33.9893C2.00268 34.1099 2.05063 34.2255 2.13588 34.3107C2.22113 34.396 2.33672 34.4439 2.45728 34.4441H31.543C31.6636 34.4439 31.7791 34.3959 31.8643 34.3107C31.9496 34.2254 31.9975 34.1099 31.9977 33.9893ZM31.6369 20.5334C31.6369 19.2217 30.5697 18.1545 29.258 18.1545C27.9462 18.1545 26.879 19.2217 26.879 20.5334C26.879 21.8451 27.9462 22.9123 29.258 22.9123C30.5698 22.9123 31.6369 21.8452 31.6369 20.5334ZM27.9402 20.5334C27.9402 21.2601 28.5314 21.8513 29.2581 21.8513C29.9848 21.8513 30.5759 21.2601 30.5759 20.5334C30.5759 19.8068 29.9848 19.2156 29.2581 19.2156C28.5314 19.2156 27.9402 19.8068 27.9402 20.5334ZM30.5705 24.3518C30.5705 24.0588 30.333 23.8213 30.04 23.8213C29.747 23.8213 29.5095 24.0589 29.5095 24.3518V27.3579C29.5095 27.4986 29.5654 27.6335 29.6649 27.733C29.7644 27.8325 29.8993 27.8884 30.04 27.8884C30.1807 27.8884 30.3156 27.8325 30.4151 27.733C30.5146 27.6335 30.5705 27.4986 30.5705 27.3579V24.3518ZM28.4761 26.8118C28.6168 26.8118 28.7517 26.7559 28.8512 26.6564C28.9507 26.557 29.0066 26.422 29.0066 26.2813V24.3517C29.0066 24.2821 28.9928 24.2131 28.9662 24.1487C28.9395 24.0844 28.9004 24.0259 28.8512 23.9766C28.8019 23.9274 28.7434 23.8883 28.6791 23.8616C28.6147 23.835 28.5457 23.8213 28.4761 23.8213C28.4064 23.8213 28.3374 23.835 28.2731 23.8616C28.2087 23.8883 28.1502 23.9274 28.101 23.9766C28.0517 24.0259 28.0126 24.0844 27.986 24.1487C27.9593 24.2131 27.9456 24.2821 27.9456 24.3517V26.2813C27.9456 26.351 27.9593 26.42 27.986 26.4844C28.0126 26.5487 28.0517 26.6072 28.1009 26.6565C28.1502 26.7057 28.2087 26.7448 28.2731 26.7715C28.3374 26.7981 28.4064 26.8118 28.4761 26.8118ZM19.1227 21.0125C19.0447 20.9647 18.9555 20.9378 18.864 20.9346C18.7725 20.9314 18.6817 20.9519 18.6005 20.9941L14.5014 23.1272C14.4153 23.172 14.3431 23.2395 14.2927 23.3225C14.2424 23.4055 14.2158 23.5007 14.2158 23.5977V26.9125C13.2423 26.6099 12.2333 27.3187 12.2333 28.3276C12.2333 29.1465 12.9158 29.8127 13.755 29.8127C14.5941 29.8127 15.2767 29.1465 15.2767 28.3276V23.9197L18.3067 22.3429L18.2815 25.0877C17.3039 24.774 16.2863 25.4854 16.2863 26.4983C16.2863 27.3172 16.9689 27.9834 17.808 27.9834C18.6454 27.9834 19.3267 27.3198 19.3294 26.5032H19.3296V26.4979L19.3758 21.4695C19.3766 21.378 19.3538 21.2878 19.3094 21.2077C19.2651 21.1276 19.2008 21.0604 19.1227 21.0125ZM13.7551 28.7519C14.0091 28.7519 14.2158 28.5617 14.2159 28.3277C14.2159 28.0939 14.0092 27.9036 13.7551 27.9036C13.5011 27.9036 13.2944 28.0939 13.2944 28.3277C13.2944 28.5616 13.5011 28.7519 13.7551 28.7519ZM17.8081 26.9226C18.0621 26.9226 18.2688 26.7323 18.2688 26.4985C18.2688 26.2646 18.0622 26.0743 17.8081 26.0743C17.5541 26.0743 17.3474 26.2646 17.3474 26.4985C17.3474 26.7324 17.5541 26.9226 17.8081 26.9226ZM11.7695 12.6893H8.7436C8.6029 12.6893 8.46797 12.7452 8.36849 12.8447C8.26901 12.9442 8.21312 13.0791 8.21312 13.2198C8.21312 13.3605 8.26901 13.4954 8.36849 13.5949C8.46797 13.6944 8.6029 13.7503 8.7436 13.7503H11.7695C11.9102 13.7503 12.0451 13.6944 12.1446 13.5949C12.2441 13.4954 12.3 13.3605 12.3 13.2198C12.3 13.0791 12.2441 12.9442 12.1446 12.8447C12.0451 12.7452 11.9102 12.6893 11.7695 12.6893ZM11.537 7.00638C11.4372 6.90868 11.3028 6.8543 11.1631 6.85506C11.0234 6.85582 10.8896 6.91165 10.7908 7.01043C10.6921 7.10921 10.6362 7.24297 10.6354 7.38268C10.6347 7.52238 10.689 7.65675 10.7867 7.75662L12.9263 9.89622C12.9755 9.94559 13.034 9.98473 13.0984 10.0114C13.1628 10.0381 13.2318 10.0518 13.3015 10.0517C13.7699 10.0517 14.0117 9.48094 13.6767 9.14598L11.537 7.00638ZM16.4696 7.98918V4.96318C16.4696 4.82249 16.5255 4.68756 16.625 4.58807C16.7245 4.48859 16.8594 4.4327 17.0001 4.4327C17.1408 4.4327 17.2757 4.48859 17.3752 4.58807C17.4747 4.68756 17.5306 4.82249 17.5306 4.96318V7.9891C17.5306 8.05876 17.5169 8.12775 17.4902 8.19212C17.4635 8.25648 17.4245 8.31497 17.3752 8.36423C17.3259 8.41349 17.2675 8.45256 17.2031 8.47922C17.1387 8.50587 17.0697 8.51959 17.0001 8.51958C16.9304 8.51959 16.8614 8.50588 16.7971 8.47923C16.7327 8.45258 16.6742 8.41351 16.625 8.36426C16.5757 8.315 16.5366 8.25653 16.51 8.19217C16.4833 8.12782 16.4696 8.05884 16.4696 7.98918ZM20.3236 9.14598C20.2731 9.19497 20.2329 9.2535 20.2052 9.31819C20.1776 9.38287 20.1631 9.45241 20.1625 9.52275C20.162 9.5931 20.1755 9.66285 20.2021 9.72794C20.2288 9.79303 20.2682 9.85217 20.3179 9.90191C20.3676 9.95166 20.4268 9.99101 20.4919 10.0177C20.557 10.0444 20.6267 10.0578 20.6971 10.0573C20.7674 10.0568 20.8369 10.0423 20.9016 10.0146C20.9663 9.98695 21.0249 9.9467 21.0738 9.89622L23.2135 7.75662C23.2628 7.70736 23.3019 7.64888 23.3285 7.58452C23.3552 7.52016 23.3689 7.45117 23.3689 7.3815C23.3689 7.31183 23.3552 7.24284 23.3285 7.17848C23.3019 7.11411 23.2628 7.05563 23.2135 7.00638C23.1643 6.9571 23.1058 6.91802 23.0414 6.89135C22.9771 6.86468 22.9081 6.85096 22.8384 6.85096C22.7687 6.85096 22.6997 6.86468 22.6354 6.89135C22.571 6.91802 22.5125 6.9571 22.4633 7.00638L20.3236 9.14598ZM21.7002 13.2198C21.7002 13.2895 21.7139 13.3585 21.7406 13.4228C21.7673 13.4872 21.8063 13.5457 21.8556 13.5949C21.9049 13.6442 21.9633 13.6833 22.0277 13.7099C22.0921 13.7366 22.1611 13.7503 22.2307 13.7503H25.2566C25.3973 13.7503 25.5323 13.6944 25.6317 13.5949C25.7312 13.4954 25.7871 13.3605 25.7871 13.2198C25.7871 13.0791 25.7312 12.9442 25.6317 12.8447C25.5323 12.7452 25.3973 12.6893 25.2566 12.6893H22.2307C22.1611 12.6893 22.0921 12.703 22.0277 12.7297C21.9633 12.7564 21.9049 12.7954 21.8556 12.8447C21.8063 12.894 21.7673 12.9524 21.7406 13.0168C21.7139 13.0812 21.7002 13.1502 21.7002 13.2198ZM12.3159 11.8134C12.8913 11.8134 13.0539 11.0138 12.519 10.7926L10.6149 10.0051C10.4854 9.95419 10.3412 9.95615 10.2131 10.0106C10.0851 10.065 9.98359 10.1675 9.93042 10.2961C9.87726 10.4246 9.8767 10.5689 9.92887 10.6978C9.98104 10.8268 10.0818 10.9301 10.2094 10.9855L12.1134 11.773C12.1776 11.7996 12.2464 11.8134 12.3159 11.8134ZM13.7782 6.83814C13.727 6.70868 13.7287 6.5643 13.783 6.43611C13.8372 6.30791 13.9397 6.20619 14.0683 6.15285C14.1969 6.09951 14.3413 6.09884 14.4704 6.15098C14.5994 6.20312 14.7029 6.3039 14.7583 6.43158L15.5479 8.33478C15.6936 8.6859 15.4283 9.0687 15.0581 9.0687C14.9532 9.06871 14.8506 9.03762 14.7633 8.97935C14.6761 8.92109 14.608 8.83826 14.5678 8.74134L13.7782 6.83814ZM18.447 8.3331L19.2344 6.42902C19.261 6.36464 19.3001 6.30614 19.3493 6.25686C19.3985 6.20757 19.457 6.16846 19.5213 6.14177C19.5857 6.11507 19.6546 6.10131 19.7243 6.10127C19.794 6.10123 19.8629 6.11492 19.9273 6.14154C19.9917 6.16816 20.0502 6.2072 20.0995 6.25643C20.1488 6.30566 20.1879 6.36412 20.2146 6.42846C20.2413 6.4928 20.255 6.56177 20.2551 6.63144C20.2551 6.7011 20.2414 6.77008 20.2148 6.83446L19.4274 8.73862C19.3139 9.01286 19.0017 9.1367 18.7344 9.02614C18.6044 8.97235 18.5011 8.86911 18.4472 8.73914C18.3933 8.60918 18.3932 8.46312 18.447 8.3331ZM21.8852 11.7674L23.7884 10.9777C23.9184 10.9238 24.0216 10.8205 24.0754 10.6904C24.1292 10.5604 24.1291 10.4144 24.0752 10.2844C24.0212 10.1545 23.9179 10.0513 23.7879 9.99752C23.6578 9.94375 23.5118 9.9438 23.3818 9.99766L21.4786 10.7873C21.3487 10.8413 21.2454 10.9446 21.1917 11.0746C21.1379 11.2047 21.1379 11.3507 21.1918 11.4807C21.3057 11.7549 21.6184 11.8782 21.8852 11.7674ZM2.14112 11.4865C3.28472 11.7404 4.17376 12.6883 4.35344 13.8454C4.44568 14.4399 5.3096 14.4397 5.40184 13.8453C5.58144 12.6883 6.4704 11.7403 7.61416 11.4865C8.16488 11.3643 8.16488 10.5729 7.61416 10.4507C6.47056 10.1969 5.58144 9.24902 5.40184 8.0919C5.3096 7.4975 4.44568 7.49758 4.35344 8.0919C4.17376 9.24894 3.2848 10.1969 2.1412 10.4507C1.5904 10.573 1.59048 11.3642 2.14112 11.4865ZM4.8776 9.68302C4.56113 10.202 4.13024 10.6417 3.61784 10.9686C4.13027 11.2956 4.56119 11.7353 4.87768 12.2543C5.19421 11.7354 5.62512 11.2956 6.13752 10.9686C5.62507 10.6417 5.19412 10.202 4.8776 9.68302ZM26.386 10.4508C25.8353 10.573 25.8353 11.3644 26.386 11.4866C27.5297 11.7405 28.4187 12.6884 28.5983 13.8455C28.6906 14.4399 29.5545 14.4399 29.6467 13.8456C29.8264 12.6885 30.7154 11.7405 31.859 11.4867C32.4098 11.3645 32.4098 10.5731 31.859 10.4509C30.7154 10.197 29.8264 9.24918 29.6467 8.09206C29.5545 7.49774 28.6906 7.49774 28.5983 8.09206C28.4186 9.24902 27.5296 10.197 26.386 10.4508ZM29.1225 9.68302C28.806 10.202 28.3751 10.6417 27.8626 10.9686C28.3751 11.2956 28.806 11.7353 29.1225 12.2543C29.439 11.7354 29.8699 11.2957 30.3823 10.9687C29.8699 10.6417 29.439 10.2019 29.1225 9.68302ZM21.9574 4.33534C21.4066 4.2131 21.4067 3.4219 21.9574 3.29966C23.101 3.04582 23.99 2.09798 24.1697 0.940857C24.2619 0.346537 25.1258 0.346537 25.2181 0.940857C25.3978 2.0979 26.2867 3.04574 27.4304 3.29958C27.9811 3.42174 27.9811 4.21318 27.4304 4.33542C26.2868 4.58918 25.3978 5.5371 25.2181 6.69422C25.1258 7.28862 24.2619 7.28862 24.1697 6.69422C23.99 5.53718 23.101 4.58918 21.9574 4.33534ZM24.6938 2.53182C24.3773 3.05074 23.9464 3.49049 23.434 3.8175C23.9464 4.14446 24.3773 4.58422 24.6938 5.10318C25.0104 4.58423 25.4413 4.14448 25.9537 3.8175C25.4412 3.49054 25.0103 3.05078 24.6938 2.53182ZM6.56976 4.33534C6.01904 4.21302 6.01912 3.42198 6.56976 3.29974C7.71336 3.0459 8.6024 2.09798 8.78208 0.940937C8.87432 0.346537 9.73824 0.346537 9.83048 0.940937C10.0102 2.09798 10.8992 3.04582 12.0428 3.29966C12.5935 3.42182 12.5935 4.21326 12.0428 4.3355C10.8992 4.58918 10.0102 5.53718 9.83048 6.6943C9.73824 7.2887 8.87432 7.28862 8.78208 6.69422C8.60248 5.53718 7.71352 4.58918 6.56976 4.33534ZM9.30632 2.53182C8.98978 3.05074 8.55887 3.49049 8.04648 3.8175C8.55891 4.14446 8.98982 4.58422 9.30632 5.10318C9.62281 4.58422 10.0537 4.14446 10.5662 3.8175C10.0537 3.49051 9.62283 3.05076 9.30632 2.53182Z" fill="#DE0977"/>
</svg>
