<svg width="34" height="36" viewBox="0 0 34 36" fill="none" xmlns="http://www.w3.org/2000/svg">
<path fill-rule="evenodd" clip-rule="evenodd" d="M13.8334 24.0451V18.6685C13.8333 18.536 13.8778 18.4073 13.9595 18.3031C14.0413 18.1988 14.1556 18.1249 14.2843 18.0933L19.8753 16.2141C20.2545 16.0869 20.6661 16.3654 20.6521 16.8056V16.8064L20.5758 24.1489V24.1498C20.6035 26.2828 18.1301 27.2261 16.73 25.8252C15.8498 24.9446 15.8498 23.522 16.73 22.6413C17.4263 21.9446 18.4903 21.7769 19.3631 22.2336C19.3746 22.2397 19.3875 22.2394 19.3987 22.2327C19.4099 22.226 19.4163 22.2148 19.4164 22.2018L19.4637 17.649C19.4639 17.6368 19.4585 17.6263 19.4487 17.6192C19.4389 17.612 19.4272 17.6103 19.4157 17.6141L15.0425 19.084C15.0352 19.0863 15.0289 19.091 15.0244 19.0972C15.02 19.1034 15.0176 19.1109 15.0177 19.1185V26.0518H15.0173C15.0499 28.0615 12.6067 29.1184 11.1702 27.6811C10.2901 26.8004 10.2901 25.3778 11.1702 24.4972C11.8596 23.8074 12.9109 23.6352 13.7805 24.0777C13.786 24.0806 13.7922 24.082 13.7985 24.0817C13.8047 24.0815 13.8108 24.0796 13.8161 24.0764C13.8215 24.0731 13.8259 24.0685 13.8289 24.063C13.8319 24.0575 13.8334 24.0513 13.8334 24.0451ZM15.5354 8.03243C16.1569 8.17204 16.6382 8.68427 16.7361 9.31604C16.7838 9.62451 17.2334 9.62572 17.2801 9.31212C17.3732 8.68644 17.865 8.16867 18.4841 8.03156C18.7699 7.96828 18.7714 7.55652 18.4802 7.49372C17.8641 7.36092 17.377 6.83931 17.2795 6.2102C17.2317 5.90164 16.7821 5.90052 16.7355 6.21412C16.6424 6.83972 16.1506 7.35756 15.5316 7.4946C15.2426 7.5586 15.2476 7.97307 15.5354 8.03243ZM15.1334 1.50532C15.0224 1.39429 14.96 1.2437 14.96 1.08668C14.96 0.929655 15.0224 0.779065 15.1334 0.668035C15.2445 0.557005 15.395 0.494629 15.5521 0.494629C15.7091 0.494629 15.8597 0.557005 15.9707 0.668035L16.5353 1.2326C16.5902 1.28757 16.6339 1.35284 16.6636 1.42467C16.6934 1.4965 16.7087 1.57349 16.7087 1.65124C16.7087 1.72898 16.6934 1.80597 16.6636 1.8778C16.6339 1.94963 16.5902 2.0149 16.5353 2.06988C16.4803 2.12485 16.415 2.16846 16.3432 2.19821C16.2714 2.22797 16.1944 2.24328 16.1166 2.24328C16.0389 2.24328 15.9619 2.22797 15.8901 2.19821C15.8182 2.16846 15.753 2.12485 15.698 2.06988L15.1334 1.50532ZM5.76567 6.82556C5.76567 8.027 7.22527 8.63292 8.07575 7.78243C8.92631 6.9318 8.32031 5.47243 7.11887 5.47243C6.37159 5.47236 5.76567 6.07836 5.76567 6.82556ZM25.5279 6.82556C25.5279 8.027 26.9874 8.63299 27.8379 7.78243C28.6885 6.9318 28.0824 5.47243 26.8811 5.47243C26.1338 5.47236 25.5279 6.07836 25.5279 6.82556ZM28.9726 5.39428C28.8848 5.4805 28.7665 5.52856 28.6434 5.52799C28.5203 5.52742 28.4024 5.47828 28.3154 5.39125C28.2284 5.30422 28.1792 5.18634 28.1787 5.06326C28.1781 4.94019 28.2262 4.82186 28.3124 4.73404L29.7244 3.32204C29.8125 3.23699 29.9304 3.18993 30.0528 3.19099C30.1753 3.19206 30.2924 3.24116 30.3789 3.32772C30.4655 3.41429 30.5146 3.53139 30.5157 3.65382C30.5168 3.77625 30.4697 3.8942 30.3847 3.98228L28.9726 5.39428ZM27.348 4.3346V0.987635C27.3464 0.864859 27.2965 0.747656 27.2091 0.661403C27.1217 0.575149 27.0039 0.526787 26.8811 0.526787C26.7583 0.526787 26.6404 0.575149 26.553 0.661403C26.4657 0.747656 26.4158 0.864859 26.4142 0.987635V4.33452C26.4157 4.45729 26.4656 4.5745 26.553 4.66076C26.6404 4.74702 26.7582 4.79539 26.881 4.7954C27.0038 4.79541 27.1217 4.74706 27.2091 4.66082C27.2965 4.57457 27.3464 4.45737 27.348 4.3346ZM24.7896 5.39436L23.3775 3.98236C23.2919 3.89439 23.2444 3.77625 23.2452 3.65351C23.246 3.53077 23.2952 3.41329 23.382 3.3265C23.4688 3.23971 23.5862 3.19058 23.709 3.18974C23.8317 3.1889 23.9499 3.23643 24.0378 3.32204L25.4498 4.73412C25.5361 4.82194 25.5841 4.94027 25.5835 5.06334C25.583 5.18642 25.5338 5.3043 25.4468 5.39133C25.3598 5.47836 25.2419 5.5275 25.1188 5.52807C24.9957 5.52864 24.8774 5.48058 24.7896 5.39436ZM24.3901 6.35868H21.0432C20.9194 6.35868 20.8006 6.40786 20.7131 6.49542C20.6255 6.58298 20.5763 6.70173 20.5763 6.82556C20.5763 6.94938 20.6255 7.06813 20.7131 7.15569C20.8006 7.24325 20.9194 7.29244 21.0432 7.29244H24.3901C24.5124 7.29017 24.6289 7.23999 24.7147 7.15268C24.8004 7.06537 24.8484 6.9479 24.8484 6.82556C24.8484 6.70321 24.8004 6.58575 24.7147 6.49844C24.6289 6.41112 24.5124 6.36094 24.3901 6.35868ZM24.7896 8.25684C24.8774 8.17061 24.9957 8.12255 25.1188 8.12312C25.2419 8.12369 25.3598 8.17283 25.4468 8.25986C25.5338 8.34689 25.583 8.46477 25.5835 8.58785C25.5841 8.71092 25.5361 8.82925 25.4498 8.91708L24.0378 10.3292C23.9502 10.4167 23.8315 10.4658 23.7077 10.4658C23.5839 10.4658 23.4651 10.4167 23.3775 10.3292C23.29 10.2416 23.2408 10.1228 23.2408 9.99899C23.2408 9.87518 23.29 9.75643 23.3775 9.66884L24.7896 8.25684ZM26.4142 9.31651V12.6635C26.4142 12.7873 26.4634 12.9061 26.551 12.9936C26.6386 13.0812 26.7573 13.1304 26.8811 13.1304C27.005 13.1304 27.1237 13.0812 27.2113 12.9936C27.2989 12.9061 27.3481 12.7873 27.3481 12.6635V9.31651C27.3481 9.19268 27.2989 9.07392 27.2113 8.98635C27.1237 8.89879 27.005 8.8496 26.8811 8.8496C26.7573 8.8496 26.6386 8.89879 26.551 8.98635C26.4634 9.07392 26.4142 9.19268 26.4142 9.31651ZM28.3124 8.91708C28.2262 8.82925 28.1781 8.71092 28.1787 8.58785C28.1792 8.46477 28.2284 8.34689 28.3154 8.25986C28.4024 8.17283 28.5203 8.12369 28.6434 8.12312C28.7665 8.12255 28.8848 8.17061 28.9726 8.25684L30.3847 9.66884C30.4703 9.7568 30.5178 9.87494 30.517 9.99768C30.5162 10.1204 30.467 10.2379 30.3802 10.3247C30.2935 10.4115 30.176 10.4606 30.0532 10.4614C29.9305 10.4623 29.8124 10.4148 29.7244 10.3292L28.3124 8.91708ZM29.3721 7.29244H32.719C32.8429 7.29244 32.9616 7.24325 33.0492 7.15569C33.1367 7.06813 33.1859 6.94938 33.1859 6.82556C33.1859 6.70173 33.1367 6.58298 33.0492 6.49542C32.9616 6.40786 32.8429 6.35868 32.719 6.35868H29.3721C29.2482 6.35868 29.1295 6.40786 29.0419 6.49542C28.9544 6.58298 28.9052 6.70173 28.9052 6.82556C28.9052 6.94938 28.9544 7.06813 29.0419 7.15569C29.1295 7.24325 29.2482 7.29244 29.3721 7.29244ZM9.21039 5.39428C9.12256 5.4805 9.00424 5.52856 8.88116 5.52799C8.75808 5.52742 8.64021 5.47828 8.55318 5.39125C8.46615 5.30422 8.417 5.18634 8.41644 5.06326C8.41587 4.94019 8.46392 4.82186 8.55015 4.73404L9.96215 3.32204C10.05 3.23581 10.1683 3.18776 10.2914 3.18832C10.4145 3.18889 10.5323 3.23803 10.6194 3.32506C10.7064 3.41209 10.7555 3.52997 10.7561 3.65305C10.7567 3.77612 10.7086 3.89445 10.6224 3.98228L9.21039 5.39428ZM7.58575 4.3346V0.987635C7.58414 0.864859 7.53424 0.747656 7.44685 0.661403C7.35946 0.575149 7.24162 0.526787 7.11883 0.526787C6.99604 0.526787 6.8782 0.575149 6.79081 0.661403C6.70342 0.747656 6.65352 0.864859 6.65191 0.987635V4.33452C6.65351 4.45729 6.7034 4.5745 6.79078 4.66076C6.87816 4.74702 6.996 4.79539 7.11879 4.7954C7.24158 4.79541 7.35943 4.74706 7.44682 4.66082C7.53422 4.57457 7.58413 4.45737 7.58575 4.3346ZM5.02743 5.39436L3.61543 3.98236C3.53038 3.89429 3.48332 3.77634 3.48439 3.65392C3.48545 3.53149 3.53455 3.41438 3.62112 3.3278C3.70768 3.24123 3.82479 3.19211 3.94721 3.19103C4.06964 3.18995 4.18759 3.237 4.27567 3.32204L5.68767 4.73412C5.77389 4.82194 5.82195 4.94027 5.82138 5.06334C5.82082 5.18642 5.77167 5.3043 5.68464 5.39133C5.59761 5.47836 5.47974 5.5275 5.35666 5.52807C5.23358 5.52864 5.11526 5.48058 5.02743 5.39436ZM4.62791 6.35868H1.28095C1.15862 6.36094 1.04207 6.41112 0.956359 6.49844C0.87065 6.58575 0.822632 6.70321 0.822632 6.82556C0.822632 6.9479 0.87065 7.06537 0.956359 7.15268C1.04207 7.23999 1.15862 7.29017 1.28095 7.29244H4.62783C4.75016 7.29018 4.86671 7.24001 4.95243 7.1527C5.03815 7.0654 5.08617 6.94794 5.08619 6.82559C5.0862 6.70325 5.03819 6.58578 4.95249 6.49846C4.86678 6.41114 4.75024 6.36095 4.62791 6.35868ZM5.02743 8.25684C5.11526 8.17061 5.23358 8.12255 5.35666 8.12312C5.47974 8.12369 5.59761 8.17283 5.68464 8.25986C5.77167 8.34689 5.82082 8.46477 5.82138 8.58785C5.82195 8.71092 5.77389 8.82925 5.68767 8.91708L4.27567 10.3292C4.18759 10.4142 4.06964 10.4612 3.94721 10.4602C3.82479 10.4591 3.70768 10.41 3.62112 10.3234C3.53455 10.2368 3.48545 10.1197 3.48439 9.99728C3.48332 9.87485 3.53038 9.7569 3.61543 9.66884L5.02743 8.25684ZM6.65199 9.31651V12.6635C6.65199 12.7873 6.70118 12.9061 6.78875 12.9936C6.87631 13.0812 6.99507 13.1304 7.11891 13.1304C7.24274 13.1304 7.36151 13.0812 7.44907 12.9936C7.53664 12.9061 7.58583 12.7873 7.58583 12.6635V9.31651C7.58583 9.19268 7.53664 9.07392 7.44907 8.98635C7.36151 8.89879 7.24274 8.8496 7.11891 8.8496C6.99507 8.8496 6.87631 8.89879 6.78875 8.98635C6.70118 9.07392 6.65199 9.19268 6.65199 9.31651ZM8.55015 8.91708C8.46392 8.82925 8.41587 8.71092 8.41644 8.58785C8.417 8.46477 8.46615 8.34689 8.55318 8.25986C8.64021 8.17283 8.75808 8.12369 8.88116 8.12312C9.00424 8.12255 9.12256 8.17061 9.21039 8.25684L10.6224 9.66884C10.7074 9.7569 10.7545 9.87485 10.7534 9.99728C10.7524 10.1197 10.7033 10.2368 10.6167 10.3234C10.5301 10.41 10.413 10.4591 10.2906 10.4602C10.1682 10.4612 10.0502 10.4142 9.96215 10.3292L8.55015 8.91708ZM9.60991 7.29244H12.9568C13.0791 7.29017 13.1957 7.23999 13.2814 7.15268C13.3671 7.06537 13.4151 6.9479 13.4151 6.82556C13.4151 6.70321 13.3671 6.58575 13.2814 6.49844C13.1957 6.41112 13.0791 6.36094 12.9568 6.35868H9.60991C9.48758 6.36094 9.37103 6.41112 9.28532 6.49844C9.19961 6.58575 9.15159 6.70321 9.15159 6.82556C9.15159 6.9479 9.19961 7.06537 9.28532 7.15268C9.37103 7.23999 9.48758 7.29017 9.60991 7.29244ZM15.6981 3.01484C15.8091 2.90381 15.9597 2.84143 16.1167 2.84143C16.2737 2.84143 16.4243 2.90381 16.5353 3.01484C16.6464 3.12587 16.7088 3.27645 16.7088 3.43348C16.7088 3.5905 16.6464 3.74109 16.5353 3.85212L15.9708 4.41676C15.8598 4.52779 15.7092 4.59016 15.5521 4.59016C15.3951 4.59016 15.2445 4.52779 15.1335 4.41676C15.0225 4.30573 14.9601 4.15514 14.9601 3.99812C14.9601 3.84109 15.0225 3.69051 15.1335 3.57947L15.6981 3.01484ZM18.0448 0.668035C18.0998 0.613059 18.165 0.569449 18.2369 0.539696C18.3087 0.509943 18.3857 0.494629 18.4634 0.494629C18.5412 0.494629 18.6182 0.509943 18.69 0.539696C18.7618 0.569449 18.8271 0.613059 18.8821 0.668035C18.937 0.723012 18.9807 0.788278 19.0104 0.860109C19.0402 0.931939 19.0555 1.00893 19.0555 1.08668C19.0555 1.16442 19.0402 1.24141 19.0104 1.31324C18.9807 1.38507 18.937 1.45034 18.8821 1.50532L18.3175 2.06988C18.2065 2.18091 18.0559 2.24328 17.8989 2.24328C17.7418 2.24328 17.5913 2.18091 17.4802 2.06988C17.3692 1.95885 17.3068 1.80826 17.3068 1.65124C17.3068 1.49421 17.3692 1.34363 17.4802 1.2326L18.0448 0.668035ZM17.4803 3.85204C17.4253 3.79706 17.3817 3.73179 17.352 3.65996C17.3222 3.58813 17.3069 3.51114 17.3069 3.4334C17.3069 3.35565 17.3222 3.27866 17.352 3.20683C17.3817 3.135 17.4253 3.06973 17.4803 3.01476C17.5353 2.95978 17.6006 2.91617 17.6724 2.88642C17.7442 2.85666 17.8212 2.84135 17.8989 2.84135C17.9767 2.84135 18.0537 2.85666 18.1255 2.88642C18.1973 2.91617 18.2626 2.95978 18.3176 3.01476L18.8822 3.57932C18.9932 3.69035 19.0556 3.84093 19.0556 3.99796C19.0556 4.15498 18.9932 4.30557 18.8822 4.4166C18.7711 4.52763 18.6205 4.59 18.4635 4.59C18.3065 4.59 18.1559 4.52763 18.0449 4.4166L17.4803 3.85204ZM28.2137 16.9896V20.7625C28.2137 20.7826 28.2301 20.799 28.2502 20.799H29.465C29.4747 20.799 29.484 20.7951 29.4908 20.7883C29.4976 20.7815 29.5015 20.7722 29.5015 20.7625V15.7658C29.5016 15.7583 29.4994 15.7511 29.4951 15.7449C29.4909 15.7388 29.4848 15.7342 29.4778 15.7316L17.0206 11.0604C17.0124 11.0572 17.0033 11.0572 16.995 11.0604L4.53775 15.7317C4.53075 15.7343 4.52472 15.7389 4.52048 15.745C4.51624 15.7512 4.514 15.7584 4.51407 15.7659V20.7626C4.51407 20.7827 4.53047 20.7991 4.55055 20.7991H5.76543C5.7751 20.7991 5.78436 20.7952 5.7912 20.7884C5.79804 20.7815 5.80189 20.7723 5.80191 20.7626V16.9896H5.80407C5.8041 16.8693 5.84091 16.7519 5.90957 16.6531C5.97824 16.5543 6.07547 16.4788 6.18823 16.4368L16.8021 12.4568C16.9348 12.4072 17.081 12.4072 17.2137 12.4568L27.7778 16.4182L27.7809 16.4192C27.9054 16.454 28.0151 16.5286 28.0932 16.6315C28.1714 16.7345 28.2137 16.8603 28.2137 16.9896ZM26.0829 22.0197V29.7272C26.0829 29.7473 26.0993 29.7637 26.1194 29.7637H31.1597C31.1693 29.7637 31.1786 29.7598 31.1854 29.753C31.1923 29.7462 31.1961 29.7369 31.1961 29.7272V22.0197C31.1961 22.01 31.1923 22.0008 31.1854 21.9939C31.1786 21.9871 31.1693 21.9833 31.1597 21.9832H26.1194C26.1097 21.9833 26.1004 21.9871 26.0936 21.9939C26.0867 22.0008 26.0829 22.01 26.0829 22.0197ZM27.2397 24.6003C27.2397 23.8272 27.8665 23.2005 28.6395 23.2005C29.4125 23.2005 30.0393 23.8272 30.0393 24.6003C30.0393 25.3733 29.4125 26 28.6395 26C27.8665 26 27.2397 25.3733 27.2397 24.6003ZM28.6395 27.0492C29.1461 27.0492 29.5568 27.4599 29.5568 27.9665C29.5568 28.4731 29.1461 28.8838 28.6395 28.8838C28.1329 28.8838 27.7222 28.4731 27.7222 27.9665C27.7222 27.4599 28.1329 27.0492 28.6395 27.0492ZM7.93271 29.7272V22.0197C7.93269 22.01 7.92884 22.0008 7.922 21.9939C7.91516 21.9871 7.9059 21.9833 7.89623 21.9832H2.85591C2.84624 21.9833 2.83697 21.9871 2.83014 21.9939C2.8233 22.0008 2.81945 22.01 2.81943 22.0197V29.7272C2.81943 29.7473 2.83583 29.7637 2.85591 29.7637H7.89623C7.90589 29.7637 7.91515 29.7598 7.92198 29.753C7.92881 29.7462 7.93267 29.7369 7.93271 29.7272ZM6.77583 24.6003C6.77583 25.3733 6.14911 26 5.37607 26C4.60303 26 3.97631 25.3733 3.97631 24.6003C3.97631 23.8272 4.60303 23.2005 5.37607 23.2005C6.14911 23.2005 6.77583 23.8272 6.77583 24.6003ZM5.37607 27.0492C5.88271 27.0492 6.29335 27.4599 6.29335 27.9665C6.29335 28.4731 5.88263 28.8838 5.37607 28.8838C4.86951 28.8838 4.45879 28.4731 4.45879 27.9665C4.45879 27.4599 4.86951 27.0492 5.37607 27.0492ZM11.0458 33.5144L11.8731 31.935C11.923 31.8395 11.998 31.7594 12.0902 31.7035C12.1824 31.6477 12.2881 31.6182 12.3958 31.6182V31.6159H21.6197C21.7369 31.6159 21.8513 31.6506 21.9487 31.7157C22.0461 31.7807 22.122 31.8732 22.1669 31.9814L22.1682 31.9844L22.9697 33.5144C22.9761 33.5268 22.9881 33.534 23.002 33.534H31.1597C31.1693 33.5339 31.1786 33.5301 31.1854 33.5232C31.1923 33.5164 31.1961 33.5071 31.1961 33.4975V30.9844C31.1961 30.9747 31.1923 30.9654 31.1854 30.9586C31.1786 30.9517 31.1693 30.9479 31.1597 30.9479H2.85591C2.84624 30.9479 2.83697 30.9517 2.83014 30.9586C2.8233 30.9654 2.81945 30.9747 2.81943 30.9844V33.4975C2.81943 33.5176 2.83583 33.534 2.85591 33.534H11.0135C11.0202 33.534 11.0268 33.5322 11.0325 33.5288C11.0382 33.5253 11.0428 33.5203 11.0458 33.5144ZM12.4272 33.5339C12.4209 33.534 12.4147 33.5324 12.4092 33.5293C12.4037 33.5262 12.3992 33.5218 12.396 33.5164C12.3927 33.511 12.3908 33.5049 12.3906 33.4986C12.3904 33.4923 12.3919 33.4861 12.3949 33.4805L12.7411 32.8196C12.7441 32.8136 12.7488 32.8086 12.7545 32.8052C12.7602 32.8017 12.7668 32.7999 12.7734 32.8H21.2422C21.2562 32.8 21.2681 32.8072 21.2745 32.8196L21.6208 33.4805C21.6238 33.4861 21.6253 33.4923 21.6251 33.4986C21.6249 33.5049 21.623 33.511 21.6197 33.5164C21.6165 33.5218 21.6119 33.5262 21.6064 33.5293C21.601 33.5324 21.5948 33.534 21.5885 33.5339H12.4272ZM22.2469 34.7181H11.7687C11.762 34.718 11.7555 34.7198 11.7498 34.7232C11.744 34.7267 11.7394 34.7317 11.7364 34.7376L11.3621 35.4521C11.3561 35.4637 11.3565 35.4767 11.3633 35.4879C11.3701 35.4991 11.3813 35.5055 11.3945 35.5055H22.6211C22.6274 35.5056 22.6336 35.504 22.6391 35.5009C22.6446 35.4978 22.6491 35.4933 22.6523 35.4879C22.6556 35.4825 22.6575 35.4764 22.6577 35.4701C22.6579 35.4639 22.6564 35.4576 22.6534 35.4521L22.2792 34.7376C22.2762 34.7317 22.2715 34.7267 22.2658 34.7232C22.2601 34.7198 22.2535 34.718 22.2469 34.7181Z" fill="#DE0977"/>
</svg>
