<svg width="78" height="78" viewBox="0 0 78 78" fill="none" xmlns="http://www.w3.org/2000/svg">
<path d="M23 27V51L35 39V27H23Z" fill="#1260FE"/>
<path d="M43 27V51L55 39V27H43Z" fill="#1260FE"/>
<path d="M23.0905 66.6602L18.9837 72.5355L16.0367 70.4102C15.4637 69.997 15.1134 69.6199 15.0219 69.0561C14.8715 68.5742 15.0846 68.1055 15.4385 67.614C15.6745 67.2864 15.9334 67.0996 16.1922 66.9129C16.451 66.7262 16.7328 66.6804 17.0373 66.7756C16.8507 66.5166 16.7231 66.1756 16.6774 65.8937C16.6317 65.6118 16.7858 65.2251 17.0218 64.8974C17.4347 64.324 17.8934 64.0325 18.4568 63.941C19.0203 63.8494 19.4886 64.0627 20.1435 64.535L23.0905 66.6602ZM19.4438 69.1334L17.9703 68.0707C17.6428 67.8346 17.4201 67.7984 17.1974 67.7623C16.9747 67.7261 16.7977 67.9719 16.6207 68.2177C16.4437 68.4634 16.4076 68.6863 16.3715 68.9091C16.4172 69.1911 16.6628 69.3682 16.9902 69.6043L18.3819 70.6079L19.4438 69.1334ZM21.2136 66.6758L19.6582 65.5541C19.3308 65.318 19.1081 65.2819 18.8854 65.2457C18.6626 65.2095 18.3448 65.4782 18.1088 65.8059C17.9319 66.0516 17.8957 66.2745 17.9415 66.5564C18.0462 66.7564 18.2328 67.0154 18.5602 67.2515L20.0337 68.3142L21.2136 66.6758Z" fill="#1260FE"/>
<path d="M17.6647 62.623L12.471 67.5898L8.90884 63.9008L9.7215 63.1177L12.1737 65.7574L13.4812 64.46L11.4383 62.1155L12.2509 61.3325L14.4347 63.6541L15.7422 62.3566L13.29 59.717L14.1026 58.9339L17.6647 62.623Z" fill="#1260FE"/>
<path d="M12.0177 55.4389C12.6822 56.416 12.8422 57.4027 12.6977 58.2942C12.4124 59.2085 11.8814 59.9458 10.964 60.5289C9.98765 61.1938 9.00166 61.354 8.11079 61.2094C7.21993 61.0648 6.40131 60.4744 5.79581 59.4154C5.58635 59.0155 5.39976 58.7564 5.27217 58.4155C5.14457 58.0746 5.01697 57.7336 4.97124 57.4517L6.08847 56.7639C6.20281 57.4686 6.517 58.0686 6.83118 58.6686C7.30909 59.3866 7.80026 59.7408 8.24569 59.8131C8.77299 59.9445 9.4544 59.6891 10.1129 59.2928C11.43 58.5001 11.6107 57.3858 10.8186 56.0678C10.632 55.8087 10.4454 55.5497 10.1769 55.2317C9.99034 54.9726 9.6629 54.7365 9.41731 54.5594L10.5346 53.8715C10.7801 54.0486 10.9667 54.3077 11.2942 54.5438C11.4808 54.8028 11.7492 55.1209 12.0177 55.4389Z" fill="#1260FE"/>
<path d="M9.43557 50.2164C10.224 52.403 9.5257 53.8908 7.28162 54.7617C6.05965 55.2495 5.0508 55.2688 4.27792 54.9603C3.50504 54.6519 3.02713 53.9338 2.56248 52.852C2.17969 51.8291 2.10148 50.9015 2.40971 50.1281C2.71794 49.3547 3.49447 48.7945 4.71644 48.3067C7.10137 47.4129 8.64713 48.0298 9.43557 50.2164ZM8.21361 50.7042C7.95842 50.0223 7.60811 49.6452 7.16267 49.5729C6.69437 49.3597 6.07196 49.5331 5.30869 49.7295C4.48642 50.0077 3.96873 50.3811 3.75562 50.8498C3.54251 51.3184 3.55212 51.8232 3.72545 52.446C4.03964 53.046 4.38995 53.4231 4.77639 53.5773C5.24469 53.7906 5.86711 53.6171 6.68937 53.3389C7.51164 53.0606 8.02932 52.6872 8.2653 52.3595C8.47841 51.8909 8.52779 51.3042 8.21361 50.7042Z" fill="#1260FE"/>
<path d="M7.95016 46.407L0.861655 47.2692L0.691976 45.7778L4.67936 43.1769L0.169678 41.6672L0 40.1758L7.08851 39.3135L7.25818 40.805L2.64608 41.3372L6.24203 42.5614L6.37923 43.4071L3.16838 45.4478L7.78048 44.9155L7.95016 46.407Z" fill="#1260FE"/>
<path d="M7.15115 38.363L0.0338215 37.7109L0.501167 32.5716L1.67375 32.6704L1.31843 36.2725L3.15916 36.4798L3.50122 33.2416L4.67379 33.3404L4.33174 36.5787L6.17247 36.786L6.52778 33.1839L7.70036 33.2827L7.15115 38.363Z" fill="#1260FE"/>
<path d="M8.36985 30.2806L1.6824 27.8226L2.83346 24.6699C3.04657 24.2013 3.25968 23.7327 3.65937 23.5231C4.05907 23.3135 4.31792 23.1267 4.74048 23.0581C5.16305 22.9894 5.60848 23.0617 5.99492 23.216C6.46322 23.4292 6.79067 23.6654 7.05912 23.9834C7.32757 24.3015 7.53703 24.7015 7.52377 25.0653C7.59237 25.4881 7.52011 25.9339 7.30701 26.4025L6.71341 28.0903L8.78647 28.8385L8.36985 30.2806ZM5.71782 27.7457L6.21629 26.3627C6.3704 25.976 6.38366 25.6122 6.19707 25.3532C6.01048 25.0941 5.82389 24.8351 5.43746 24.6809C5.05102 24.5267 4.68744 24.5134 4.48759 24.6182C4.14689 24.7459 3.96991 24.9916 3.81579 25.3783L3.25833 26.8433L5.71782 27.7457Z" fill="#1260FE"/>
<path d="M10.1145 25.4401L5.4365 19.3283L6.29855 17.9586L13.8348 19.4106L13.0317 20.6984L11.1681 20.3502L9.79802 22.5981L10.8947 24.0113L10.1145 25.4401ZM9.01553 21.7849L10.1497 19.8646L7.09064 19.2766L9.01553 21.7849Z" fill="#1260FE"/>
<path d="M14.3296 18.8962L9.18926 13.9446L11.6044 11.4545C12.1582 10.8582 12.7577 10.5438 13.344 10.5932C13.9303 10.6426 14.4805 10.9149 14.9945 11.4101C15.3448 11.7872 15.6133 12.1053 15.6819 12.5281C15.7505 12.951 15.6782 13.3967 15.5241 13.7834C15.665 13.7605 15.8058 13.7377 15.8877 13.7967C16.0285 13.7738 16.1922 13.8919 16.356 14.01L18.429 14.7582L17.3804 15.8689L15.3892 15.1797C15.2255 15.0616 15.0846 15.0845 14.9438 15.1074C14.8029 15.1303 14.7439 15.2122 14.5441 15.317L13.6724 16.1819L15.3782 17.7855L14.3296 18.8962ZM12.7262 15.2507L13.7748 14.1399C14.0927 13.8713 14.1878 13.5665 14.2239 13.3436C14.26 13.1208 14.1324 12.7798 13.864 12.4618C13.5955 12.1437 13.291 12.0485 13.0093 12.0943C12.7276 12.1401 12.5277 12.2449 12.2099 12.5135L11.1022 13.7061L12.7262 15.2507Z" fill="#1260FE"/>
<path d="M20.3589 13.2873L16.9546 8.34297L15.1427 9.65001L14.4782 8.67295L19.2782 5.28911L19.9427 6.26617L18.1898 7.49129L21.5941 12.4356L20.3589 13.2873Z" fill="#1260FE"/>
<path d="M28.9753 8.92179C26.7902 9.71079 25.2806 8.87103 24.5511 6.6025C24.1226 5.29777 24.1263 4.42916 24.4345 3.65574C24.7427 2.88233 25.5193 2.32217 26.6232 1.99815C27.7272 1.67413 28.6542 1.59586 29.3681 1.98623C30.082 2.37659 30.6418 3.15366 31.1293 4.37648C31.8587 6.64501 31.1833 8.27376 28.9753 8.92179ZM28.5697 7.75802C29.1921 7.58457 29.6279 7.15209 29.782 6.76538C29.9951 6.29675 29.9036 5.73294 29.6256 4.9101C29.3475 4.08726 29.0333 3.48729 28.565 3.27404C28.0967 3.06078 27.6513 2.98848 26.9699 3.24385C26.3475 3.4173 25.9707 3.76786 25.7575 4.23648C25.5444 4.70511 25.5769 5.35084 25.9368 6.23272C26.133 6.99652 26.5062 7.51457 26.9155 7.80974C27.3248 8.10492 27.9472 7.93147 28.5697 7.75802Z" fill="#1260FE"/>
<path d="M32.9686 7.69437L32.107 0.600924L37.1417 0L37.3246 1.12763L33.7803 1.55876L33.9958 3.33211L37.1174 2.96964L37.3004 4.09727L34.1787 4.45975L34.5181 7.44266L32.9686 7.69437Z" fill="#1260FE"/>
<path d="M43.8072 7.66957C42.8345 7.46593 42.0616 7.15749 41.6066 6.5804C41.1515 6.00332 40.8963 5.32144 41.0408 4.42995L41.7044 0.0544259L43.1815 0.248457L42.577 4.54205C42.4457 5.06972 42.5962 5.55161 42.7828 5.81064C42.9694 6.06966 43.4377 6.28292 43.965 6.41426C44.4923 6.5456 44.9738 6.39503 45.2327 6.20831C45.4915 6.02159 45.7865 5.612 45.8359 5.0253L46.4404 0.7317L47.9176 0.925726L47.254 5.30125C47.1095 6.19274 46.7784 6.8252 46.1199 7.22152C45.6251 7.73592 44.8389 7.7913 43.8072 7.66957Z" fill="#1260FE"/>
<path d="M47.8161 8.3203L50.3542 1.68723L53.4229 2.78005C53.8912 2.99331 54.3595 3.20656 54.5689 3.60654C54.8374 3.9246 54.965 4.26554 55.0336 4.6884C55.1022 5.11126 55.0299 5.55701 54.8758 5.94372C54.6627 6.41234 54.4267 6.74002 54.1907 7.06769C53.8729 7.33633 53.4732 7.54593 53.1096 7.53267C52.746 7.5194 52.2416 7.52901 51.7733 7.31575L50.0867 6.72175L49.1981 8.81913L47.8161 8.3203ZM50.4082 5.5845L51.7902 6.08332C52.1767 6.23754 52.5402 6.25081 52.7991 6.06409C53.1398 5.93641 53.3168 5.69066 53.4709 5.30395C53.625 4.91724 53.6383 4.55341 53.5335 4.35342C53.4059 4.01248 53.1604 3.83537 52.7739 3.68115L51.31 3.1233L50.4082 5.5845Z" fill="#1260FE"/>
<path d="M55.4726 11.8505C55.0633 11.5553 54.7359 11.3192 54.4084 11.083C54.081 10.8469 53.8944 10.5879 53.7078 10.3289L54.3929 9.20488C54.5795 9.4639 54.8479 9.78196 55.1754 10.0181C55.5028 10.2542 55.6894 10.5133 56.0758 10.6675C56.4851 10.9627 56.8716 11.1169 57.0943 11.153C57.317 11.1892 57.5169 11.0844 57.6939 10.8386C57.8118 10.6748 57.848 10.4519 57.8251 10.311C57.8022 10.17 57.6975 9.97003 57.5109 9.711C57.3243 9.45198 57.1377 9.19296 56.7874 8.81586C56.2505 8.17975 55.9592 7.72073 55.8906 7.29787C55.822 6.87501 55.8943 6.42927 56.1892 6.01968C56.6022 5.44625 57.0609 5.15473 57.6243 5.06319C58.1877 4.97166 58.8787 5.22107 59.6745 5.67046C60.0019 5.90661 60.3294 6.14275 60.6568 6.37889C60.9843 6.61503 61.1708 6.87406 61.3346 6.99213L60.6495 8.1161C60.2763 7.59805 59.8442 7.16192 59.2121 6.8306C58.8028 6.53542 58.4983 6.44023 58.1937 6.34504C57.8891 6.24986 57.6892 6.35466 57.5123 6.60041C57.3943 6.76425 57.4171 6.9052 57.44 7.04616C57.4629 7.18711 57.5676 7.3871 57.6723 7.58709C57.7771 7.78708 58.1045 8.02322 58.373 8.34128C58.8051 8.7774 59.0146 9.17738 59.2241 9.57736C59.3516 9.9183 59.4792 10.2592 59.3841 10.564C59.289 10.8688 59.1939 11.1736 59.0169 11.4194C58.6629 11.9109 58.2042 12.2024 57.6408 12.2939C57.0413 12.6083 56.3503 12.3589 55.4726 11.8505Z" fill="#1260FE"/>
<path d="M61.0849 16.1468C60.1616 15.3565 59.8017 14.4746 59.7235 13.5469C59.6453 12.6193 60.0125 11.764 60.8251 10.9809C61.6149 10.057 62.4143 9.63774 63.3413 9.55948C64.2683 9.48121 65.1231 9.84869 66.0464 10.639C66.3738 10.8752 66.6423 11.1932 66.8289 11.4523C67.0155 11.7113 67.2021 11.9703 67.3297 12.3112L66.399 13.2581C66.0848 12.6582 65.7117 12.1401 65.1976 11.6449C64.6017 11.0907 64.0516 10.8184 63.4881 10.91C62.9247 11.0015 62.407 11.375 61.8532 11.9713C60.8046 13.082 60.8467 14.2325 61.9566 15.2818C62.2022 15.4589 62.5296 15.6951 62.7752 15.8722C63.0208 16.0493 63.4072 16.2035 63.7118 16.2987L62.7812 17.2456C62.4766 17.1504 62.231 16.9733 61.9036 16.7371C61.6808 16.701 61.3534 16.4649 61.0849 16.1468Z" fill="#1260FE"/>
<path d="M62.9088 17.5865L70.3188 15.587L71.2517 16.8822L67.0137 23.2851L66.0808 21.9899L67.0608 20.4564L65.4862 18.3251L63.678 18.7636L62.9088 17.5865ZM66.6492 17.9192L67.9553 19.7324L69.6433 17.2158L66.6492 17.9192Z" fill="#1260FE"/>
<path d="M67.2099 24.0489L73.7556 21.1771L74.3478 22.5999L68.8833 25.0067L70.2772 28.2523L69.1961 28.7172L67.2099 24.0489Z" fill="#1260FE"/>
<path d="M69.4056 29.1172L76.3569 27.4092L77.6027 32.4149L76.4168 32.6799L75.5634 29.2018L73.7552 29.6403L74.481 32.7774L73.377 33.1014L72.6512 29.9643L70.843 30.4027L71.6964 33.8808L70.5924 34.2048L69.4056 29.1172Z" fill="#1260FE"/>
<path d="M70.6862 37.0106C70.6765 36.5058 70.6898 36.142 70.7621 35.6963C70.7753 35.3325 70.9294 34.9457 71.0246 34.6409L72.3151 34.576C72.22 34.8807 72.0659 35.2674 72.0526 35.6313C72.0394 35.9951 71.9671 36.4408 72.0128 36.7228C72.0225 37.2275 72.0911 37.6504 72.1958 37.8504C72.3005 38.0504 72.5461 38.2275 72.8278 38.1817C73.0505 38.2179 73.2504 38.1131 73.3094 38.0311C73.3684 37.9492 73.5453 37.7035 73.5815 37.4806C73.6766 37.1758 73.7717 36.871 73.844 36.4253C74.0113 35.6747 74.2834 35.1242 74.5194 34.7965C74.7554 34.4688 75.237 34.3183 75.8004 34.2267C76.4457 34.1942 76.914 34.4075 77.3461 34.8436C77.7783 35.2798 77.8926 35.9845 77.9709 36.9122C78.0395 37.335 77.9672 37.7808 77.9539 38.1446C77.9407 38.5084 77.8456 38.8132 77.8094 39.0361L76.5189 39.1011C76.7091 38.4915 76.8175 37.8229 76.785 37.1772C76.7754 36.6724 76.6478 36.3314 76.6021 36.0495C76.4974 35.8495 76.2518 35.6724 75.9701 35.7182C75.8292 35.7411 75.6883 35.764 75.4885 35.8688C75.2887 35.9736 75.3115 36.1145 75.2164 36.4193C75.1803 36.6422 75.0852 36.947 75.0129 37.3927C74.8816 37.9204 74.7504 38.448 74.5144 38.7757C74.2784 39.1034 74.1015 39.3491 73.7608 39.4768C73.4201 39.6045 73.2202 39.7093 72.8566 39.696C72.2113 39.7285 71.743 39.5153 71.3109 39.0792C70.8787 38.643 70.7054 38.0202 70.6862 37.0106Z" fill="#1260FE"/>
<path d="M69.955 46.3159C70.1946 45.1196 70.6437 44.3233 71.5021 43.8222C72.2196 43.3439 73.2056 43.1837 74.2602 43.4464C75.4556 43.6862 76.2514 44.1356 76.8111 44.9127C77.3709 45.6897 77.4491 46.6174 77.2095 47.8137C77.1372 48.2594 76.9831 48.6461 76.888 48.9509C76.7929 49.2557 76.5569 49.5834 76.4618 49.8882L75.1845 49.5893C75.5974 49.0159 75.7877 48.4063 75.9551 47.6558C76.1224 46.9053 76.09 46.2595 75.6578 45.8234C75.3665 45.3644 74.8163 45.0921 73.9254 44.9475C72.4254 44.6125 71.508 45.1955 71.1733 46.6966C71.0782 47.0014 71.0649 47.3652 71.0516 47.7291C71.0384 48.0929 71.0841 48.3748 71.0709 48.7386L69.7935 48.4398C69.7478 48.1579 69.7611 47.794 69.7743 47.4302C69.7876 47.0664 69.8008 46.7026 69.955 46.3159Z" fill="#1260FE"/>
<path d="M69.3216 49.0951L75.9139 51.8579L75.3336 53.1818L69.8416 50.9637L68.4907 54.2212L67.4132 53.8175L69.3216 49.0951Z" fill="#1260FE"/>
<path d="M65.3484 56.6847C65.9384 55.8655 66.574 55.3282 67.1965 55.1548C67.9597 54.9584 68.6279 55.0669 69.3646 55.5982L73.1664 58.091L72.2815 59.3197L68.7024 56.8631C68.2931 56.568 67.8477 56.4957 67.4251 56.5643C67.0844 56.692 66.7076 57.0426 66.4126 57.4521C66.1177 57.8617 66.0454 58.3075 66.0322 58.6713C66.1007 59.0942 66.3692 59.4122 66.7785 59.7074L70.4394 62.223L69.5545 63.4518L65.8936 60.9362C65.1568 60.4049 64.7018 59.8278 64.6465 59.0411C64.5321 58.3363 64.7585 57.5039 65.3484 56.6847Z" fill="#1260FE"/>
<path d="M63.0705 60.0205L68.0339 65.2179L65.3961 67.6718C64.9013 68.1861 64.3607 68.4186 63.8563 68.4283C63.4337 68.4969 62.9654 68.2836 62.5332 67.8475C62.2648 67.5295 62.0782 67.2704 62.0325 66.9885C61.9867 66.7066 61.941 66.4247 62.0361 66.1199C61.6954 66.2476 61.4137 66.2934 61.132 66.3391C60.8274 66.2439 60.5228 66.1488 60.1725 65.7717C59.6585 65.2765 59.508 64.7946 59.5574 64.2079C59.5478 63.7031 59.9018 63.2116 60.3966 62.6972L63.0705 60.0205ZM64.8834 64.066L63.5759 65.3634C63.2581 65.6321 63.2219 65.8549 63.1858 66.0778C63.1497 66.3007 63.2544 66.5007 63.5 66.6778C63.6866 66.9368 63.9912 67.032 64.132 67.0091C64.3547 67.0453 64.6136 66.8585 64.9314 66.5899L66.1209 65.4563L64.8834 64.066ZM62.7225 61.8854L61.415 63.1828C61.0972 63.4514 61.0021 63.7562 60.966 63.9791C60.9298 64.202 61.1164 64.461 61.3849 64.779C61.5715 65.0381 61.876 65.1332 62.0169 65.1104C62.2396 65.1465 62.4985 64.9598 62.8753 64.6092L64.1828 63.3118L62.7225 61.8854Z" fill="#1260FE"/>
<path d="M56.1732 65.6257C56.5729 65.4161 56.9726 65.2065 57.3133 65.0788C57.654 64.9511 57.9947 64.8235 58.2764 64.7777L59.1047 65.8728C58.823 65.9186 58.4004 65.9872 58.0007 66.1968C57.66 66.3245 57.3193 66.4522 57.0014 66.7208C56.5428 67.0124 56.2839 67.1991 56.1069 67.4448C55.9299 67.6906 55.9757 67.9725 56.1623 68.2315C56.2441 68.2906 56.4078 68.4086 56.5716 68.5267C56.7353 68.6448 56.9351 68.54 57.2169 68.4942C57.4986 68.4484 57.8393 68.3208 58.3208 68.1702C59.0841 67.9739 59.6475 67.8823 60.093 67.9546C60.5384 68.0269 60.8068 68.345 61.18 68.863C61.5532 69.3811 61.5857 70.0268 61.3726 70.4954C61.1005 71.046 60.6875 71.6194 59.8881 72.0386C59.4884 72.2482 59.1706 72.5169 58.8299 72.6446C58.4892 72.7722 58.1485 72.8999 58.0076 72.9228L57.3202 71.8048C57.9427 71.6313 58.5651 71.4579 59.0828 71.0844C59.4825 70.8748 59.8003 70.6062 59.9773 70.3604C60.1543 70.1147 60.1904 69.8918 60.0038 69.6328C59.6992 69.5376 59.5355 69.4195 59.4536 69.3605C59.3718 69.3015 59.0901 69.3472 58.8673 69.3111C58.5856 69.3568 58.3039 69.4026 57.9042 69.6122C57.2818 69.7857 56.8592 69.8543 56.4957 69.8411C56.1321 69.8278 55.8275 69.7326 55.5819 69.5555C55.3363 69.3784 55.0908 69.2013 54.9632 68.8603C54.59 68.3423 54.5804 67.8375 54.7706 67.2279C54.9609 66.6183 55.3967 66.1859 56.1732 65.6257Z" fill="#1260FE"/>
<path d="M43.7981 74.0016L44.7576 74.569L43.9317 75.7159L45.15 76.0966L44.8056 77.0929L43.7282 76.6893L43.9111 77.8169L42.7843 78L42.7422 76.8495L41.7658 77.5145L41.265 76.6555L42.4641 76.0266L41.3771 75.1182L42.1307 74.4171L43.0998 75.4894L43.7981 74.0016Z" fill="#1260FE"/>
<path d="M38.7177 74.3206L39.6182 74.97L38.6286 75.9988L39.8697 76.5205L39.3616 77.3987L38.3203 76.7722L38.3624 77.9227L37.2717 77.8829L37.3705 76.7095L36.2894 77.1745L35.8476 76.2336L37.0695 75.7457L36.1823 74.7325L37.0997 74.1494L37.8689 75.3265L38.7177 74.3206Z" fill="#1260FE"/>
</svg>
