<svg width="377" height="400" viewBox="0 0 377 400" fill="none" xmlns="http://www.w3.org/2000/svg">
<path d="M358.176 -36.105C377.336 -15.2128 370.571 24.6817 343.625 49.6489C329.688 62.5751 311.876 71.2718 298.499 84.6951C279.717 103.54 272.775 128.477 269.9 151.272C267.024 174.066 267.107 196.897 258.263 219.741C249.427 242.593 228.476 266.288 203.743 271.186C179.817 275.93 159.894 262.078 135.949 267.077C97.0113 275.198 72.6499 325.923 33.782 337.186C14.1579 342.872 -4.82235 336.211 -14.7682 323.246C-24.7148 310.28 -26.5583 291.977 -23.3529 273.768C-19.5768 252.291 -9.19795 229.567 -13.0311 209.863C-19.2878 177.795 -58.7076 168.65 -83.5471 148.809C-106.954 130.129 -117.979 97.6462 -106.171 64.7199C-94.3625 31.7936 -57.1199 1.23015 -22.4547 0.382378C-3.73774 -0.0813512 14.0203 7.26753 32.8842 -0.385719C56.2929 -9.88043 67.1865 -35.9422 78.1658 -57.5251C87.2718 -75.4275 99.3816 -93.2324 116.281 -106.368C133.193 -119.513 155.573 -127.194 172.734 -122.321C214.601 -110.462 201.815 -42.6912 250.865 -38.6599C288.736 -35.5314 329.648 -67.202 358.176 -36.105Z" stroke="url(#paint0_linear_6438_1872)" stroke-width="0.858384" stroke-miterlimit="10"/>
<path d="M346.371 -29.0579C364.509 -9.27987 358.107 28.4975 332.594 52.135C319.394 64.3673 302.537 72.6063 289.88 85.3132C272.089 103.16 265.532 126.767 262.81 148.339C260.088 169.91 260.163 191.527 251.796 213.164C243.43 234.799 223.6 257.221 200.188 261.87C177.532 266.355 158.67 253.249 136.001 257.969C99.1456 265.656 76.0728 313.684 39.2701 324.35C20.6952 329.732 2.73007 323.422 -6.70053 311.146C-16.1237 298.88 -17.856 281.537 -14.8328 264.314C-11.2638 243.987 -1.42652 222.471 -5.06632 203.81C-10.9871 173.451 -48.3074 164.79 -71.8262 146.017C-93.9867 128.331 -104.428 97.5791 -93.2517 66.4095C-82.0829 35.2295 -46.8177 6.30527 -13.9981 5.50532C3.72105 5.08128 20.5456 12.0205 38.3807 4.78352C60.5356 -4.207 70.858 -28.8785 81.2498 -49.3156C89.8762 -66.2654 101.337 -83.1193 117.331 -95.5614C133.339 -108.014 154.528 -115.271 170.779 -110.664C210.418 -99.4348 198.307 -35.267 244.74 -31.4612C280.607 -28.5208 319.336 -58.4942 346.358 -29.0479L346.371 -29.0579Z" stroke="url(#paint1_linear_6438_1872)" stroke-width="0.824049" stroke-linecap="round" stroke-linejoin="round"/>
<path d="M334.565 -22.0126C351.682 -3.34788 345.635 32.3014 321.577 54.6101C309.119 66.1574 293.21 73.929 281.253 85.9205C264.466 102.76 258.281 125.045 255.699 145.405C253.124 165.775 253.204 186.167 245.308 206.585C237.411 227.002 218.696 248.173 196.588 252.553C175.211 256.788 157.403 244.42 136.005 248.879C101.219 256.142 79.4493 301.463 44.7228 311.522C27.1849 316.611 10.2337 310.649 1.33934 299.063C-7.55432 287.479 -9.19384 271.125 -6.33364 254.861C-2.95848 235.673 6.31579 215.365 2.88603 197.767C-2.70022 169.115 -37.921 160.939 -60.1121 143.212C-81.0264 126.52 -90.8769 97.51 -80.3281 68.0779C-69.7909 38.6546 -36.4967 11.3488 -5.52389 10.5974C11.2051 10.1915 27.0681 16.7422 43.9101 9.91067C64.8306 1.42584 74.5613 -21.8561 84.3656 -41.1475C92.4917 -57.1453 103.324 -73.0475 118.421 -84.7868C133.531 -96.5358 153.529 -103.4 168.856 -99.0492C206.267 -88.4491 194.836 -27.9037 238.653 -24.2946C272.499 -21.5114 309.05 -49.8083 334.544 -22.0125L334.565 -22.0126Z" stroke="url(#paint2_linear_6438_1872)" stroke-width="0.789713" stroke-linecap="round" stroke-linejoin="round"/>
<path d="M322.759 -14.965C338.854 2.58466 333.17 36.1168 310.538 57.0868C298.823 67.9492 283.863 75.2533 272.625 86.5293C256.851 102.372 251.008 123.323 248.6 142.462C246.18 161.61 246.25 180.789 238.832 199.998C231.406 219.196 213.797 239.106 193.025 243.227C172.911 247.223 156.185 235.572 136.056 239.772C103.344 246.59 82.8708 289.224 50.2102 298.686C33.7141 303.462 17.7719 297.869 9.41455 286.974C1.05766 276.078 -0.48407 260.697 2.20688 245.408C5.37421 227.371 14.1088 208.27 10.8729 191.714C5.62137 164.77 -27.5 157.079 -48.3779 140.409C-68.0457 124.712 -77.3002 97.423 -67.3959 69.7572C-57.4787 42.0817 -26.1812 16.4136 2.94476 15.7109C18.6694 15.3336 33.5938 21.4945 49.4339 15.0591C69.0994 7.07935 78.2579 -14.8114 87.4834 -32.9477C95.1287 -47.9919 105.304 -62.9535 119.504 -73.99C133.717 -85.0362 152.518 -91.4865 166.935 -87.4021C202.117 -77.4313 191.374 -20.4991 232.583 -17.1048C264.419 -14.4899 298.8 -41.0994 322.759 -14.965Z" stroke="url(#paint3_linear_6438_1872)" stroke-width="0.755378" stroke-linecap="round" stroke-linejoin="round"/>
<path d="M310.953 -7.91944C326.035 8.52676 320.698 39.921 299.506 59.5722C288.528 69.7397 274.523 76.5863 263.993 87.1577C249.208 102.002 243.751 121.622 241.483 139.547C239.215 157.475 239.286 175.448 232.33 193.429C225.374 211.41 208.894 230.058 189.425 233.909C170.583 237.645 154.917 226.742 136.073 230.671C105.429 237.068 86.2596 276.993 55.676 285.849C40.229 290.321 25.3014 285.077 17.4611 274.872C9.62646 264.676 8.18307 250.265 10.6974 235.943C13.6716 219.046 21.8437 201.152 18.8099 185.65C13.8948 160.413 -17.1283 153.208 -36.6843 137.604C-55.1071 122.902 -63.7783 97.3438 -54.4927 71.425C-45.2085 45.507 -15.8948 21.467 11.3895 20.793C26.1252 20.4329 40.0956 26.2155 54.9415 20.1865C73.3532 12.7109 81.9406 -7.78959 90.5786 -24.7801C97.743 -38.8709 107.27 -52.8823 120.573 -63.2152C133.868 -73.5591 151.493 -79.5951 164.999 -75.777C197.953 -66.4354 187.884 -13.1065 226.475 -9.93861C256.282 -7.49082 288.493 -32.4131 310.938 -7.94013L310.953 -7.91944Z" stroke="url(#paint4_linear_6438_1872)" stroke-width="0.709597" stroke-linecap="round" stroke-linejoin="round"/>
<path d="M299.135 -0.862548C313.194 14.4685 308.233 43.7357 288.462 62.068C278.228 71.5516 265.169 77.9297 255.353 87.7753C241.572 101.612 236.48 119.901 234.367 136.635C232.26 153.349 232.323 170.11 225.823 186.881C219.336 203.643 203.965 221.031 185.816 224.633C168.252 228.12 153.639 217.953 136.079 221.613C107.519 227.577 89.6285 264.794 61.1181 273.063C46.7215 277.231 32.7944 272.348 25.4897 262.831C18.1857 253.316 16.8469 239.886 19.1857 226.53C21.9447 210.773 29.5693 194.107 26.7504 179.648C22.1705 156.119 -6.76603 149.408 -24.9957 134.851C-42.1721 121.143 -50.26 97.3164 -41.5933 73.1446C-32.9406 48.9834 -5.59809 26.5617 19.8266 25.9459C33.5568 25.6153 46.5938 30.9883 60.4197 25.385C77.5982 18.4142 85.5927 -0.695807 93.6431 -16.5407C100.328 -29.6786 109.206 -42.7393 121.604 -52.3795C134.001 -62.0199 150.434 -67.6625 163.025 -64.0906C193.743 -55.3886 184.37 -5.66187 220.351 -2.70949C248.15 -0.42983 278.17 -23.6648 299.108 -0.842465L299.135 -0.862548Z" stroke="url(#paint5_linear_6438_1872)" stroke-width="0.675262" stroke-linecap="round" stroke-linejoin="round"/>
<path d="M287.321 6.17433C300.359 20.3912 295.761 47.5412 277.416 64.5339C267.926 73.3335 255.814 79.2432 246.705 88.3836C233.929 101.213 229.208 118.179 227.248 133.692C225.288 149.203 225.349 164.73 219.326 180.295C213.318 195.848 199.067 211.964 182.231 215.307C165.937 218.534 152.386 209.115 136.096 212.515C109.61 218.034 93.0173 252.565 66.585 260.226C53.2365 264.092 40.311 259.567 33.5445 250.741C26.7767 241.916 25.5232 229.465 27.7046 217.077C30.2705 202.46 37.3332 187.001 34.7162 173.595C30.4508 151.775 3.63523 145.548 -13.2614 132.048C-29.1911 119.335 -36.6828 97.2294 -28.6618 74.8248C-20.628 52.4105 4.71786 31.6266 28.3086 31.0497C41.0486 30.7372 53.1329 35.731 65.9569 30.5238C81.8804 24.0581 89.2961 6.32798 96.7666 -8.3608C102.959 -20.5365 111.201 -32.6557 122.702 -41.5933C134.201 -50.5299 149.438 -55.7598 161.118 -52.4538C189.607 -44.3808 180.901 1.73321 214.28 4.47933C240.058 6.60274 267.899 -14.9566 287.31 6.21509L287.321 6.17433Z" stroke="url(#paint6_linear_6438_1872)" stroke-width="0.640927" stroke-linecap="round" stroke-linejoin="round"/>
<path d="M275.516 13.2188C287.532 26.3215 283.289 51.3434 266.399 67.0081C257.653 75.1224 246.488 80.5654 238.099 88.9901C226.314 100.821 221.97 116.447 220.158 130.757C218.352 145.047 218.398 159.379 212.851 173.705C207.314 188.04 194.17 202.894 178.661 205.968C163.644 208.945 151.16 200.253 136.133 203.384C111.716 208.479 96.4246 240.303 72.0501 247.357C59.7385 250.929 47.8398 246.743 41.5966 238.617C35.3523 230.492 34.21 219.002 36.2153 207.581C38.5734 194.114 45.0964 179.862 42.6932 167.5C38.7641 147.386 14.0468 141.645 -1.53513 129.201C-16.2199 117.483 -23.1283 97.1088 -15.7262 76.4511C-8.324 55.7934 15.0379 36.6376 36.7743 36.0991C48.5099 35.8152 59.6544 40.4202 71.4854 35.6184C86.1744 29.6584 92.9973 13.3188 99.8815 -0.225103C105.585 -11.4576 113.186 -22.6155 123.795 -30.8702C134.391 -39.1152 148.443 -43.9402 159.207 -40.8807C185.468 -33.437 177.45 9.06383 208.206 11.6046C231.975 13.5597 257.633 -6.30154 275.521 13.1979L275.516 13.2188Z" stroke="url(#paint7_linear_6438_1872)" stroke-width="0.606591" stroke-linecap="round" stroke-linejoin="round"/>
<path d="M263.71 20.2681C274.705 32.2574 270.824 55.1613 255.36 69.4877C247.349 76.9063 237.14 81.8923 229.45 89.601C218.67 100.424 214.684 114.738 213.039 127.817C211.393 140.894 211.424 154.002 206.356 167.12C201.287 180.237 189.258 193.84 175.061 196.655C161.325 199.382 149.893 191.428 136.15 194.288C113.807 198.94 99.8133 228.075 77.5028 234.533C66.2405 237.802 55.3434 233.975 49.6291 226.529C43.9148 219.083 42.8641 208.583 44.7009 198.14C46.8659 185.814 52.8252 172.769 50.6246 161.46C47.0308 143.053 24.413 137.797 10.1519 126.421C-3.28763 115.698 -9.6128 97.0542 -2.84232 78.1532C3.92817 59.2522 25.3191 41.7147 45.2086 41.2249C55.9529 40.9599 66.137 45.1755 76.9737 40.78C90.409 35.3242 96.6608 20.3749 102.965 7.98708C108.189 -2.29274 115.133 -12.5101 124.853 -20.0517C134.551 -27.593 147.405 -32.0043 157.259 -29.2112C181.291 -22.3965 173.949 16.502 202.101 18.8057C223.84 20.5932 247.328 2.41928 263.71 20.2681Z" stroke="url(#paint8_linear_6438_1872)" stroke-width="0.572256" stroke-linecap="round" stroke-linejoin="round"/>
<path d="M251.905 27.3142C261.878 38.1886 258.352 58.9654 244.329 71.9727C237.075 78.6974 227.801 83.2242 220.831 90.2189C211.055 100.034 207.433 113.017 205.936 124.892C204.437 136.767 204.474 148.652 199.874 160.552C195.276 172.451 184.368 184.782 171.484 187.337C159.017 189.805 148.647 182.598 136.175 185.199C115.901 189.427 103.208 215.855 82.9764 221.706C72.7571 224.661 62.8819 221.193 57.6917 214.448C52.5136 207.693 51.5601 198.164 53.2202 188.687C55.1914 177.5 60.5963 165.672 58.5903 155.406C55.3311 138.708 34.7999 133.946 21.8646 123.617C9.67295 113.888 3.93079 96.9749 10.0814 79.8219C16.2331 62.6679 35.6195 46.7578 53.6687 46.3277C63.4099 46.0905 72.6683 49.9067 82.4774 45.9267C94.6644 40.9874 100.337 27.4177 106.054 16.1756C110.798 6.84836 117.093 -2.41799 125.907 -9.26617C134.708 -16.1047 146.367 -20.1032 155.309 -17.5756C177.105 -11.4009 170.452 23.8838 195.988 25.994C215.718 27.6138 237.015 11.1253 251.87 27.3235L251.905 27.3142Z" stroke="url(#paint9_linear_6438_1872)" stroke-width="0.537921" stroke-linecap="round" stroke-linejoin="round"/>
<path d="M240.098 34.3599C249.058 44.1308 245.887 62.78 233.298 74.4579C226.787 80.4992 218.461 84.5583 212.212 90.8363C203.426 99.6536 200.189 111.305 198.845 121.959C197.5 132.612 197.536 143.293 193.407 153.974C189.279 164.654 179.485 175.735 167.928 178.02C156.74 180.239 147.422 173.769 136.234 176.1C118.043 179.895 106.632 203.615 88.4715 208.879C79.3019 211.531 70.4273 208.423 65.7738 202.367C61.1198 196.312 60.2646 187.753 61.7609 179.234C63.525 169.197 68.3821 158.566 66.5842 149.363C63.6603 134.373 45.2286 130.096 33.6288 120.823C22.6822 112.089 17.5364 96.8982 23.042 81.511C28.5609 66.1146 45.9764 51.8228 62.18 51.4406C70.931 51.2215 79.2356 54.6596 88.0499 51.0852C98.996 46.6404 104.084 34.4718 109.214 24.375C113.478 16.0011 119.124 7.68571 127.033 1.52998C134.93 -4.6161 145.404 -8.2105 153.43 -5.92949C172.999 -0.38369 167.019 31.2978 189.96 33.1818C207.668 34.6448 226.787 19.8338 240.127 34.3706L240.098 34.3599Z" stroke="url(#paint10_linear_6438_1872)" stroke-width="0.503585" stroke-linecap="round" stroke-linejoin="round"/>
<path d="M228.28 41.4137C236.218 50.0705 233.411 66.6016 222.26 76.9308C216.485 82.2771 209.101 85.8887 203.572 91.4509C195.791 99.2619 192.927 109.591 191.721 119.032C190.516 128.473 190.558 137.93 186.899 147.393C183.24 156.854 174.554 166.673 164.31 168.699C154.399 170.668 146.149 164.927 136.232 166.997C120.101 170.36 110.013 191.372 93.9176 196.04C85.7837 198.397 77.9248 195.638 73.799 190.263C69.675 184.888 68.9255 177.309 70.2404 169.776C71.8107 160.879 76.1128 151.467 74.5084 143.307C71.9209 130.023 55.5886 126.231 45.3005 118.016C35.5999 110.276 31.0454 96.8264 35.9325 83.1864C40.8198 69.5468 56.2514 56.8831 70.6004 56.539C78.3463 56.35 85.7039 59.3872 93.5249 56.2204C103.225 52.2897 107.733 41.5008 112.276 32.5493C116.046 25.1391 121.057 17.7638 128.069 12.3106C135.068 6.86896 144.345 3.688 151.46 5.70342C168.801 10.6193 163.509 38.6888 183.819 40.3568C199.511 41.6408 216.468 28.5273 228.28 41.4137Z" stroke="url(#paint11_linear_6438_1872)" stroke-width="0.46925" stroke-linecap="round" stroke-linejoin="round"/>
<path d="M216.474 48.4631C223.391 56.0056 220.951 70.3995 211.229 79.4201C206.198 84.0811 199.761 87.2257 194.945 92.0632C188.167 98.8651 185.654 107.873 184.624 116.091C183.593 124.311 183.612 132.564 180.423 140.808C177.235 149.052 169.677 157.609 160.745 159.376C152.105 161.086 144.917 156.091 136.261 157.891C122.214 160.819 113.415 179.135 99.3846 183.206C92.2994 185.261 85.4543 182.851 81.8537 178.175C78.2653 173.489 77.6007 166.892 78.7512 160.316C80.115 152.57 83.8547 144.364 82.4743 137.257C80.2209 125.681 65.9881 122.374 57.0146 115.215C48.5608 108.47 44.5876 96.7516 48.8433 84.8686C53.0989 72.9856 66.5455 61.9511 79.0607 61.6461C85.817 61.4734 92.2216 64.1334 99.0269 61.3712C107.472 57.9456 111.415 48.5277 115.372 40.7517C118.655 34.2839 123.037 27.8607 129.131 23.1103C135.235 18.3706 143.305 15.5937 149.511 17.3421C164.622 21.6289 160.005 46.0961 177.706 47.5475C191.376 48.6747 206.155 37.2377 216.454 48.4628L216.474 48.4631Z" stroke="url(#paint12_linear_6438_1872)" stroke-width="0.434915" stroke-linecap="round" stroke-linejoin="round"/>
<path d="M204.661 55.4989C210.556 61.9272 208.478 74.2042 200.182 81.8849C195.895 85.8626 190.405 88.5385 186.297 92.6699C180.509 98.4749 178.382 106.15 177.491 113.158C176.607 120.175 176.625 127.194 173.914 134.23C171.195 141.255 164.744 148.552 157.133 150.07C149.771 151.53 143.637 147.272 136.265 148.802C124.286 151.307 116.789 166.915 104.815 170.378C98.7809 172.13 92.9363 170.08 89.8732 166.094C86.8089 162.108 86.2548 156.47 87.2367 150.872C88.3994 144.256 91.5919 137.276 90.4056 131.213C88.4874 121.345 76.3547 118.524 68.7015 112.431C61.4926 106.681 58.1045 96.6933 61.7398 86.5576C65.3769 76.422 76.839 67.0146 87.5073 66.7582C93.2674 66.6249 98.7383 68.8751 104.529 66.5193C111.733 63.5883 115.091 55.5705 118.461 48.9406C121.264 43.425 124.997 37.9529 130.195 33.9062C135.391 29.8586 142.287 27.496 147.568 28.9888C160.452 32.6457 156.515 53.4892 171.614 54.7357C183.276 55.6947 195.862 45.9455 204.634 55.519L204.661 55.4989Z" stroke="url(#paint13_linear_6438_1872)" stroke-width="0.389134" stroke-linecap="round" stroke-linejoin="round"/>
<path d="M192.856 62.5434C197.729 67.8576 196.015 78.0169 189.152 84.3694C185.608 87.6619 181.066 89.8707 177.678 93.2864C172.895 98.0833 171.131 104.427 170.402 110.222C169.671 116.018 169.688 121.833 167.448 127.65C165.206 133.468 159.863 139.502 153.57 140.741C147.479 141.94 142.405 138.43 136.317 139.692C126.412 141.753 120.213 154.673 110.317 157.53C105.324 158.968 100.489 157.286 97.9546 153.98C95.4265 150.685 94.9567 146.028 95.7626 141.397C96.7175 135.931 99.3623 130.147 98.3909 125.127C96.8085 116.968 86.7606 114.641 80.4478 109.585C74.485 104.829 71.693 96.5626 74.698 88.183C77.7019 79.8044 87.1807 72.0259 96.0023 71.8181C100.771 71.7039 105.289 73.575 110.087 71.6242C116.044 69.209 118.823 62.571 121.606 57.0872C123.927 52.5247 127.005 47.9929 131.304 44.6491C135.604 41.3044 141.303 39.3557 145.673 40.5815C156.321 43.6004 153.066 60.8506 165.549 61.8714C175.18 62.6628 185.598 54.6 192.861 62.5239L192.856 62.5434Z" stroke="url(#paint14_linear_6438_1872)" stroke-width="0.354799" stroke-linecap="round" stroke-linejoin="round"/>
<path d="M181.051 69.5884C184.902 73.7875 183.543 81.82 178.122 86.8533C175.314 89.4508 171.726 91.2026 169.038 93.9031C165.26 97.6918 163.867 102.714 163.277 107.297C162.686 111.881 162.717 116.481 160.938 121.07C159.167 125.67 154.944 130.433 149.972 131.422C145.158 132.373 141.151 129.59 136.335 130.591C128.499 132.229 123.594 142.43 115.77 144.701C111.814 145.846 108.006 144.504 105.995 141.898C103.997 139.283 103.633 135.605 104.261 131.942C105.022 127.615 107.112 123.05 106.343 119.083C105.075 112.63 97.1479 110.789 92.1572 106.8C87.4393 103.038 85.2305 96.5029 87.6029 89.8813C89.9754 83.2596 97.4696 77.1083 104.45 76.9295C108.215 76.8431 111.785 78.3157 115.59 76.7707C120.291 74.8597 122.5 69.6131 124.694 65.2745C126.524 61.6748 128.965 58.0835 132.367 55.4426C135.77 52.8025 140.277 51.2456 143.731 52.2267C152.151 54.6156 149.584 68.2538 159.457 69.058C167.08 69.6821 175.313 63.3162 181.057 69.5689L181.051 69.5884Z" stroke="url(#paint15_linear_6438_1872)" stroke-width="0.320463" stroke-linecap="round" stroke-linejoin="round"/>
<path d="M169.245 76.6397C172.082 79.7344 171.078 85.6385 167.096 89.3231C165.031 91.2363 162.392 92.5194 160.423 94.505C157.636 97.2961 156.622 100.976 156.2 104.358C155.778 107.74 155.785 111.105 154.483 114.487C153.183 117.868 150.075 121.379 146.407 122.099C142.873 122.801 139.92 120.754 136.372 121.497C130.619 122.701 127.003 130.205 121.258 131.868C118.351 132.71 115.544 131.726 114.07 129.811C112.595 127.895 112.329 125.19 112.802 122.492C113.357 119.315 114.898 115.948 114.329 113.034C113.397 108.289 107.569 106.933 103.891 104C100.42 101.233 98.7944 96.4285 100.548 91.5542C102.302 86.679 107.813 82.1567 112.933 82.0361C115.707 81.9677 118.337 83.0518 121.112 81.9228C124.582 80.5163 126.196 76.6608 127.804 73.4666C129.153 70.8209 130.945 68.1806 133.443 66.2327C135.941 64.2838 139.259 63.1517 141.802 63.8658C147.993 65.6265 146.108 75.6402 153.364 76.2491C158.965 76.7173 165.022 72.027 169.237 76.6289L169.245 76.6397Z" stroke="url(#paint16_linear_6438_1872)" stroke-width="0.286128" stroke-linecap="round" stroke-linejoin="round"/>
<defs>
<linearGradient id="paint0_linear_6438_1872" x1="342.248" y1="-57.7204" x2="-69.4389" y2="250.144" gradientUnits="userSpaceOnUse">
<stop stop-color="#550ECA"/>
<stop offset="1" stop-color="#F929BB"/>
</linearGradient>
<linearGradient id="paint1_linear_6438_1872" x1="331.295" y1="-49.517" x2="-58.4553" y2="241.943" gradientUnits="userSpaceOnUse">
<stop stop-color="#550ECA"/>
<stop offset="1" stop-color="#F929BB"/>
</linearGradient>
<linearGradient id="paint2_linear_6438_1872" x1="320.336" y1="-41.3225" x2="-47.5046" y2="233.753" gradientUnits="userSpaceOnUse">
<stop stop-color="#550ECA"/>
<stop offset="1" stop-color="#F929BB"/>
</linearGradient>
<linearGradient id="paint3_linear_6438_1872" x1="309.38" y1="-33.1222" x2="-36.5238" y2="225.548" gradientUnits="userSpaceOnUse">
<stop stop-color="#550ECA"/>
<stop offset="1" stop-color="#F929BB"/>
</linearGradient>
<linearGradient id="paint4_linear_6438_1872" x1="298.416" y1="-24.9336" x2="-25.5639" y2="217.342" gradientUnits="userSpaceOnUse">
<stop stop-color="#550ECA"/>
<stop offset="1" stop-color="#F929BB"/>
</linearGradient>
<linearGradient id="paint5_linear_6438_1872" x1="287.454" y1="-16.7137" x2="-14.6288" y2="209.187" gradientUnits="userSpaceOnUse">
<stop stop-color="#550ECA"/>
<stop offset="1" stop-color="#F929BB"/>
</linearGradient>
<linearGradient id="paint6_linear_6438_1872" x1="276.497" y1="-8.51509" x2="-3.66181" y2="200.991" gradientUnits="userSpaceOnUse">
<stop stop-color="#550ECA"/>
<stop offset="1" stop-color="#F929BB"/>
</linearGradient>
<linearGradient id="paint7_linear_6438_1872" x1="265.528" y1="-0.335165" x2="7.30605" y2="192.766" gradientUnits="userSpaceOnUse">
<stop stop-color="#550ECA"/>
<stop offset="1" stop-color="#F929BB"/>
</linearGradient>
<linearGradient id="paint8_linear_6438_1872" x1="254.566" y1="7.85953" x2="18.2541" y2="184.576" gradientUnits="userSpaceOnUse">
<stop stop-color="#550ECA"/>
<stop offset="1" stop-color="#F929BB"/>
</linearGradient>
<linearGradient id="paint9_linear_6438_1872" x1="243.608" y1="16.0551" x2="29.2197" y2="176.377" gradientUnits="userSpaceOnUse">
<stop stop-color="#550ECA"/>
<stop offset="1" stop-color="#F929BB"/>
</linearGradient>
<linearGradient id="paint10_linear_6438_1872" x1="232.665" y1="24.272" x2="40.2133" y2="168.189" gradientUnits="userSpaceOnUse">
<stop stop-color="#550ECA"/>
<stop offset="1" stop-color="#F929BB"/>
</linearGradient>
<linearGradient id="paint11_linear_6438_1872" x1="221.683" y1="32.461" x2="51.1545" y2="159.984" gradientUnits="userSpaceOnUse">
<stop stop-color="#550ECA"/>
<stop offset="1" stop-color="#F929BB"/>
</linearGradient>
<linearGradient id="paint12_linear_6438_1872" x1="210.725" y1="40.6608" x2="62.1204" y2="151.789" gradientUnits="userSpaceOnUse">
<stop stop-color="#550ECA"/>
<stop offset="1" stop-color="#F929BB"/>
</linearGradient>
<linearGradient id="paint13_linear_6438_1872" x1="199.761" y1="48.8495" x2="73.0532" y2="143.603" gradientUnits="userSpaceOnUse">
<stop stop-color="#550ECA"/>
<stop offset="1" stop-color="#F929BB"/>
</linearGradient>
<linearGradient id="paint14_linear_6438_1872" x1="188.804" y1="57.044" x2="84.0461" y2="135.383" gradientUnits="userSpaceOnUse">
<stop stop-color="#550ECA"/>
<stop offset="1" stop-color="#F929BB"/>
</linearGradient>
<linearGradient id="paint15_linear_6438_1872" x1="177.844" y1="65.2359" x2="94.9961" y2="127.19" gradientUnits="userSpaceOnUse">
<stop stop-color="#550ECA"/>
<stop offset="1" stop-color="#F929BB"/>
</linearGradient>
<linearGradient id="paint16_linear_6438_1872" x1="166.891" y1="73.446" x2="105.981" y2="118.995" gradientUnits="userSpaceOnUse">
<stop stop-color="#550ECA"/>
<stop offset="1" stop-color="#F929BB"/>
</linearGradient>
</defs>
</svg>
