<svg width="160" height="54" viewBox="0 0 160 54" fill="none" xmlns="http://www.w3.org/2000/svg">
<path d="M21.9474 2.88675C25.0414 1.10042 28.8534 1.10042 31.9474 2.88675L45.2845 10.5869C48.3785 12.3733 50.2845 15.6745 50.2845 19.2472V34.6476C50.2845 38.2202 48.3785 41.5215 45.2845 43.3078L31.9474 51.008C28.8534 52.7943 25.0414 52.7943 21.9474 51.008L8.61026 43.3078C5.51625 41.5215 3.61026 38.2202 3.61026 34.6475V19.2472C3.61026 15.6745 5.51625 12.3733 8.61026 10.5869L21.9474 2.88675Z" fill="#1260FE"/>
<path d="M27.1975 9.26172C27.1973 9.26172 27.1973 9.26172 27.1973 9.26172C25.9287 9.26172 24.6912 9.39427 23.4971 9.64475L27.1975 17.8475V9.26172Z" fill="white"/>
<path d="M18.2304 11.6641C18.2301 11.6641 18.2301 11.6641 18.2301 11.6641C17.1315 12.2984 16.126 13.0317 15.2173 13.8458L22.5233 19.0995L18.2304 11.6641Z" fill="white"/>
<path d="M11.6661 18.2285C11.6657 18.2287 11.6657 18.2287 11.6657 18.2287C11.0315 19.3274 10.5274 20.4652 10.1476 21.6245L19.1016 22.5214L11.6661 18.2285Z" fill="white"/>
<path d="M9.26337 27.1953C9.26318 27.1956 9.26318 27.1956 9.26318 27.1956C9.26318 28.4644 9.39555 29.7016 9.64621 30.8958L17.8491 27.1954L9.26337 27.1953Z" fill="white"/>
<path d="M11.6661 36.1639C11.6661 36.1643 11.6661 36.1643 11.6661 36.1643C12.3006 37.2632 13.0339 38.2685 13.8479 39.1772L19.1017 31.8711L11.6661 36.1639Z" fill="white"/>
<path d="M18.2306 42.7266L18.2308 42.7267C19.3295 43.3612 20.4674 43.8652 21.6267 44.2452L22.5235 35.291L18.2306 42.7266Z" fill="white"/>
<path d="M27.1978 45.1307C27.1981 45.1307 27.1981 45.1307 27.1981 45.1307C28.4668 45.131 29.704 44.9984 30.8982 44.7478L27.1978 36.5449V45.1307Z" fill="white"/>
<path d="M34.0547 36.7089C30.9782 36.7089 28.5979 35.9117 26.9137 34.3173C25.2519 32.7229 24.421 30.5671 24.421 27.8499C24.421 24.2345 25.6561 21.304 28.1263 19.0584C30.6189 16.7903 33.7403 15.6562 37.4905 15.6562C39.5789 15.6562 41.1621 16.1278 42.24 17.071C43.3179 17.9917 43.8568 19.2155 43.8568 20.7426C43.8568 22.831 42.8351 24.5713 40.7915 25.9636C38.7705 27.3334 35.6379 28.0296 31.3937 28.052C31.461 29.4892 31.7866 30.6233 32.3705 31.4541C32.9544 32.2626 33.6842 32.6668 34.56 32.6668C35.4358 32.6668 36.188 32.3748 36.8168 31.791C37.468 31.2071 37.7937 30.2527 37.7937 28.9278C41.0722 28.9278 42.7115 29.7026 42.7115 31.252C42.7115 32.577 41.9031 33.8233 40.2863 34.991C38.6694 36.1363 36.5922 36.7089 34.0547 36.7089ZM36.9179 19.5973C35.7726 19.5973 34.7172 20.1699 33.7515 21.3152C32.8084 22.4605 32.1235 23.8078 31.6968 25.3573C33.9424 25.1777 35.6266 24.6724 36.7494 23.8415C37.8947 22.9882 38.4673 22.0899 38.4673 21.1468C38.4673 20.6977 38.3214 20.3271 38.0294 20.0352C37.76 19.7433 37.3894 19.5973 36.9179 19.5973Z" fill="white"/>
<path d="M61.1347 21.7229V24.5504H66.5457V28.2139H61.1347V31.3365H67.2672V35.1966H56.421V17.8628H67.2672V21.7229H61.1347Z" fill="#181818"/>
<path d="M76.0656 30.648L78.5908 21.4033H83.6171L78.9756 35.1966H73.1076L68.4661 21.4033H73.4924L76.0656 30.648Z" fill="#181818"/>
<path d="M98.1047 28.1401C98.1047 28.5171 98.0806 28.8941 98.0325 29.2711H89.1103C89.1584 30.0252 89.3588 30.5907 89.7115 30.9677C90.0802 31.3283 90.5452 31.5086 91.1063 31.5086C91.892 31.5086 92.4531 31.148 92.7898 30.4267H97.8161C97.6077 31.3774 97.1988 32.2298 96.5896 32.9838C95.9964 33.7214 95.2428 34.3033 94.3289 34.7295C93.4151 35.1556 92.405 35.3687 91.2987 35.3687C89.968 35.3687 88.7816 35.0819 87.7395 34.5082C86.7134 33.9345 85.9037 33.1149 85.3105 32.0495C84.7333 30.984 84.4447 29.7301 84.4447 28.2877C84.4447 26.8452 84.7333 25.5995 85.3105 24.5504C85.8877 23.485 86.6893 22.6654 87.7154 22.0917C88.7575 21.518 89.952 21.2312 91.2987 21.2312C92.6295 21.2312 93.8079 21.5098 94.834 22.0672C95.8601 22.6245 96.6617 23.4276 97.2389 24.4767C97.8161 25.5093 98.1047 26.7305 98.1047 28.1401ZM93.2948 26.9354C93.2948 26.3453 93.1024 25.8863 92.7176 25.5585C92.3329 25.2143 91.8519 25.0422 91.2747 25.0422C90.6975 25.0422 90.2245 25.2061 89.8558 25.5339C89.487 25.8454 89.2465 26.3125 89.1343 26.9354H93.2948Z" fill="#181818"/>
<path d="M108.86 21.2804C110.415 21.2804 111.649 21.8131 112.563 22.8785C113.477 23.9276 113.934 25.3536 113.934 27.1567V35.1966H109.22V27.7959C109.22 27.0091 109.02 26.3945 108.619 25.9519C108.218 25.4929 107.681 25.2635 107.008 25.2635C106.302 25.2635 105.749 25.4929 105.349 25.9519C104.948 26.3945 104.747 27.0091 104.747 27.7959V35.1966H100.034V21.4033H104.747V23.3703C105.164 22.7474 105.725 22.2475 106.431 21.8705C107.136 21.4771 107.946 21.2804 108.86 21.2804Z" fill="#181818"/>
<path d="M124.481 31.0906V35.1966H122.437C118.99 35.1966 117.266 33.4509 117.266 29.9596V25.411H115.607V21.4033H117.266V18.0595H122.004V21.4033H124.457V25.411H122.004V30.0333C122.004 30.4103 122.084 30.6808 122.244 30.8447C122.421 31.0086 122.709 31.0906 123.11 31.0906H124.481Z" fill="#181818"/>
<path d="M129.024 20.1248C128.19 20.1248 127.517 19.8953 127.004 19.4363C126.507 18.961 126.258 18.3709 126.258 17.6661C126.258 16.9449 126.507 16.3466 127.004 15.8712C127.517 15.3959 128.19 15.1582 129.024 15.1582C129.841 15.1582 130.499 15.3959 130.996 15.8712C131.509 16.3466 131.765 16.9449 131.765 17.6661C131.765 18.3709 131.509 18.961 130.996 19.4363C130.499 19.8953 129.841 20.1248 129.024 20.1248ZM131.356 21.4033V35.1966H126.643V21.4033H131.356Z" fill="#181818"/>
<path d="M133.271 28.2877C133.271 26.8616 133.56 25.6159 134.137 24.5504C134.714 23.485 135.516 22.6654 136.542 22.0917C137.584 21.518 138.77 21.2312 140.101 21.2312C141.817 21.2312 143.26 21.7147 144.43 22.6818C145.6 23.6325 146.354 24.9684 146.691 26.6895H141.688C141.4 25.788 140.839 25.3372 140.005 25.3372C139.412 25.3372 138.939 25.5913 138.586 26.0994C138.249 26.5912 138.081 27.3206 138.081 28.2877C138.081 29.2548 138.249 29.9924 138.586 30.5005C138.939 31.0086 139.412 31.2627 140.005 31.2627C140.855 31.2627 141.416 30.8119 141.688 29.9104H146.691C146.354 31.6151 145.6 32.951 144.43 33.9181C143.26 34.8852 141.817 35.3687 140.101 35.3687C138.77 35.3687 137.584 35.0819 136.542 34.5082C135.516 33.9345 134.714 33.1149 134.137 32.0495C133.56 30.984 133.271 29.7301 133.271 28.2877Z" fill="#181818"/>
<path d="M154.396 35.3687C153.178 35.3687 152.088 35.1638 151.126 34.7541C150.18 34.3279 149.426 33.7542 148.865 33.033C148.32 32.2954 148.015 31.4676 147.951 30.5497H152.521C152.585 30.9922 152.785 31.3365 153.122 31.5823C153.459 31.8282 153.875 31.9511 154.372 31.9511C154.757 31.9511 155.062 31.8692 155.286 31.7053C155.511 31.5413 155.623 31.3283 155.623 31.066C155.623 30.7218 155.439 30.4677 155.07 30.3038C154.701 30.1399 154.092 29.9596 153.242 29.7629C152.28 29.5662 151.479 29.3449 150.837 29.099C150.196 28.8532 149.635 28.4516 149.154 27.8943C148.689 27.337 148.456 26.583 148.456 25.6323C148.456 24.8127 148.673 24.0751 149.106 23.4194C149.539 22.7474 150.172 22.2147 151.006 21.8213C151.855 21.4279 152.873 21.2312 154.06 21.2312C155.823 21.2312 157.21 21.6738 158.22 22.5589C159.23 23.444 159.816 24.6078 159.976 26.0503H155.719C155.639 25.6077 155.447 25.2717 155.142 25.0422C154.853 24.7963 154.461 24.6734 153.964 24.6734C153.579 24.6734 153.282 24.7471 153.074 24.8947C152.881 25.0422 152.785 25.2471 152.785 25.5093C152.785 25.8372 152.97 26.0912 153.338 26.2715C153.707 26.4354 154.3 26.6076 155.118 26.7879C156.096 27.0009 156.906 27.2386 157.547 27.5009C158.204 27.7631 158.773 28.1893 159.254 28.7794C159.751 29.3531 160 30.1399 160 31.1398C160 31.9429 159.767 32.6642 159.303 33.3034C158.854 33.9427 158.204 34.4508 157.355 34.8278C156.521 35.1884 155.535 35.3687 154.396 35.3687Z" fill="#181818"/>
</svg>
