<svg width="40" height="40" viewBox="0 0 40 40" fill="none" xmlns="http://www.w3.org/2000/svg">
<g clip-path="url(#clip0_6038_295)">
<path d="M35.4168 33.3346H28.4501C27.7601 33.3346 27.2001 32.7746 27.2001 32.0846C27.2001 31.3946 27.7601 30.8346 28.4501 30.8346H34.5401L36.9651 24.168H3.03343L5.45843 30.8346H11.5501C12.2401 30.8346 12.8001 31.3946 12.8001 32.0846C12.8001 32.7746 12.2401 33.3346 11.5501 33.3346H4.58343C4.05843 33.3346 3.58843 33.0063 3.40843 32.5113L0.0751012 23.3446C-0.0632322 22.9613 -0.00823216 22.5346 0.226768 22.1996C0.460101 21.8663 0.841768 21.668 1.2501 21.668H38.7501C39.1584 21.668 39.5401 21.8663 39.7734 22.2013C40.0084 22.5346 40.0634 22.963 39.9251 23.3463L36.5918 32.513C36.4118 33.0063 35.9418 33.3346 35.4168 33.3346Z" fill="#1260FE"/>
<path d="M27.0849 40.0013C27.0216 40.0013 26.9583 39.9963 26.8933 39.9863C26.2116 39.8813 25.7433 39.243 25.8483 38.5613L27.2933 29.168H12.7066L14.1516 38.5613C14.2566 39.2446 13.7883 39.8813 13.1066 39.9863C12.4249 40.098 11.7849 39.6246 11.6816 38.9413L10.0149 28.108C9.95994 27.748 10.0633 27.3796 10.3016 27.103C10.5399 26.8263 10.8849 26.668 11.2499 26.668H28.7499C29.1149 26.668 29.4616 26.828 29.6983 27.1046C29.9349 27.3813 30.0399 27.748 29.9849 28.1096L28.3183 38.943C28.2249 39.5596 27.6916 40.0013 27.0849 40.0013Z" fill="#1260FE"/>
<path d="M37.5 23.7498C36.81 23.7498 36.25 23.1898 36.25 22.4998C36.25 19.2015 34.4866 16.0798 31.6483 14.3515C31.0583 13.9915 30.8716 13.2232 31.2316 12.6332C31.5916 12.0432 32.36 11.8565 32.95 12.2165C36.5266 14.3965 38.7483 18.3365 38.7483 22.4998C38.75 23.1898 38.19 23.7498 37.5 23.7498Z" fill="#1260FE"/>
<path d="M30.8333 15C32.214 15 33.3333 13.8807 33.3333 12.5C33.3333 11.1193 32.214 10 30.8333 10C29.4525 10 28.3333 11.1193 28.3333 12.5C28.3333 13.8807 29.4525 15 30.8333 15Z" fill="#1260FE"/>
<path d="M19.9999 13.3333C16.3233 13.3333 13.3333 10.3433 13.3333 6.66667C13.3333 2.99 16.3233 0 19.9999 0C23.6766 0 26.6666 2.99 26.6666 6.66667C26.6666 10.3433 23.6766 13.3333 19.9999 13.3333ZM19.9999 2.5C17.7016 2.5 15.8333 4.37 15.8333 6.66667C15.8333 8.96333 17.7016 10.8333 19.9999 10.8333C22.2983 10.8333 24.1666 8.96333 24.1666 6.66667C24.1666 4.37 22.2983 2.5 19.9999 2.5Z" fill="#1260FE"/>
<path d="M32.5 24.1667C31.81 24.1667 31.25 23.6067 31.25 22.9167C31.25 19.93 28.82 17.5 25.8333 17.5H14.1667C11.18 17.5 8.75 19.93 8.75 22.9167C8.75 23.6067 8.19 24.1667 7.5 24.1667C6.81 24.1667 6.25 23.6067 6.25 22.9167C6.25 18.5517 9.80167 15 14.1667 15H25.8333C30.1983 15 33.75 18.5517 33.75 22.9167C33.75 23.6067 33.19 24.1667 32.5 24.1667Z" fill="#1260FE"/>
</g>
<defs>
<clipPath id="clip0_6038_295">
<rect width="40" height="40" fill="white"/>
</clipPath>
</defs>
</svg>
