<svg width="59" height="60" viewBox="0 0 59 60" fill="none" xmlns="http://www.w3.org/2000/svg">
						<path d="M39.9089 31.8303H34.6058L53.1743 50.3985C48.7682 54.1842 43.2151 56.2491 37.3454 56.2491C30.8464 56.2491 24.7361 53.7181 20.1403 49.1229C15.3749 44.3568 13.006 38.09 13.0285 31.8303C13.0376 29.2954 13.4415 26.7628 14.236 24.3305C15.2011 21.3748 16.7409 18.5671 18.8654 16.0902L27.1056 24.3305H32.4088L18.8146 10.7363L17.4889 12.0624C13.96 15.5912 11.5755 19.8349 10.3214 24.3308C9.63792 26.7807 9.28737 29.3045 9.27956 31.8306C9.2571 39.0508 11.9921 46.2782 17.4886 51.775C22.7927 57.0784 29.8446 59.9993 37.345 59.9993C44.8455 59.9993 51.8974 57.0784 57.2009 51.7746L58.5265 50.4489L39.9089 31.8303Z" fill="black" />
						<path d="M28.0808 3.75022C40.8664 3.75022 51.3802 13.6622 52.3404 26.206H15.6366C15.3143 27.4389 15.0976 28.6933 14.9875 29.9559H56.1616V28.0808C56.1616 12.5969 43.5647 0 28.0808 0C12.5969 0 0 12.5969 0 28.0808V29.9559H7.47571C7.55741 28.6992 7.71038 27.4461 7.94929 26.206H3.82118C4.78135 13.6622 15.2951 3.75022 28.0808 3.75022Z" fill="black" />
					</svg>