<svg width="48" height="60" viewBox="0 0 48 60" fill="none" xmlns="http://www.w3.org/2000/svg">
						<path d="M19.26 28.4096C17.0083 30.6617 13.3453 30.6599 11.0932 28.4093L3.91973 21.2383V9.46172L19.6787 25.22L22.4506 22.4503L0 0V40.1812L16.9788 57.16C18.8103 58.9915 21.2446 60 23.8346 60C26.4246 60 28.8589 58.9915 30.6897 57.16L47.4327 40.417V0.254956L19.26 28.4096ZM27.9189 54.3885C26.8281 55.4792 25.3775 56.0803 23.835 56.0803C22.2918 56.0803 20.8418 55.4792 19.7504 54.3885L3.91973 38.5579V26.7813L25.6392 48.5001L25.6399 48.5008C25.6406 48.5015 25.6413 48.5022 25.6423 48.5029C25.8583 48.7188 26.0849 48.9195 26.3168 49.1121C26.3796 49.1642 26.4444 49.2124 26.5083 49.2628C26.6891 49.4053 26.8735 49.5415 27.0625 49.6699C27.1249 49.7124 27.1877 49.7543 27.2508 49.795C27.4714 49.9376 27.6969 50.0709 27.9274 50.1943C27.954 50.2085 27.9799 50.2245 28.0068 50.2383C28.8242 50.6666 29.6993 50.972 30.6106 51.1507C30.6337 51.1553 30.6571 51.1592 30.6801 51.1638C30.8106 51.1883 30.9393 51.2177 31.0712 51.2372L27.9189 54.3885ZM43.5137 27.0175V38.794C43.5137 38.794 36.2909 45.9998 36.1409 46.1221C36.1232 46.1367 36.104 46.1487 36.0863 46.1629C34.1346 47.7171 31.4038 47.8253 29.3454 46.4856C29.3351 46.4789 29.3238 46.4735 29.3138 46.4664C29.1812 46.3789 29.0536 46.282 28.927 46.1824C28.9004 46.1615 28.8717 46.1434 28.8451 46.1218C28.7011 46.0044 28.5621 45.8778 28.4274 45.7445C28.422 45.7392 28.416 45.7345 28.4103 45.7292L25.259 42.5772C25.3576 42.5627 25.4537 42.54 25.5516 42.5226C25.6555 42.5042 25.7594 42.4861 25.8622 42.4645C26.0679 42.4208 26.2707 42.3687 26.4725 42.312C26.5505 42.29 26.6299 42.2723 26.7072 42.2481C26.9817 42.1634 27.2519 42.0673 27.5175 41.9584C27.5774 41.934 27.6348 41.9042 27.694 41.8783C27.9004 41.7886 28.104 41.6936 28.3036 41.5897C28.393 41.5432 28.4802 41.4925 28.5681 41.4432C28.7366 41.3485 28.9022 41.2496 29.0653 41.1446C29.1539 41.0875 29.2419 41.0298 29.3287 40.9698C29.4947 40.8553 29.656 40.7337 29.8152 40.6081C29.8879 40.551 29.962 40.4961 30.0333 40.4365C30.2592 40.2479 30.4794 40.0511 30.6901 39.8408L43.5137 27.0175ZM27.9189 37.0693C26.8281 38.16 25.3775 38.761 23.835 38.761C22.2918 38.761 20.8418 38.16 19.7504 37.0693L16.5941 33.9123C18.5852 33.6208 20.5021 32.7105 22.0311 31.1819L43.5137 9.71278V21.4744L27.9189 37.0693Z" fill="black" />
					</svg>