<svg width="31" height="30" viewBox="0 0 31 30" fill="none" xmlns="http://www.w3.org/2000/svg">
<path d="M15.0421 0L16.1661 7.62636L19.4882 0.670154L18.3145 8.28903L23.5393 2.62106L20.1721 9.55548L26.8354 5.67938L21.5738 11.3132L29.0836 9.57336L22.3951 13.406L30.0841 13.957L22.5631 15.6478L29.7481 18.4408L22.0628 17.8397L28.1054 22.6264L20.9388 19.7867L25.3019 26.1418L19.2907 21.3158L21.5868 28.6747L17.2652 22.2913L17.2903 30L15.0421 22.6264L12.7938 30L12.819 22.2913L8.49726 28.6747L10.7934 21.3158L4.78218 26.1418L9.1454 19.7867L1.97873 22.6264L8.0213 17.8397L0.33601 18.4408L7.52103 15.6478L0 13.957L7.68904 13.406L1.00053 9.57336L8.5104 11.3132L3.24873 5.67938L9.91208 9.55548L6.54481 2.62106L11.7697 8.28903L10.5959 0.670154L13.918 7.62636L15.0421 0Z" fill="#DE0977"/>
</svg>
