<svg width="18" height="20" viewBox="0 0 18 20" fill="none" xmlns="http://www.w3.org/2000/svg">
<path d="M13.5435 5.19275C13.5435 7.69093 11.4989 9.7355 9.00075 9.7355C6.50262 9.7355 4.45804 7.69093 4.45804 5.19275C4.45804 2.69457 6.50258 0.65 9.00075 0.65C11.4989 0.65 13.5435 2.69458 13.5435 5.19275Z" stroke="#1260FE" stroke-width="1.3"/>
<path d="M17.2644 14.6708C17.1052 14.946 16.9241 15.2075 16.7169 15.4769L16.7168 15.4768L16.7089 15.4875C16.4203 15.8791 16.0845 16.2376 15.7295 16.5926C15.4326 16.8894 15.0932 17.1863 14.7568 17.4387C13.0794 18.6913 11.0622 19.3501 8.97815 19.3501C6.89837 19.3501 4.88507 18.694 3.20977 17.4463C2.84588 17.1507 2.51368 16.8795 2.22687 16.5927L2.2199 16.5857L2.21272 16.5789C1.85663 16.2438 1.54239 15.8879 1.24746 15.4876L1.24748 15.4876L1.24414 15.4831C1.06193 15.2402 0.873212 14.9758 0.719199 14.7172C0.836191 14.4561 0.984554 14.1849 1.14522 13.9529L1.14533 13.9529L1.15285 13.9416C2.06985 12.5559 3.53706 11.6391 5.16643 11.415L5.18601 11.4123L5.20539 11.4084C5.23087 11.4033 5.29495 11.4119 5.34548 11.4498L5.34547 11.4498L5.34948 11.4528C6.41651 12.2403 7.6863 12.6456 9.0008 12.6456C10.3153 12.6456 11.5851 12.2403 12.6521 11.4528L12.6521 11.4528L12.6561 11.4498C12.6715 11.4382 12.7403 11.4082 12.8492 11.417C14.4688 11.6438 15.9121 12.557 16.8524 13.9471L16.8524 13.9471L16.8564 13.9529C17.0165 14.1842 17.1557 14.4234 17.2644 14.6708Z" stroke="#1260FE" stroke-width="1.3"/>
</svg>