<svg width="66" height="91" viewBox="0 0 66 91" fill="none" xmlns="http://www.w3.org/2000/svg">
<path d="M63.8894 51.7514C56.2627 49.7093 50.0226 44.2637 45.8625 37.1164C41.7025 30.3094 39.6225 22.141 38.5825 13.9727C37.5424 20.4393 36.5024 26.5656 34.4224 32.6918C31.9957 41.2006 28.1823 48.0075 17.4355 51.7514C29.569 59.239 37.8891 73.874 38.5825 88.8494C39.6225 80.681 40.3158 72.5126 44.8225 65.7057C48.9826 58.8987 55.5693 54.8145 63.8894 51.7514Z" fill="url(#paint0_linear_6438_1582)"/>
<path d="M38.5824 90.2089C37.5424 90.2089 36.8491 89.5282 36.8491 88.5071C36.5024 74.2125 28.529 60.2582 16.7422 53.1109C16.3955 52.7705 16.0488 52.0898 16.0488 51.4091C16.0488 50.7284 16.3955 50.3881 17.0888 50.0477C26.7956 46.6442 30.2623 40.8583 33.0357 32.0093C34.769 26.2233 36.1557 20.097 36.8491 13.9708C36.8491 13.2901 37.8891 12.6094 38.5824 12.6094C39.6224 12.6094 40.3158 13.2901 40.3158 13.9708C41.3558 23.1602 43.7825 30.3075 47.2492 36.4338C51.4092 43.5811 57.6493 48.346 64.236 50.0477C64.9294 50.3881 65.6227 50.7284 65.6227 51.7495C65.6227 52.4302 65.2761 53.1109 64.5827 53.4512C55.9159 56.5144 50.0225 60.9389 46.2092 66.3845C42.0491 72.8511 41.0091 81.3598 40.3158 88.8475C40.3158 89.5282 39.6224 90.2089 38.5824 90.2089ZM21.2489 52.0898C29.569 58.2161 35.4624 67.4055 38.5824 77.2756C39.6224 72.8511 41.0091 68.4266 43.4358 64.6827C46.9025 59.5775 52.1026 55.153 59.3827 52.0898C53.4893 49.367 48.2892 44.6022 44.8225 38.4759C42.0491 34.0513 39.9691 29.2865 38.5824 23.8409C37.8891 26.904 37.1957 29.9672 36.1557 33.0303C33.729 41.539 30.2623 48.0056 21.2489 52.0898Z" fill="url(#paint1_linear_6438_1582)"/>
<path d="M24.4242 17.9259C20.5696 17.1292 17.3237 14.54 15.2949 11.5524C13.2662 8.56476 12.0489 4.97962 11.6432 1.19531C11.2374 3.98375 10.4259 6.77219 9.61445 9.36145C8.39721 13.1458 6.57134 16.1334 1.09375 17.9259C7.38284 21.3119 11.4403 27.6855 11.6432 34.4574C12.0489 30.8723 12.6576 27.088 14.6863 24.1003C16.9179 21.1127 20.3668 19.3202 24.4242 17.9259Z" fill="url(#paint2_linear_6438_1582)"/>
<path d="M11.6434 35.2538C11.0348 35.2538 10.629 34.8555 10.629 34.258C10.4262 27.8844 6.36868 21.71 0.485337 18.5232C0.0795896 18.324 -0.123286 17.9257 0.0795881 17.5273C0.0795881 17.129 0.485338 16.7306 0.688212 16.7306C5.55718 15.1372 7.38305 12.7472 8.60029 8.76367C9.41178 6.1744 10.2233 3.38596 10.629 0.7967C10.629 0.398351 11.0348 0 11.6434 0C12.0491 0 12.4549 0.398351 12.6578 0.7967C13.2664 4.78018 14.4836 7.96697 16.3095 10.7554C18.3382 13.743 21.5842 16.1331 24.8302 16.7306C25.2359 16.9298 25.6417 17.129 25.6417 17.7265C25.6417 18.1249 25.4388 18.5232 25.0331 18.7224C20.7727 20.1166 17.5267 22.1083 15.9037 24.4984C13.875 27.2869 13.4693 31.0712 13.0635 34.4571C12.6578 35.0547 12.252 35.2538 11.6434 35.2538ZM3.32557 18.1249C7.18017 20.7141 10.2233 24.6976 11.6434 28.8803C12.0491 27.0877 12.8606 25.096 14.0779 23.5026C15.7009 21.3116 18.1354 19.5191 21.5842 17.9257C18.9469 16.7306 16.3095 14.5397 14.4836 11.9505C13.2664 10.1579 12.252 8.16615 11.6434 5.77605C11.2376 6.9711 11.0348 8.36532 10.629 9.56036C9.41178 13.3447 7.58592 16.1331 3.32557 18.1249Z" fill="url(#paint3_linear_6438_1582)"/>
<path d="M18.6397 80.3986C16.3889 79.9334 14.4934 78.4214 13.3087 76.6768C12.1241 74.9322 11.4133 72.8387 11.1764 70.6289C10.9394 72.2572 10.4656 73.8855 9.99169 75.3974C9.2809 77.6073 8.2147 79.3518 5.01611 80.3986C8.68856 82.3758 11.0579 86.0976 11.1764 90.052C11.4133 87.9585 11.7687 85.7487 12.9533 84.0041C14.2565 82.2595 16.2704 81.2127 18.6397 80.3986Z" fill="url(#paint4_linear_6438_1582)"/>
<path d="M11.1765 90.5158C10.8211 90.5158 10.5842 90.2832 10.5842 89.9343C10.4657 86.2125 8.09637 82.607 4.66085 80.7461C4.42392 80.6298 4.30545 80.3972 4.42392 80.1646C4.42392 79.932 4.66085 79.6994 4.77932 79.6994C7.6225 78.7689 8.6887 77.3733 9.3995 75.0471C9.87336 73.5352 10.3472 71.9069 10.5842 70.3949C10.5842 70.1623 10.8211 69.9297 11.1765 69.9297C11.4134 69.9297 11.6504 70.1623 11.7688 70.3949C12.1242 72.721 12.835 74.5819 13.9012 76.2102C15.0859 77.9548 16.9813 79.3505 18.8768 79.6994C19.1137 79.8157 19.3507 79.932 19.3507 80.2809C19.3507 80.5135 19.2322 80.7461 18.9953 80.8624C16.5075 81.6766 14.612 82.8396 13.6643 84.2353C12.4796 85.8636 12.2427 88.0734 12.0058 90.0506C11.7688 90.3995 11.5319 90.5158 11.1765 90.5158ZM6.31938 80.5135C8.57023 82.0255 10.3472 84.3516 11.1765 86.794C11.4134 85.7473 11.8873 84.5842 12.5981 83.6538C13.5458 82.3744 14.9674 81.3277 16.9813 80.3972C15.4413 79.6994 13.9012 78.42 12.835 76.908C12.1242 75.8613 11.5319 74.6982 11.1765 73.3026C10.9396 74.0004 10.8211 74.8145 10.5842 75.5124C9.87336 77.7222 8.80716 79.3505 6.31938 80.5135Z" fill="url(#paint5_linear_6438_1582)"/>
<defs>
<linearGradient id="paint0_linear_6438_1582" x1="40.6625" y1="13.9727" x2="40.6625" y2="88.8494" gradientUnits="userSpaceOnUse">
<stop stop-color="#550ECA"/>
<stop offset="1" stop-color="#F929BB"/>
</linearGradient>
<linearGradient id="paint1_linear_6438_1582" x1="40.8358" y1="12.6094" x2="40.8358" y2="90.2089" gradientUnits="userSpaceOnUse">
<stop stop-color="#550ECA"/>
<stop offset="1" stop-color="#F929BB"/>
</linearGradient>
<linearGradient id="paint2_linear_6438_1582" x1="12.759" y1="1.19531" x2="12.759" y2="34.4574" gradientUnits="userSpaceOnUse">
<stop stop-color="#550ECA"/>
<stop offset="1" stop-color="#F929BB"/>
</linearGradient>
<linearGradient id="paint3_linear_6438_1582" x1="12.8208" y1="0" x2="12.8208" y2="35.2538" gradientUnits="userSpaceOnUse">
<stop stop-color="#550ECA"/>
<stop offset="1" stop-color="#F929BB"/>
</linearGradient>
<linearGradient id="paint4_linear_6438_1582" x1="11.8279" y1="70.6289" x2="11.8279" y2="90.052" gradientUnits="userSpaceOnUse">
<stop stop-color="#550ECA"/>
<stop offset="1" stop-color="#F929BB"/>
</linearGradient>
<linearGradient id="paint5_linear_6438_1582" x1="11.864" y1="69.9297" x2="11.864" y2="90.5158" gradientUnits="userSpaceOnUse">
<stop stop-color="#550ECA"/>
<stop offset="1" stop-color="#F929BB"/>
</linearGradient>
</defs>
</svg>
