<svg width="360" height="360" viewBox="0 0 360 360" fill="none" xmlns="http://www.w3.org/2000/svg">
<path d="M360 180C360 279.411 279.411 360 180 360C80.5887 360 0 279.411 0 180C0 80.5887 80.5887 0 180 0C279.411 0 360 80.5887 360 180ZM55.638 180C55.638 248.683 111.317 304.362 180 304.362C248.683 304.362 304.362 248.683 304.362 180C304.362 111.317 248.683 55.638 180 55.638C111.317 55.638 55.638 111.317 55.638 180Z" fill="#1260FE"/>
<path d="M113.914 293.896L96.8556 318.301L84.6141 309.473C82.2339 307.757 80.7787 306.19 80.3988 303.848C79.7738 301.846 80.659 299.9 82.1293 297.858C83.1095 296.497 84.1847 295.722 85.2599 294.946C86.3351 294.17 87.5053 293.98 88.7705 294.376C87.9954 293.3 87.4654 291.883 87.2754 290.712C87.0854 289.541 87.7256 287.935 88.7058 286.574C90.4212 284.192 92.3265 282.981 94.6669 282.601C97.0072 282.221 98.9525 283.107 101.673 285.068L113.914 293.896ZM98.7665 304.169L92.6458 299.755C91.2856 298.774 90.3605 298.624 89.4354 298.474C88.5102 298.324 87.7751 299.345 87.0399 300.366C86.3048 301.386 86.1547 302.312 86.0046 303.238C86.1946 304.409 87.2147 305.145 88.5749 306.126L94.3556 310.294L98.7665 304.169ZM106.118 293.961L99.6573 289.302C98.2971 288.321 97.372 288.171 96.4469 288.021C95.5218 287.87 94.2015 288.986 93.2213 290.347C92.4861 291.368 92.3361 292.294 92.5261 293.465C92.9611 294.296 93.7362 295.372 95.0963 296.353L101.217 300.767L106.118 293.961Z" fill="white"/>
<path d="M91.3766 277.126L69.8025 297.758L55.006 282.434L58.3816 279.181L68.5676 290.146L73.9987 284.757L65.5129 275.018L68.8885 271.766L77.9594 281.409L83.3905 276.02L73.2045 265.055L76.5801 261.803L91.3766 277.126Z" fill="white"/>
<path d="M67.9195 247.285C70.6797 251.343 71.3447 255.442 70.7444 259.145C69.559 262.943 67.3536 266.006 63.5429 268.428C59.4872 271.19 55.3915 271.855 51.691 271.254C47.9905 270.654 44.5901 268.201 42.0749 263.803C41.2049 262.141 40.4298 261.065 39.8998 259.649C39.3698 258.233 38.8397 256.817 38.6498 255.646L43.2906 252.788C43.7655 255.716 45.0706 258.208 46.3757 260.7C48.3608 263.683 50.4011 265.154 52.2513 265.454C54.4416 266 57.2721 264.939 60.0076 263.293C65.4786 260 66.2289 255.372 62.9387 249.897C62.1636 248.821 61.3885 247.745 60.2734 246.424C59.4984 245.348 58.1382 244.367 57.1181 243.631L61.7589 240.774C62.779 241.51 63.5541 242.586 64.9142 243.567C65.6893 244.643 66.8044 245.964 67.9195 247.285Z" fill="white"/>
<path d="M57.1939 225.591C60.469 234.674 57.5683 240.854 48.2467 244.472C43.1709 246.498 38.9802 246.578 35.7698 245.297C32.5594 244.015 30.5742 241.033 28.6442 236.539C27.0541 232.29 26.7292 228.437 28.0096 225.224C29.2899 222.012 32.5155 219.685 37.5914 217.658C47.498 213.946 53.9189 216.508 57.1939 225.591ZM52.1181 227.617C51.058 224.785 49.6029 223.219 47.7526 222.918C45.8074 222.032 43.222 222.753 40.0515 223.569C36.6359 224.724 34.4855 226.276 33.6003 228.222C32.7151 230.169 32.755 232.266 33.475 234.853C34.78 237.345 36.2352 238.911 37.8404 239.552C39.7856 240.438 42.3711 239.717 45.7866 238.561C49.2022 237.406 51.3526 235.854 52.3328 234.493C53.218 232.547 53.4231 230.11 52.1181 227.617Z" fill="white"/>
<path d="M51.0237 209.767L21.5792 213.349L20.8744 207.154L37.4373 196.35L18.7048 190.079L18 183.884L47.4446 180.302L48.1494 186.498L28.9914 188.709L43.9284 193.794L44.4983 197.307L31.161 205.783L50.3189 203.572L51.0237 209.767Z" fill="white"/>
<path d="M47.7048 176.354L18.1405 173.645L20.0818 152.297L24.9525 152.708L23.4766 167.67L31.1227 168.532L32.5435 155.08L37.4142 155.491L35.9934 168.942L43.6395 169.803L45.1154 154.841L49.9861 155.251L47.7048 176.354Z" fill="white"/>
<path d="M52.7671 142.781L24.9884 132.571L29.7697 119.475C30.655 117.528 31.5402 115.582 33.2005 114.711C34.8608 113.841 35.936 113.065 37.6912 112.78C39.4465 112.495 41.2968 112.795 42.902 113.436C44.8472 114.321 46.2074 115.302 47.3225 116.623C48.4376 117.945 49.3077 119.606 49.2526 121.117C49.5375 122.874 49.2374 124.725 48.3522 126.672L45.8865 133.683L54.4976 136.791L52.7671 142.781ZM41.7509 132.251L43.8215 126.507C44.4617 124.9 44.5168 123.389 43.7417 122.313C42.9666 121.237 42.1916 120.161 40.5864 119.521C38.9811 118.88 37.4709 118.825 36.6408 119.26C35.2255 119.791 34.4904 120.811 33.8502 122.418L31.5346 128.503L41.7509 132.251Z" fill="white"/>
<path d="M60.0141 122.674L40.5824 97.2868L44.1632 91.5971L75.4676 97.6287L72.1318 102.978L64.3907 101.531L58.6995 110.869L63.2549 116.739L60.0141 122.674ZM55.4491 107.491L60.1602 99.5146L47.4534 97.0719L55.4491 107.491Z" fill="white"/>
<path d="M77.523 95.492L56.1708 74.9236L66.2027 64.5803C68.5032 62.1033 70.9936 60.7973 73.4289 61.0026C75.8643 61.2079 78.1496 62.339 80.2848 64.3958C81.74 65.9622 82.8551 67.2834 83.14 69.0399C83.425 70.7964 83.1249 72.6479 82.4847 74.2543C83.0698 74.1592 83.6549 74.0641 83.9949 74.3094C84.58 74.2143 85.2601 74.7048 85.9402 75.1952L94.5513 78.3032L90.1954 82.9169L81.9243 80.0541C81.2443 79.5637 80.6592 79.6587 80.0741 79.7538C79.489 79.8488 79.2439 80.1891 78.4138 80.6244L74.7931 84.2173L81.8788 90.8783L77.523 95.492ZM70.8627 80.3489L75.2185 75.7352C76.5388 74.6193 76.9339 73.3532 77.084 72.4275C77.234 71.5017 76.704 70.0855 75.5889 68.7643C74.4738 67.4431 73.2087 67.0477 72.0385 67.2378C70.8683 67.428 70.0381 67.8633 68.7179 68.9792L64.117 73.9331L70.8627 80.3489Z" fill="white"/>
<path d="M102.568 72.1934L88.4266 51.6554L80.9002 57.0847L78.14 53.0261L98.0787 38.9701L100.839 43.0287L93.5576 48.1177L107.699 68.6557L102.568 72.1934Z" fill="white"/>
<path d="M138.359 54.0598C129.282 57.3371 123.012 53.8489 119.982 44.4258C118.202 39.0061 118.217 35.3981 119.497 32.1854C120.778 28.9727 124.003 26.6459 128.589 25.3C133.175 23.9541 137.025 23.629 139.991 25.2505C142.956 26.872 145.281 30.0998 147.306 35.1792C150.336 44.6023 147.53 51.3679 138.359 54.0598ZM136.674 49.2256C139.259 48.5051 141.07 46.7087 141.71 45.1023C142.595 43.1557 142.215 40.8137 141.06 37.3958C139.905 33.9779 138.6 31.4857 136.655 30.5998C134.71 29.714 132.859 29.4137 130.029 30.4744C127.443 31.1949 125.878 32.6511 124.993 34.5977C124.108 36.5443 124.243 39.2266 125.738 42.8897C126.553 46.0625 128.103 48.2144 129.803 49.4405C131.503 50.6666 134.089 49.9461 136.674 49.2256Z" fill="white"/>
<path d="M154.947 48.9612L151.368 19.4961L172.281 17L173.041 21.684L158.318 23.4748L159.213 30.8411L172.18 29.3354L172.94 34.0194L159.973 35.5251L161.383 47.9156L154.947 48.9612Z" fill="white"/>
<path d="M199.968 48.8582C195.928 48.0123 192.717 46.7311 190.827 44.334C188.937 41.9369 187.877 39.1044 188.477 35.4013L191.234 17.2261L197.369 18.0321L194.858 35.867C194.313 38.0588 194.938 40.0605 195.713 41.1365C196.488 42.2124 198.433 43.0983 200.624 43.6439C202.814 44.1894 204.814 43.564 205.89 42.7884C206.965 42.0128 208.19 40.3114 208.395 37.8743L210.906 20.0394L217.042 20.8453L214.286 39.0206C213.686 42.7237 212.31 45.3508 209.575 46.9971C207.52 49.1338 204.254 49.3638 199.968 48.8582Z" fill="white"/>
<path d="M216.621 51.5613L227.164 24.0085L239.91 28.5479C241.856 29.4337 243.801 30.3196 244.671 31.981C245.786 33.3022 246.316 34.7184 246.601 36.4749C246.886 38.2314 246.586 40.083 245.946 41.6893C245.06 43.6359 244.08 44.997 243.1 46.3581C241.78 47.474 240.119 48.3446 238.609 48.2895C237.099 48.2344 235.004 48.2743 233.058 47.3885L226.052 44.9211L222.362 53.6333L216.621 51.5613ZM227.388 40.1972L233.129 42.2692C234.734 42.9098 236.244 42.9649 237.319 42.1893C238.735 41.6589 239.47 40.6381 240.11 39.0318C240.75 37.4254 240.805 35.9142 240.37 35.0834C239.84 33.6672 238.82 32.9316 237.215 32.2909L231.134 29.9737L227.388 40.1972Z" fill="white"/>
<path d="M248.425 66.2251C246.725 64.999 245.364 64.0181 244.004 63.0372C242.644 62.0563 241.869 60.9804 241.094 59.9045L243.94 55.2356C244.715 56.3116 245.83 57.6328 247.19 58.6137C248.55 59.5946 249.325 60.6705 250.93 61.3111C252.631 62.5372 254.236 63.1778 255.161 63.328C256.086 63.4782 256.916 63.0428 257.651 62.022C258.141 61.3415 258.292 60.4157 258.197 59.8302C258.102 59.2447 257.667 58.414 256.892 57.338C256.116 56.2621 255.341 55.1861 253.886 53.6197C251.656 50.9774 250.446 49.0707 250.161 47.3142C249.876 45.5577 250.176 43.7062 251.401 42.0048C253.117 39.6229 255.022 38.4119 257.362 38.0317C259.703 37.6515 262.573 38.6875 265.879 40.5542C267.239 41.5351 268.599 42.516 269.959 43.4969C271.319 44.4778 272.094 45.5538 272.774 46.0442L269.929 50.713C268.379 48.5611 266.583 46.7495 263.958 45.3732C262.258 44.1471 260.993 43.7517 259.728 43.3563C258.462 42.9609 257.632 43.3963 256.897 44.4171C256.407 45.0976 256.502 45.6831 256.597 46.2686C256.692 46.8541 257.127 47.6849 257.562 48.5156C257.997 49.3463 259.357 50.3272 260.472 51.6484C262.267 53.46 263.138 55.1214 264.008 56.7829C264.538 58.1991 265.068 59.6153 264.673 60.8814C264.277 62.1474 263.882 63.4135 263.147 64.4343C261.677 66.476 259.771 67.6869 257.431 68.0671C254.941 69.3731 252.07 68.3371 248.425 66.2251Z" fill="white"/>
<path d="M271.737 84.0713C267.902 80.7884 266.407 77.1252 266.082 73.2719C265.757 69.4186 267.283 65.8657 270.658 62.6131C273.939 58.775 277.26 57.0337 281.11 56.7086C284.961 56.3835 288.511 57.91 292.347 61.1929C293.707 62.1738 294.822 63.495 295.597 64.5709C296.372 65.6469 297.147 66.7228 297.677 68.139L293.811 72.0722C292.506 69.58 290.956 67.4281 288.821 65.3713C286.346 63.0692 284.06 61.9382 281.72 62.3184C279.38 62.6986 277.229 64.2498 274.929 66.7268C270.573 71.3405 270.748 76.1195 275.358 80.4784C276.378 81.2141 277.738 82.195 278.759 82.9307C279.779 83.6663 281.384 84.3069 282.649 84.7023L278.783 88.6355C277.518 88.2401 276.498 87.5044 275.138 86.5235C274.213 86.3734 272.853 85.3925 271.737 84.0713Z" fill="white"/>
<path d="M279.313 90.0517L310.093 81.7461L313.969 87.1258L296.365 113.723L292.489 108.343L296.56 101.973L290.02 93.1198L282.509 94.941L279.313 90.0517ZM294.851 91.4336L300.276 98.9652L307.288 88.5117L294.851 91.4336Z" fill="white"/>
<path d="M297.18 116.895L324.369 104.966L326.829 110.877L304.131 120.874L309.921 134.356L305.43 136.287L297.18 116.895Z" fill="white"/>
<path d="M306.3 137.948L335.175 130.854L340.35 151.647L335.424 152.747L331.879 138.3L324.368 140.121L327.383 153.152L322.797 154.498L319.782 141.467L312.271 143.288L315.816 157.736L311.23 159.082L306.3 137.948Z" fill="white"/>
<path d="M311.619 170.736C311.579 168.64 311.635 167.128 311.935 165.277C311.99 163.766 312.63 162.159 313.025 160.893L318.386 160.623C317.991 161.889 317.351 163.496 317.296 165.007C317.24 166.518 316.94 168.37 317.13 169.541C317.17 171.637 317.455 173.394 317.89 174.225C318.325 175.055 319.345 175.791 320.516 175.601C321.441 175.751 322.271 175.316 322.516 174.975C322.761 174.635 323.496 173.614 323.646 172.689C324.041 171.423 324.436 170.157 324.737 168.305C325.432 165.187 326.562 162.9 327.542 161.539C328.522 160.178 330.523 159.553 332.863 159.173C335.544 159.038 337.489 159.923 339.284 161.735C341.079 163.547 341.554 166.474 341.879 170.327C342.164 172.084 341.864 173.936 341.809 175.447C341.754 176.958 341.358 178.224 341.208 179.15L335.848 179.42C336.638 176.888 337.088 174.11 336.953 171.428C336.913 169.331 336.383 167.915 336.193 166.744C335.758 165.913 334.738 165.178 333.568 165.368C332.983 165.463 332.398 165.558 331.568 165.993C330.737 166.429 330.832 167.014 330.437 168.28C330.287 169.206 329.892 170.472 329.592 172.324C329.047 174.515 328.502 176.707 327.521 178.068C326.541 179.429 325.806 180.45 324.391 180.981C322.976 181.511 322.145 181.946 320.635 181.891C317.955 182.026 316.01 181.14 314.214 179.329C312.419 177.517 311.699 174.93 311.619 170.736Z" fill="white"/>
<path d="M308.582 209.389C309.578 204.42 311.443 201.112 315.009 199.03C317.989 197.044 322.085 196.379 326.465 197.47C331.431 198.466 334.736 200.332 337.062 203.56C339.387 206.788 339.712 210.641 338.716 215.611C338.416 217.462 337.776 219.068 337.381 220.335C336.986 221.601 336.006 222.962 335.611 224.228L330.305 222.986C332.02 220.605 332.81 218.072 333.506 214.955C334.201 211.837 334.066 209.155 332.271 207.343C331.061 205.437 328.775 204.306 325.075 203.705C318.844 202.313 315.033 204.735 313.643 210.971C313.248 212.237 313.193 213.748 313.138 215.259C313.083 216.77 313.272 217.941 313.217 219.453L307.912 218.211C307.722 217.04 307.777 215.529 307.832 214.018C307.887 212.507 307.942 210.995 308.582 209.389Z" fill="white"/>
<path d="M305.951 220.934L333.335 232.41L330.924 237.909L308.111 228.695L302.5 242.226L298.024 240.55L305.951 220.934Z" fill="white"/>
<path d="M289.447 252.459C291.898 249.057 294.538 246.825 297.124 246.104C300.294 245.289 303.07 245.739 306.13 247.946L321.922 258.301L318.246 263.405L303.379 253.201C301.679 251.975 299.829 251.674 298.074 251.959C296.658 252.49 295.093 253.946 293.868 255.647C292.643 257.349 292.342 259.2 292.287 260.712C292.572 262.468 293.687 263.789 295.388 265.015L310.594 275.465L306.919 280.569L291.712 270.12C288.651 267.912 286.761 265.515 286.531 262.248C286.057 259.32 286.997 255.862 289.447 252.459Z" fill="white"/>
<path d="M279.985 266.316L300.602 287.905L289.645 298.098C287.59 300.235 285.344 301.2 283.249 301.24C281.494 301.526 279.549 300.64 277.753 298.828C276.638 297.507 275.863 296.431 275.673 295.26C275.483 294.089 275.293 292.918 275.688 291.652C274.273 292.182 273.103 292.372 271.933 292.563C270.668 292.167 269.403 291.772 267.947 290.205C265.812 288.149 265.187 286.147 265.392 283.71C265.352 281.613 266.823 279.571 268.878 277.435L279.985 266.316ZM287.516 283.12L282.085 288.51C280.764 289.625 280.614 290.551 280.464 291.477C280.314 292.403 280.749 293.234 281.769 293.969C282.544 295.045 283.81 295.441 284.395 295.345C285.32 295.496 286.395 294.72 287.715 293.604L292.656 288.895L287.516 283.12ZM278.54 274.062L273.109 279.452C271.788 280.567 271.393 281.833 271.243 282.759C271.093 283.685 271.868 284.761 272.983 286.082C273.758 287.158 275.024 287.553 275.609 287.458C276.534 287.609 277.609 286.833 279.174 285.377L284.605 279.988L278.54 274.062Z" fill="white"/>
<path d="M251.335 289.599C252.995 288.728 254.656 287.858 256.071 287.327C257.486 286.797 258.901 286.267 260.071 286.077L263.512 290.626C262.342 290.816 260.586 291.101 258.926 291.971C257.511 292.502 256.095 293.032 254.775 294.148C252.87 295.359 251.795 296.135 251.06 297.155C250.324 298.176 250.514 299.347 251.289 300.423C251.629 300.668 252.31 301.159 252.99 301.649C253.67 302.14 254.5 301.704 255.67 301.514C256.84 301.324 258.255 300.794 260.256 300.168C263.426 299.353 265.767 298.973 267.617 299.273C269.467 299.573 270.582 300.895 272.132 303.046C273.683 305.198 273.817 307.881 272.932 309.827C271.802 312.114 270.087 314.496 266.766 316.237C265.106 317.108 263.785 318.224 262.37 318.754C260.955 319.285 259.54 319.815 258.955 319.91L256.099 315.266C258.685 314.546 261.27 313.825 263.421 312.274C265.081 311.403 266.401 310.287 267.136 309.266C267.872 308.246 268.022 307.32 267.247 306.244C265.981 305.849 265.301 305.358 264.961 305.113C264.621 304.868 263.451 305.058 262.526 304.908C261.356 305.098 260.186 305.288 258.525 306.158C255.94 306.879 254.185 307.164 252.674 307.109C251.164 307.054 249.899 306.658 248.879 305.923C247.859 305.187 246.839 304.451 246.309 303.035C244.758 300.883 244.719 298.787 245.509 296.254C246.299 293.722 248.109 291.926 251.335 289.599Z" fill="white"/>
<path d="M199.931 324.391L203.916 326.748L200.485 331.512L205.546 333.094L204.116 337.232L199.64 335.556L200.4 340.24L195.719 341L195.544 336.221L191.489 338.983L189.409 335.415L194.389 332.803L189.874 329.03L193.005 326.117L197.03 330.571L199.931 324.391Z" fill="white"/>
<path d="M178.827 325.716L182.568 328.414L178.457 332.687L183.613 334.854L181.502 338.502L177.177 335.9L177.352 340.679L172.821 340.513L173.231 335.639L168.74 337.571L166.905 333.662L171.981 331.636L168.296 327.427L172.106 325.005L175.302 329.895L178.827 325.716Z" fill="white"/>
</svg>
