<svg width="130" height="130" viewBox="0 0 130 130" fill="none" xmlns="http://www.w3.org/2000/svg">
<mask id="path-1-outside-1_6532_200" maskUnits="userSpaceOnUse" x="0" y="0" width="130" height="130" fill="black">
<rect fill="white" width="130" height="130"/>
<path d="M63.6289 115.755L62.5815 128L57.8303 127.598C57.7106 127.587 57.5772 127.57 57.4301 127.547C57.2768 127.528 57.1244 127.498 56.973 127.456C56.3375 127.306 55.8126 127.036 55.3983 126.646C54.9778 126.263 54.6762 125.797 54.4934 125.251C54.3049 124.704 54.2381 124.11 54.2928 123.469C54.3472 122.834 54.5136 122.263 54.7923 121.756C55.071 121.248 55.4504 120.838 55.9305 120.525C56.4044 120.216 56.9646 120.041 57.6109 119.999C57.7666 119.989 57.9219 119.985 58.0767 119.987C58.2258 119.988 58.3601 119.994 58.4798 120.004L61.9749 120.3L62.3727 115.649L63.6289 115.755ZM61.873 121.49L58.4121 121.197C58.3096 121.189 58.1895 121.184 58.0518 121.184C57.9141 121.184 57.7785 121.192 57.645 121.209C57.2157 121.264 56.8562 121.408 56.5667 121.641C56.2714 121.873 56.0432 122.159 55.8821 122.499C55.7153 122.839 55.6157 123.199 55.5832 123.579C55.5507 123.959 55.5878 124.33 55.6945 124.693C55.795 125.061 55.971 125.384 56.2226 125.663C56.4686 125.941 56.7985 126.143 57.2123 126.269C57.3409 126.308 57.4733 126.337 57.6096 126.354C57.7453 126.377 57.8645 126.393 57.967 126.401L61.4279 126.695L61.873 121.49Z"/>
<path d="M53.6972 114.635L50.5852 126.528L49.3652 126.212L52.1724 115.483L46.4955 114.013L46.8002 112.848L53.6972 114.635Z"/>
<path d="M46.112 112.487L37.1488 121.941L35.6249 121.256L36.8356 108.314L38.0313 108.852L36.9149 121.068L36.4616 120.864L44.9164 111.949L46.112 112.487ZM43.1521 114.424L42.6645 115.497L36.8502 112.882L37.3377 111.808L43.1521 114.424Z"/>
<path d="M34.5972 107.152L31.7012 111.415L31.1135 119.642L29.9056 118.829L30.3686 112.25L24.4201 115.14L23.2121 114.328L30.6496 110.708L33.5455 106.444L34.5972 107.152Z"/>
<path d="M24.0286 96.3736L14.0993 103.681L13.3496 102.673L23.2789 95.365L24.0286 96.3736Z"/>
<path d="M21.0485 92.3681L10.0209 97.9008L9.44944 96.773L15.4241 86.1963L6.38759 90.73L5.81615 89.6022L16.8437 84.0695L17.4152 85.1973L11.4329 95.7779L20.477 91.2403L21.0485 92.3681Z"/>
<path d="M15.9909 80.9841L5.33855 84.2303L6.60175 88.3349L5.4455 88.6872L2.54991 79.2786L3.70617 78.9262L4.96938 83.0308L15.6217 79.7846L15.9909 80.9841Z"/>
<path d="M14.4971 76.0299L2.24722 77.5909L1.64154 72.8843C1.62629 72.7658 1.6149 72.6324 1.60736 72.4843C1.59342 72.3312 1.59083 72.1766 1.59958 72.0206C1.61392 71.3707 1.76858 70.8032 2.06355 70.3182C2.35213 69.8283 2.7456 69.4368 3.24398 69.1439C3.74163 68.8453 4.31088 68.6552 4.95173 68.5735C5.87615 68.4557 6.70986 68.5961 7.45287 68.9947C8.19587 69.3934 8.71338 70.0329 9.00539 70.9135L9.16302 71.3322L9.68373 75.3785L14.337 74.7856L14.4971 76.0299ZM13.5472 68.6484L8.87156 71.6877L8.25859 70.5526L13.3631 67.2178L13.5472 68.6484ZM8.49277 75.5303L8.05158 72.1019C8.03851 72.0003 8.01759 71.8825 7.98882 71.7485C7.96004 71.6145 7.92313 71.4844 7.87807 71.3583C7.73359 70.9522 7.51668 70.6328 7.22734 70.4001C6.93727 70.1618 6.60808 70.0001 6.23976 69.9151C5.87071 69.8244 5.4962 69.8033 5.11623 69.8517C4.73625 69.9002 4.37917 70.0145 4.04498 70.1947C3.7044 70.3701 3.42393 70.6094 3.20358 70.9128C2.98251 71.2106 2.85347 71.5741 2.81648 72.0032C2.80482 72.1367 2.80488 72.2714 2.81663 72.4076C2.82272 72.5445 2.8323 72.6637 2.84537 72.7653L3.28656 76.1937L8.49277 75.5303Z"/>
<path d="M13.8602 62.9263C13.808 64.1485 13.4926 65.1687 12.914 65.9871C12.3297 66.8052 11.5456 67.4098 10.5618 67.801C9.57795 68.1922 8.45481 68.3611 7.19237 68.3078C5.92993 68.2544 4.82523 67.9913 3.87827 67.5185C2.93132 67.0457 2.20445 66.3772 1.69769 65.5129C1.18521 64.6485 0.955059 63.6052 1.00723 62.383C1.05965 61.1552 1.37788 60.1351 1.96195 59.3227C2.54054 58.5043 3.32176 57.8995 4.3056 57.5083C5.28968 57.1115 6.41294 56.9397 7.67538 56.9931C8.93783 57.0464 10.0424 57.3124 10.9891 57.7909C11.9361 58.2637 12.6658 58.9323 13.1783 59.7968C13.6853 60.6553 13.9126 61.6985 13.8602 62.9263ZM12.652 62.8753C12.693 61.9146 12.5073 61.1038 12.0948 60.4429C11.6824 59.782 11.0917 59.2758 10.3227 58.9244C9.54819 58.5671 8.64684 58.3667 7.6186 58.3232C6.59037 58.2797 5.67803 58.4035 4.8816 58.6944C4.08541 58.9796 3.45368 59.4341 2.9864 60.0579C2.51913 60.6816 2.26213 61.4737 2.21541 62.4341C2.1744 63.3947 2.36023 64.2027 2.77291 64.8579C3.18559 65.5132 3.77917 66.0195 4.55365 66.3768C5.32266 66.7282 6.22116 66.9285 7.24915 66.9776C8.27714 67.0268 9.18923 66.9087 9.98542 66.6235C10.7761 66.3323 11.408 65.875 11.881 65.2515C12.3483 64.6278 12.6053 63.8357 12.652 62.8753Z"/>
<path d="M17.0521 46.7464L4.00667 46.092L4.49592 44.8805L16.0301 45.4548L7.31314 37.904L7.80239 36.6924L17.6757 45.2023L17.0521 46.7464Z"/>
<path d="M20.8713 38.9861L10.355 32.5427L11.016 31.4745L21.5323 37.9178L20.8713 38.9861Z"/>
<path d="M23.3898 34.8625L14.119 26.7433L16.5951 23.9437C16.682 23.8454 16.8315 23.6807 17.0435 23.4496C17.2594 23.2142 17.4786 23.0007 17.7013 22.8092C18.4195 22.1952 19.1989 21.8394 20.0393 21.7417C20.8797 21.6441 21.7321 21.7653 22.5966 22.1055C23.461 22.4458 24.2881 22.9617 25.0778 23.6533C25.8676 24.345 26.4869 25.0958 26.9358 25.9058C27.3847 26.7158 27.6139 27.5418 27.6233 28.3837C27.6327 29.2256 27.377 30.0401 26.8562 30.8269C26.6931 31.063 26.5081 31.3066 26.3014 31.5575C26.0904 31.8047 25.9452 31.9732 25.8659 32.0629L23.3898 34.8625ZM23.3433 33.0937L24.9581 31.2679C25.113 31.0928 25.2749 30.9011 25.4439 30.6928C25.6123 30.4765 25.7457 30.2826 25.8441 30.1111C26.2257 29.4903 26.3902 28.8651 26.3377 28.2355C26.289 27.6017 26.0751 26.9823 25.696 26.3775C25.3127 25.7689 24.812 25.194 24.1939 24.6527C23.5716 24.1077 22.9327 23.6846 22.2774 23.3835C21.6221 23.0825 20.9776 22.95 20.3439 22.9862C19.7102 23.0224 19.11 23.2661 18.5434 23.7172C18.3849 23.8361 18.2088 23.9965 18.0152 24.1982C17.821 24.3919 17.6502 24.5721 17.5029 24.7387L15.888 26.5645L23.3433 33.0937Z"/>
<path d="M29.8459 27.74L22.0874 18.1784L28.0929 13.3532L28.8526 14.2894L23.828 18.3266L26.5111 21.6332L30.735 18.2395L31.4947 19.1757L27.2708 22.5695L30.0671 26.0156L35.0917 21.9785L35.8513 22.9147L29.8459 27.74Z"/>
<path d="M40.3213 20.654C39.2481 21.2505 38.2097 21.5182 37.206 21.457C36.1996 21.3908 35.2711 21.0435 34.4205 20.4149C33.5699 19.7864 32.8365 18.9233 32.2202 17.8256C31.604 16.7279 31.2499 15.6539 31.158 14.6036C31.0661 13.5533 31.2571 12.5868 31.731 11.7043C32.202 10.8168 32.9741 10.0748 34.0473 9.47823C35.1255 8.87888 36.1653 8.61369 37.1667 8.68263C38.1704 8.74384 39.0975 9.08871 39.9481 9.71725C40.8037 10.343 41.5396 11.2048 42.1558 12.3025C42.7721 13.4002 43.1236 14.4756 43.2105 15.5286C43.3024 16.5789 43.1129 17.5478 42.6418 18.4353C42.1729 19.3151 41.3994 20.0546 40.3213 20.654ZM39.7315 19.6035C40.5751 19.1345 41.1715 18.5521 41.5209 17.8561C41.8702 17.1601 41.9936 16.3941 41.8911 15.5583C41.7908 14.7146 41.4897 13.8458 40.9878 12.9518C40.4859 12.0577 39.9017 11.3495 39.2351 10.8272C38.5736 10.3021 37.8535 10.0051 37.0747 9.93617C36.296 9.86726 35.4834 10.0648 34.6371 10.5287C33.7935 10.9977 33.1995 11.5788 32.8552 12.272C32.5109 12.9652 32.3888 13.7336 32.4891 14.5772C32.5916 15.4131 32.8913 16.2795 33.3882 17.1763C33.8852 18.0731 34.4644 18.7841 35.1259 19.3092C35.7897 19.8265 36.5123 20.1221 37.2939 20.196C38.0726 20.2649 38.8852 20.0674 39.7315 19.6035Z"/>
<path d="M53.0409 10.4443L52.8583 9.38444L57.9301 8.51907L58.1127 9.57891L53.0409 10.4443Z"/>
<path d="M69.9086 14.1125L71.9957 2L76.6956 2.80191C76.8139 2.82211 76.9454 2.85031 77.09 2.88652C77.2411 2.91809 77.3904 2.96088 77.5377 3.01488C78.1581 3.21886 78.6581 3.53219 79.0377 3.95486C79.424 4.37289 79.6849 4.86189 79.8204 5.42186C79.9616 5.98279 79.9776 6.58009 79.8684 7.21376C79.7602 7.84181 79.5456 8.39688 79.2247 8.87897C78.9038 9.36106 78.4908 9.73796 77.9857 10.0097C77.4872 10.2767 76.9142 10.4041 76.2666 10.3917C76.1106 10.3882 75.9555 10.3791 75.8014 10.3643C75.653 10.3505 75.5196 10.3335 75.4012 10.3134L71.944 9.72346L71.1511 14.3245L69.9086 14.1125ZM72.1469 8.54585L75.5704 9.12998C75.6718 9.14729 75.7911 9.16187 75.9283 9.17373C76.0655 9.1856 76.2013 9.18856 76.3357 9.18264C76.7682 9.16407 77.1386 9.05121 77.4469 8.84406C77.7609 8.63787 78.0127 8.37199 78.2022 8.04643C78.3973 7.72184 78.5273 7.37168 78.592 6.99597C78.6568 6.62026 78.6515 6.24703 78.5761 5.87628C78.5074 5.50088 78.3595 5.16393 78.1325 4.86543C77.9111 4.5679 77.5997 4.33869 77.1981 4.17782C77.0733 4.12766 76.9438 4.08825 76.8095 4.05956C76.6762 4.02527 76.5588 3.99947 76.4574 3.98216L73.0339 3.39803L72.1469 8.54585Z"/>
<path d="M79.7098 16.0668L83.8241 4.47946L85.0128 4.8974L81.3014 15.3501L86.8325 17.2948L86.4296 18.4294L79.7098 16.0668Z"/>
<path d="M86.0508 18.2191L95.7875 9.55474L97.2476 10.3664L94.9382 23.1595L93.7927 22.5227L95.9462 10.4445L96.3805 10.6859L87.1964 18.8559L86.0508 18.2191ZM89.1653 16.5387L89.7425 15.5105L95.313 18.6071L94.7358 19.6353L89.1653 16.5387Z"/>
<path d="M97.0246 25.0432L100.273 21.0393L101.56 12.8922L102.695 13.8036L101.672 20.3206L107.846 17.9426L108.98 18.854L101.261 21.8328L98.0122 25.8367L97.0246 25.0432Z"/>
<path d="M108.694 37.9193L119.21 31.4759L119.871 32.5442L109.355 38.9875L108.694 37.9193Z"/>
<path d="M111.32 42.1618L122.779 37.5797L123.253 38.7517L116.398 48.7861L125.788 45.0313L126.262 46.2033L114.802 50.7854L114.329 49.6135L121.191 39.5758L111.793 43.3338L111.32 42.1618Z"/>
<path d="M115.389 53.9315L126.28 51.596L125.371 47.3996L126.553 47.1461L128.637 56.7652L127.455 57.0187L126.546 52.8223L115.655 55.1579L115.389 53.9315Z"/>
<path d="M116.455 58.9938L128.794 58.4723L128.996 63.213C129.001 63.3324 129.001 63.4662 128.996 63.6145C128.997 63.7682 128.986 63.9224 128.964 64.0771C128.895 64.7235 128.692 65.2759 128.357 65.7343C128.028 66.1981 127.602 66.5549 127.081 66.8047C126.559 67.0602 125.976 67.2016 125.331 67.2289C124.399 67.2683 123.581 67.058 122.874 66.5981C122.168 66.1383 121.707 65.4573 121.491 64.5553L121.37 64.1248L121.196 60.0491L116.508 60.2472L116.455 58.9938ZM116.772 66.429L121.69 63.7952L122.204 64.9779L116.834 67.87L116.772 66.429ZM122.395 59.9984L122.543 63.4516C122.547 63.554 122.558 63.6731 122.575 63.809C122.592 63.945 122.618 64.0777 122.652 64.2073C122.761 64.624 122.95 64.9606 123.219 65.2169C123.488 65.4788 123.802 65.6677 124.161 65.7835C124.521 65.9049 124.893 65.9576 125.276 65.9414C125.658 65.9252 126.024 65.8414 126.372 65.69C126.726 65.5441 127.026 65.3293 127.272 65.0455C127.517 64.7675 127.677 64.4162 127.75 63.9917C127.773 63.8598 127.785 63.7255 127.785 63.5888C127.79 63.4519 127.791 63.3323 127.787 63.23L127.639 59.7767L122.395 59.9984Z"/>
<path d="M115.974 72.1041C116.13 70.8908 116.531 69.9008 117.178 69.1343C117.83 68.3684 118.662 67.8321 119.676 67.5253C120.69 67.2186 121.823 67.1451 123.076 67.3048C124.33 67.4645 125.408 67.8198 126.311 68.3709C127.215 68.9219 127.882 69.6494 128.313 70.5532C128.75 71.4578 128.89 72.5168 128.734 73.7301C128.577 74.9491 128.173 75.9387 127.522 76.6989C126.876 77.4655 126.046 78.0021 125.032 78.3089C124.018 78.6213 122.884 78.6977 121.631 78.5379C120.378 78.3782 119.3 78.02 118.397 77.4634C117.494 76.9123 116.824 76.1845 116.387 75.2799C115.955 74.3817 115.817 73.3231 115.974 72.1041ZM117.174 72.257C117.051 73.2107 117.167 74.0342 117.521 74.7276C117.876 75.4209 118.421 75.9751 119.158 76.3902C119.899 76.8116 120.78 77.0873 121.801 77.2174C122.822 77.3475 123.741 77.3012 124.56 77.0785C125.377 76.8615 126.045 76.4619 126.564 75.8799C127.083 75.2978 127.406 74.5303 127.535 73.5773C127.658 72.6235 127.541 71.8028 127.186 71.1151C126.831 70.4274 126.282 69.8729 125.541 69.4515C124.805 69.0364 123.927 68.761 122.906 68.6253C121.886 68.4896 120.968 68.5302 120.15 68.7473C119.337 68.9707 118.669 69.373 118.144 69.9544C117.625 70.5364 117.302 71.3039 117.174 72.257Z"/>
<path d="M111.413 87.9562L124.356 89.7091L123.765 90.8751L112.321 89.3294L120.363 97.5887L119.772 98.7546L110.66 89.4422L111.413 87.9562Z"/>
<path d="M106.947 95.3664L116.876 102.674L116.126 103.683L106.197 96.375L106.947 95.3664Z"/>
<path d="M104.086 99.2628L112.631 108.135L109.926 110.716C109.831 110.806 109.668 110.958 109.437 111.17C109.202 111.386 108.965 111.581 108.727 111.753C107.959 112.304 107.152 112.593 106.306 112.619C105.46 112.645 104.621 112.453 103.789 112.041C102.957 111.629 102.177 111.045 101.449 110.289C100.721 109.533 100.168 108.733 99.7893 107.888C99.4111 107.043 99.2531 106.201 99.3155 105.361C99.3779 104.521 99.7021 103.731 100.288 102.991C100.471 102.77 100.676 102.543 100.903 102.31C101.134 102.082 101.293 101.926 101.38 101.843L104.086 99.2628ZM103.982 101.029L102.217 102.712C102.048 102.874 101.87 103.051 101.684 103.244C101.498 103.445 101.348 103.627 101.235 103.79C100.802 104.376 100.585 104.985 100.584 105.617C100.578 106.253 100.739 106.888 101.065 107.523C101.395 108.161 101.845 108.776 102.415 109.368C102.988 109.964 103.589 110.439 104.216 110.794C104.843 111.15 105.474 111.336 106.109 111.353C106.743 111.371 107.362 111.179 107.965 110.777C108.133 110.672 108.322 110.527 108.532 110.342C108.742 110.166 108.928 110 109.089 109.847L110.853 108.164L103.982 101.029Z"/>
<path d="M97.0469 105.815L103.963 115.997L97.5675 120.298L96.8904 119.301L102.241 115.702L99.8492 112.181L95.3514 115.206L94.6742 114.209L99.1721 111.184L96.6795 107.514L91.329 111.113L90.6519 110.116L97.0469 105.815Z"/>
<path d="M86.0054 111.991C87.1256 111.487 88.1831 111.308 89.1779 111.454C90.175 111.605 91.0706 112.029 91.8646 112.727C92.6586 113.426 93.3158 114.347 93.8362 115.493C94.3567 116.639 94.618 117.739 94.62 118.793C94.6221 119.847 94.3494 120.794 93.8021 121.634C93.2571 122.478 92.4245 123.152 91.3043 123.656C90.179 124.162 89.1203 124.339 88.1284 124.186C87.1336 124.04 86.2392 123.618 85.4452 122.92C84.646 122.224 83.9862 121.304 83.4657 120.158C82.9453 119.012 82.6866 117.911 82.6898 116.854C82.6877 115.8 82.9592 114.851 83.5042 114.006C84.0463 113.169 84.8801 112.498 86.0054 111.991ZM86.5035 113.088C85.623 113.484 84.9791 114.014 84.5717 114.678C84.1643 115.342 83.9761 116.095 84.007 116.936C84.035 117.785 84.261 118.676 84.6849 119.61C85.1088 120.543 85.6305 121.298 86.2502 121.874C86.8646 122.453 87.5568 122.81 88.3269 122.944C89.0969 123.079 89.9234 122.951 90.8063 122.56C91.6867 122.164 92.3281 121.635 92.7303 120.973C93.1324 120.311 93.3195 119.556 93.2915 118.707C93.2606 117.866 93.0358 116.977 92.6171 116.042C92.1984 115.106 91.6818 114.349 91.0674 113.77C90.4502 113.198 89.7553 112.843 88.9829 112.703C88.2128 112.569 87.3864 112.697 86.5035 113.088Z"/>
<path d="M75.1684 121.091L75.2601 122.162L70.1328 122.596L70.0412 121.525L75.1684 121.091Z"/>
</mask>
<path d="M63.6289 115.755L62.5815 128L57.8303 127.598C57.7106 127.587 57.5772 127.57 57.4301 127.547C57.2768 127.528 57.1244 127.498 56.973 127.456C56.3375 127.306 55.8126 127.036 55.3983 126.646C54.9778 126.263 54.6762 125.797 54.4934 125.251C54.3049 124.704 54.2381 124.11 54.2928 123.469C54.3472 122.834 54.5136 122.263 54.7923 121.756C55.071 121.248 55.4504 120.838 55.9305 120.525C56.4044 120.216 56.9646 120.041 57.6109 119.999C57.7666 119.989 57.9219 119.985 58.0767 119.987C58.2258 119.988 58.3601 119.994 58.4798 120.004L61.9749 120.3L62.3727 115.649L63.6289 115.755ZM61.873 121.49L58.4121 121.197C58.3096 121.189 58.1895 121.184 58.0518 121.184C57.9141 121.184 57.7785 121.192 57.645 121.209C57.2157 121.264 56.8562 121.408 56.5667 121.641C56.2714 121.873 56.0432 122.159 55.8821 122.499C55.7153 122.839 55.6157 123.199 55.5832 123.579C55.5507 123.959 55.5878 124.33 55.6945 124.693C55.795 125.061 55.971 125.384 56.2226 125.663C56.4686 125.941 56.7985 126.143 57.2123 126.269C57.3409 126.308 57.4733 126.337 57.6096 126.354C57.7453 126.377 57.8645 126.393 57.967 126.401L61.4279 126.695L61.873 121.49Z" fill="white"/>
<path d="M53.6972 114.635L50.5852 126.528L49.3652 126.212L52.1724 115.483L46.4955 114.013L46.8002 112.848L53.6972 114.635Z" fill="white"/>
<path d="M46.112 112.487L37.1488 121.941L35.6249 121.256L36.8356 108.314L38.0313 108.852L36.9149 121.068L36.4616 120.864L44.9164 111.949L46.112 112.487ZM43.1521 114.424L42.6645 115.497L36.8502 112.882L37.3377 111.808L43.1521 114.424Z" fill="white"/>
<path d="M34.5972 107.152L31.7012 111.415L31.1135 119.642L29.9056 118.829L30.3686 112.25L24.4201 115.14L23.2121 114.328L30.6496 110.708L33.5455 106.444L34.5972 107.152Z" fill="white"/>
<path d="M24.0286 96.3736L14.0993 103.681L13.3496 102.673L23.2789 95.365L24.0286 96.3736Z" fill="white"/>
<path d="M21.0485 92.3681L10.0209 97.9008L9.44944 96.773L15.4241 86.1963L6.38759 90.73L5.81615 89.6022L16.8437 84.0695L17.4152 85.1973L11.4329 95.7779L20.477 91.2403L21.0485 92.3681Z" fill="white"/>
<path d="M15.9909 80.9841L5.33855 84.2303L6.60175 88.3349L5.4455 88.6872L2.54991 79.2786L3.70617 78.9262L4.96938 83.0308L15.6217 79.7846L15.9909 80.9841Z" fill="white"/>
<path d="M14.4971 76.0299L2.24722 77.5909L1.64154 72.8843C1.62629 72.7658 1.6149 72.6324 1.60736 72.4843C1.59342 72.3312 1.59083 72.1766 1.59958 72.0206C1.61392 71.3707 1.76858 70.8032 2.06355 70.3182C2.35213 69.8283 2.7456 69.4368 3.24398 69.1439C3.74163 68.8453 4.31088 68.6552 4.95173 68.5735C5.87615 68.4557 6.70986 68.5961 7.45287 68.9947C8.19587 69.3934 8.71338 70.0329 9.00539 70.9135L9.16302 71.3322L9.68373 75.3785L14.337 74.7856L14.4971 76.0299ZM13.5472 68.6484L8.87156 71.6877L8.25859 70.5526L13.3631 67.2178L13.5472 68.6484ZM8.49277 75.5303L8.05158 72.1019C8.03851 72.0003 8.01759 71.8825 7.98882 71.7485C7.96004 71.6145 7.92313 71.4844 7.87807 71.3583C7.73359 70.9522 7.51668 70.6328 7.22734 70.4001C6.93727 70.1618 6.60808 70.0001 6.23976 69.9151C5.87071 69.8244 5.4962 69.8033 5.11623 69.8517C4.73625 69.9002 4.37917 70.0145 4.04498 70.1947C3.7044 70.3701 3.42393 70.6094 3.20358 70.9128C2.98251 71.2106 2.85347 71.5741 2.81648 72.0032C2.80482 72.1367 2.80488 72.2714 2.81663 72.4076C2.82272 72.5445 2.8323 72.6637 2.84537 72.7653L3.28656 76.1937L8.49277 75.5303Z" fill="white"/>
<path d="M13.8602 62.9263C13.808 64.1485 13.4926 65.1687 12.914 65.9871C12.3297 66.8052 11.5456 67.4098 10.5618 67.801C9.57795 68.1922 8.45481 68.3611 7.19237 68.3078C5.92993 68.2544 4.82523 67.9913 3.87827 67.5185C2.93132 67.0457 2.20445 66.3772 1.69769 65.5129C1.18521 64.6485 0.955059 63.6052 1.00723 62.383C1.05965 61.1552 1.37788 60.1351 1.96195 59.3227C2.54054 58.5043 3.32176 57.8995 4.3056 57.5083C5.28968 57.1115 6.41294 56.9397 7.67538 56.9931C8.93783 57.0464 10.0424 57.3124 10.9891 57.7909C11.9361 58.2637 12.6658 58.9323 13.1783 59.7968C13.6853 60.6553 13.9126 61.6985 13.8602 62.9263ZM12.652 62.8753C12.693 61.9146 12.5073 61.1038 12.0948 60.4429C11.6824 59.782 11.0917 59.2758 10.3227 58.9244C9.54819 58.5671 8.64684 58.3667 7.6186 58.3232C6.59037 58.2797 5.67803 58.4035 4.8816 58.6944C4.08541 58.9796 3.45368 59.4341 2.9864 60.0579C2.51913 60.6816 2.26213 61.4737 2.21541 62.4341C2.1744 63.3947 2.36023 64.2027 2.77291 64.8579C3.18559 65.5132 3.77917 66.0195 4.55365 66.3768C5.32266 66.7282 6.22116 66.9285 7.24915 66.9776C8.27714 67.0268 9.18923 66.9087 9.98542 66.6235C10.7761 66.3323 11.408 65.875 11.881 65.2515C12.3483 64.6278 12.6053 63.8357 12.652 62.8753Z" fill="white"/>
<path d="M17.0521 46.7464L4.00667 46.092L4.49592 44.8805L16.0301 45.4548L7.31314 37.904L7.80239 36.6924L17.6757 45.2023L17.0521 46.7464Z" fill="white"/>
<path d="M20.8713 38.9861L10.355 32.5427L11.016 31.4745L21.5323 37.9178L20.8713 38.9861Z" fill="white"/>
<path d="M23.3898 34.8625L14.119 26.7433L16.5951 23.9437C16.682 23.8454 16.8315 23.6807 17.0435 23.4496C17.2594 23.2142 17.4786 23.0007 17.7013 22.8092C18.4195 22.1952 19.1989 21.8394 20.0393 21.7417C20.8797 21.6441 21.7321 21.7653 22.5966 22.1055C23.461 22.4458 24.2881 22.9617 25.0778 23.6533C25.8676 24.345 26.4869 25.0958 26.9358 25.9058C27.3847 26.7158 27.6139 27.5418 27.6233 28.3837C27.6327 29.2256 27.377 30.0401 26.8562 30.8269C26.6931 31.063 26.5081 31.3066 26.3014 31.5575C26.0904 31.8047 25.9452 31.9732 25.8659 32.0629L23.3898 34.8625ZM23.3433 33.0937L24.9581 31.2679C25.113 31.0928 25.2749 30.9011 25.4439 30.6928C25.6123 30.4765 25.7457 30.2826 25.8441 30.1111C26.2257 29.4903 26.3902 28.8651 26.3377 28.2355C26.289 27.6017 26.0751 26.9823 25.696 26.3775C25.3127 25.7689 24.812 25.194 24.1939 24.6527C23.5716 24.1077 22.9327 23.6846 22.2774 23.3835C21.6221 23.0825 20.9776 22.95 20.3439 22.9862C19.7102 23.0224 19.11 23.2661 18.5434 23.7172C18.3849 23.8361 18.2088 23.9965 18.0152 24.1982C17.821 24.3919 17.6502 24.5721 17.5029 24.7387L15.888 26.5645L23.3433 33.0937Z" fill="white"/>
<path d="M29.8459 27.74L22.0874 18.1784L28.0929 13.3532L28.8526 14.2894L23.828 18.3266L26.5111 21.6332L30.735 18.2395L31.4947 19.1757L27.2708 22.5695L30.0671 26.0156L35.0917 21.9785L35.8513 22.9147L29.8459 27.74Z" fill="white"/>
<path d="M40.3213 20.654C39.2481 21.2505 38.2097 21.5182 37.206 21.457C36.1996 21.3908 35.2711 21.0435 34.4205 20.4149C33.5699 19.7864 32.8365 18.9233 32.2202 17.8256C31.604 16.7279 31.2499 15.6539 31.158 14.6036C31.0661 13.5533 31.2571 12.5868 31.731 11.7043C32.202 10.8168 32.9741 10.0748 34.0473 9.47823C35.1255 8.87888 36.1653 8.61369 37.1667 8.68263C38.1704 8.74384 39.0975 9.08871 39.9481 9.71725C40.8037 10.343 41.5396 11.2048 42.1558 12.3025C42.7721 13.4002 43.1236 14.4756 43.2105 15.5286C43.3024 16.5789 43.1129 17.5478 42.6418 18.4353C42.1729 19.3151 41.3994 20.0546 40.3213 20.654ZM39.7315 19.6035C40.5751 19.1345 41.1715 18.5521 41.5209 17.8561C41.8702 17.1601 41.9936 16.3941 41.8911 15.5583C41.7908 14.7146 41.4897 13.8458 40.9878 12.9518C40.4859 12.0577 39.9017 11.3495 39.2351 10.8272C38.5736 10.3021 37.8535 10.0051 37.0747 9.93617C36.296 9.86726 35.4834 10.0648 34.6371 10.5287C33.7935 10.9977 33.1995 11.5788 32.8552 12.272C32.5109 12.9652 32.3888 13.7336 32.4891 14.5772C32.5916 15.4131 32.8913 16.2795 33.3882 17.1763C33.8852 18.0731 34.4644 18.7841 35.1259 19.3092C35.7897 19.8265 36.5123 20.1221 37.2939 20.196C38.0726 20.2649 38.8852 20.0674 39.7315 19.6035Z" fill="white"/>
<path d="M53.0409 10.4443L52.8583 9.38444L57.9301 8.51907L58.1127 9.57891L53.0409 10.4443Z" fill="white"/>
<path d="M69.9086 14.1125L71.9957 2L76.6956 2.80191C76.8139 2.82211 76.9454 2.85031 77.09 2.88652C77.2411 2.91809 77.3904 2.96088 77.5377 3.01488C78.1581 3.21886 78.6581 3.53219 79.0377 3.95486C79.424 4.37289 79.6849 4.86189 79.8204 5.42186C79.9616 5.98279 79.9776 6.58009 79.8684 7.21376C79.7602 7.84181 79.5456 8.39688 79.2247 8.87897C78.9038 9.36106 78.4908 9.73796 77.9857 10.0097C77.4872 10.2767 76.9142 10.4041 76.2666 10.3917C76.1106 10.3882 75.9555 10.3791 75.8014 10.3643C75.653 10.3505 75.5196 10.3335 75.4012 10.3134L71.944 9.72346L71.1511 14.3245L69.9086 14.1125ZM72.1469 8.54585L75.5704 9.12998C75.6718 9.14729 75.7911 9.16187 75.9283 9.17373C76.0655 9.1856 76.2013 9.18856 76.3357 9.18264C76.7682 9.16407 77.1386 9.05121 77.4469 8.84406C77.7609 8.63787 78.0127 8.37199 78.2022 8.04643C78.3973 7.72184 78.5273 7.37168 78.592 6.99597C78.6568 6.62026 78.6515 6.24703 78.5761 5.87628C78.5074 5.50088 78.3595 5.16393 78.1325 4.86543C77.9111 4.5679 77.5997 4.33869 77.1981 4.17782C77.0733 4.12766 76.9438 4.08825 76.8095 4.05956C76.6762 4.02527 76.5588 3.99947 76.4574 3.98216L73.0339 3.39803L72.1469 8.54585Z" fill="white"/>
<path d="M79.7098 16.0668L83.8241 4.47946L85.0128 4.8974L81.3014 15.3501L86.8325 17.2948L86.4296 18.4294L79.7098 16.0668Z" fill="white"/>
<path d="M86.0508 18.2191L95.7875 9.55474L97.2476 10.3664L94.9382 23.1595L93.7927 22.5227L95.9462 10.4445L96.3805 10.6859L87.1964 18.8559L86.0508 18.2191ZM89.1653 16.5387L89.7425 15.5105L95.313 18.6071L94.7358 19.6353L89.1653 16.5387Z" fill="white"/>
<path d="M97.0246 25.0432L100.273 21.0393L101.56 12.8922L102.695 13.8036L101.672 20.3206L107.846 17.9426L108.98 18.854L101.261 21.8328L98.0122 25.8367L97.0246 25.0432Z" fill="white"/>
<path d="M108.694 37.9193L119.21 31.4759L119.871 32.5442L109.355 38.9875L108.694 37.9193Z" fill="white"/>
<path d="M111.32 42.1618L122.779 37.5797L123.253 38.7517L116.398 48.7861L125.788 45.0313L126.262 46.2033L114.802 50.7854L114.329 49.6135L121.191 39.5758L111.793 43.3338L111.32 42.1618Z" fill="white"/>
<path d="M115.389 53.9315L126.28 51.596L125.371 47.3996L126.553 47.1461L128.637 56.7652L127.455 57.0187L126.546 52.8223L115.655 55.1579L115.389 53.9315Z" fill="white"/>
<path d="M116.455 58.9938L128.794 58.4723L128.996 63.213C129.001 63.3324 129.001 63.4662 128.996 63.6145C128.997 63.7682 128.986 63.9224 128.964 64.0771C128.895 64.7235 128.692 65.2759 128.357 65.7343C128.028 66.1981 127.602 66.5549 127.081 66.8047C126.559 67.0602 125.976 67.2016 125.331 67.2289C124.399 67.2683 123.581 67.058 122.874 66.5981C122.168 66.1383 121.707 65.4573 121.491 64.5553L121.37 64.1248L121.196 60.0491L116.508 60.2472L116.455 58.9938ZM116.772 66.429L121.69 63.7952L122.204 64.9779L116.834 67.87L116.772 66.429ZM122.395 59.9984L122.543 63.4516C122.547 63.554 122.558 63.6731 122.575 63.809C122.592 63.945 122.618 64.0777 122.652 64.2073C122.761 64.624 122.95 64.9606 123.219 65.2169C123.488 65.4788 123.802 65.6677 124.161 65.7835C124.521 65.9049 124.893 65.9576 125.276 65.9414C125.658 65.9252 126.024 65.8414 126.372 65.69C126.726 65.5441 127.026 65.3293 127.272 65.0455C127.517 64.7675 127.677 64.4162 127.75 63.9917C127.773 63.8598 127.785 63.7255 127.785 63.5888C127.79 63.4519 127.791 63.3323 127.787 63.23L127.639 59.7767L122.395 59.9984Z" fill="white"/>
<path d="M115.974 72.1041C116.13 70.8908 116.531 69.9008 117.178 69.1343C117.83 68.3684 118.662 67.8321 119.676 67.5253C120.69 67.2186 121.823 67.1451 123.076 67.3048C124.33 67.4645 125.408 67.8198 126.311 68.3709C127.215 68.9219 127.882 69.6494 128.313 70.5532C128.75 71.4578 128.89 72.5168 128.734 73.7301C128.577 74.9491 128.173 75.9387 127.522 76.6989C126.876 77.4655 126.046 78.0021 125.032 78.3089C124.018 78.6213 122.884 78.6977 121.631 78.5379C120.378 78.3782 119.3 78.02 118.397 77.4634C117.494 76.9123 116.824 76.1845 116.387 75.2799C115.955 74.3817 115.817 73.3231 115.974 72.1041ZM117.174 72.257C117.051 73.2107 117.167 74.0342 117.521 74.7276C117.876 75.4209 118.421 75.9751 119.158 76.3902C119.899 76.8116 120.78 77.0873 121.801 77.2174C122.822 77.3475 123.741 77.3012 124.56 77.0785C125.377 76.8615 126.045 76.4619 126.564 75.8799C127.083 75.2978 127.406 74.5303 127.535 73.5773C127.658 72.6235 127.541 71.8028 127.186 71.1151C126.831 70.4274 126.282 69.8729 125.541 69.4515C124.805 69.0364 123.927 68.761 122.906 68.6253C121.886 68.4896 120.968 68.5302 120.15 68.7473C119.337 68.9707 118.669 69.373 118.144 69.9544C117.625 70.5364 117.302 71.3039 117.174 72.257Z" fill="white"/>
<path d="M111.413 87.9562L124.356 89.7091L123.765 90.8751L112.321 89.3294L120.363 97.5887L119.772 98.7546L110.66 89.4422L111.413 87.9562Z" fill="white"/>
<path d="M106.947 95.3664L116.876 102.674L116.126 103.683L106.197 96.375L106.947 95.3664Z" fill="white"/>
<path d="M104.086 99.2628L112.631 108.135L109.926 110.716C109.831 110.806 109.668 110.958 109.437 111.17C109.202 111.386 108.965 111.581 108.727 111.753C107.959 112.304 107.152 112.593 106.306 112.619C105.46 112.645 104.621 112.453 103.789 112.041C102.957 111.629 102.177 111.045 101.449 110.289C100.721 109.533 100.168 108.733 99.7893 107.888C99.4111 107.043 99.2531 106.201 99.3155 105.361C99.3779 104.521 99.7021 103.731 100.288 102.991C100.471 102.77 100.676 102.543 100.903 102.31C101.134 102.082 101.293 101.926 101.38 101.843L104.086 99.2628ZM103.982 101.029L102.217 102.712C102.048 102.874 101.87 103.051 101.684 103.244C101.498 103.445 101.348 103.627 101.235 103.79C100.802 104.376 100.585 104.985 100.584 105.617C100.578 106.253 100.739 106.888 101.065 107.523C101.395 108.161 101.845 108.776 102.415 109.368C102.988 109.964 103.589 110.439 104.216 110.794C104.843 111.15 105.474 111.336 106.109 111.353C106.743 111.371 107.362 111.179 107.965 110.777C108.133 110.672 108.322 110.527 108.532 110.342C108.742 110.166 108.928 110 109.089 109.847L110.853 108.164L103.982 101.029Z" fill="white"/>
<path d="M97.0469 105.815L103.963 115.997L97.5675 120.298L96.8904 119.301L102.241 115.702L99.8492 112.181L95.3514 115.206L94.6742 114.209L99.1721 111.184L96.6795 107.514L91.329 111.113L90.6519 110.116L97.0469 105.815Z" fill="white"/>
<path d="M86.0054 111.991C87.1256 111.487 88.1831 111.308 89.1779 111.454C90.175 111.605 91.0706 112.029 91.8646 112.727C92.6586 113.426 93.3158 114.347 93.8362 115.493C94.3567 116.639 94.618 117.739 94.62 118.793C94.6221 119.847 94.3494 120.794 93.8021 121.634C93.2571 122.478 92.4245 123.152 91.3043 123.656C90.179 124.162 89.1203 124.339 88.1284 124.186C87.1336 124.04 86.2392 123.618 85.4452 122.92C84.646 122.224 83.9862 121.304 83.4657 120.158C82.9453 119.012 82.6866 117.911 82.6898 116.854C82.6877 115.8 82.9592 114.851 83.5042 114.006C84.0463 113.169 84.8801 112.498 86.0054 111.991ZM86.5035 113.088C85.623 113.484 84.9791 114.014 84.5717 114.678C84.1643 115.342 83.9761 116.095 84.007 116.936C84.035 117.785 84.261 118.676 84.6849 119.61C85.1088 120.543 85.6305 121.298 86.2502 121.874C86.8646 122.453 87.5568 122.81 88.3269 122.944C89.0969 123.079 89.9234 122.951 90.8063 122.56C91.6867 122.164 92.3281 121.635 92.7303 120.973C93.1324 120.311 93.3195 119.556 93.2915 118.707C93.2606 117.866 93.0358 116.977 92.6171 116.042C92.1984 115.106 91.6818 114.349 91.0674 113.77C90.4502 113.198 89.7553 112.843 88.9829 112.703C88.2128 112.569 87.3864 112.697 86.5035 113.088Z" fill="white"/>
<path d="M75.1684 121.091L75.2601 122.162L70.1328 122.596L70.0412 121.525L75.1684 121.091Z" fill="white"/>
<path d="M63.6289 115.755L62.5815 128L57.8303 127.598C57.7106 127.587 57.5772 127.57 57.4301 127.547C57.2768 127.528 57.1244 127.498 56.973 127.456C56.3375 127.306 55.8126 127.036 55.3983 126.646C54.9778 126.263 54.6762 125.797 54.4934 125.251C54.3049 124.704 54.2381 124.11 54.2928 123.469C54.3472 122.834 54.5136 122.263 54.7923 121.756C55.071 121.248 55.4504 120.838 55.9305 120.525C56.4044 120.216 56.9646 120.041 57.6109 119.999C57.7666 119.989 57.9219 119.985 58.0767 119.987C58.2258 119.988 58.3601 119.994 58.4798 120.004L61.9749 120.3L62.3727 115.649L63.6289 115.755ZM61.873 121.49L58.4121 121.197C58.3096 121.189 58.1895 121.184 58.0518 121.184C57.9141 121.184 57.7785 121.192 57.645 121.209C57.2157 121.264 56.8562 121.408 56.5667 121.641C56.2714 121.873 56.0432 122.159 55.8821 122.499C55.7153 122.839 55.6157 123.199 55.5832 123.579C55.5507 123.959 55.5878 124.33 55.6945 124.693C55.795 125.061 55.971 125.384 56.2226 125.663C56.4686 125.941 56.7985 126.143 57.2123 126.269C57.3409 126.308 57.4733 126.337 57.6096 126.354C57.7453 126.377 57.8645 126.393 57.967 126.401L61.4279 126.695L61.873 121.49Z" stroke="white" stroke-opacity="0.15" stroke-width="2" mask="url(#path-1-outside-1_6532_200)"/>
<path d="M53.6972 114.635L50.5852 126.528L49.3652 126.212L52.1724 115.483L46.4955 114.013L46.8002 112.848L53.6972 114.635Z" stroke="white" stroke-opacity="0.15" stroke-width="2" mask="url(#path-1-outside-1_6532_200)"/>
<path d="M46.112 112.487L37.1488 121.941L35.6249 121.256L36.8356 108.314L38.0313 108.852L36.9149 121.068L36.4616 120.864L44.9164 111.949L46.112 112.487ZM43.1521 114.424L42.6645 115.497L36.8502 112.882L37.3377 111.808L43.1521 114.424Z" stroke="white" stroke-opacity="0.15" stroke-width="2" mask="url(#path-1-outside-1_6532_200)"/>
<path d="M34.5972 107.152L31.7012 111.415L31.1135 119.642L29.9056 118.829L30.3686 112.25L24.4201 115.14L23.2121 114.328L30.6496 110.708L33.5455 106.444L34.5972 107.152Z" stroke="white" stroke-opacity="0.15" stroke-width="2" mask="url(#path-1-outside-1_6532_200)"/>
<path d="M24.0286 96.3736L14.0993 103.681L13.3496 102.673L23.2789 95.365L24.0286 96.3736Z" stroke="white" stroke-opacity="0.15" stroke-width="2" mask="url(#path-1-outside-1_6532_200)"/>
<path d="M21.0485 92.3681L10.0209 97.9008L9.44944 96.773L15.4241 86.1963L6.38759 90.73L5.81615 89.6022L16.8437 84.0695L17.4152 85.1973L11.4329 95.7779L20.477 91.2403L21.0485 92.3681Z" stroke="white" stroke-opacity="0.15" stroke-width="2" mask="url(#path-1-outside-1_6532_200)"/>
<path d="M15.9909 80.9841L5.33855 84.2303L6.60175 88.3349L5.4455 88.6872L2.54991 79.2786L3.70617 78.9262L4.96938 83.0308L15.6217 79.7846L15.9909 80.9841Z" stroke="white" stroke-opacity="0.15" stroke-width="2" mask="url(#path-1-outside-1_6532_200)"/>
<path d="M14.4971 76.0299L2.24722 77.5909L1.64154 72.8843C1.62629 72.7658 1.6149 72.6324 1.60736 72.4843C1.59342 72.3312 1.59083 72.1766 1.59958 72.0206C1.61392 71.3707 1.76858 70.8032 2.06355 70.3182C2.35213 69.8283 2.7456 69.4368 3.24398 69.1439C3.74163 68.8453 4.31088 68.6552 4.95173 68.5735C5.87615 68.4557 6.70986 68.5961 7.45287 68.9947C8.19587 69.3934 8.71338 70.0329 9.00539 70.9135L9.16302 71.3322L9.68373 75.3785L14.337 74.7856L14.4971 76.0299ZM13.5472 68.6484L8.87156 71.6877L8.25859 70.5526L13.3631 67.2178L13.5472 68.6484ZM8.49277 75.5303L8.05158 72.1019C8.03851 72.0003 8.01759 71.8825 7.98882 71.7485C7.96004 71.6145 7.92313 71.4844 7.87807 71.3583C7.73359 70.9522 7.51668 70.6328 7.22734 70.4001C6.93727 70.1618 6.60808 70.0001 6.23976 69.9151C5.87071 69.8244 5.4962 69.8033 5.11623 69.8517C4.73625 69.9002 4.37917 70.0145 4.04498 70.1947C3.7044 70.3701 3.42393 70.6094 3.20358 70.9128C2.98251 71.2106 2.85347 71.5741 2.81648 72.0032C2.80482 72.1367 2.80488 72.2714 2.81663 72.4076C2.82272 72.5445 2.8323 72.6637 2.84537 72.7653L3.28656 76.1937L8.49277 75.5303Z" stroke="white" stroke-opacity="0.15" stroke-width="2" mask="url(#path-1-outside-1_6532_200)"/>
<path d="M13.8602 62.9263C13.808 64.1485 13.4926 65.1687 12.914 65.9871C12.3297 66.8052 11.5456 67.4098 10.5618 67.801C9.57795 68.1922 8.45481 68.3611 7.19237 68.3078C5.92993 68.2544 4.82523 67.9913 3.87827 67.5185C2.93132 67.0457 2.20445 66.3772 1.69769 65.5129C1.18521 64.6485 0.955059 63.6052 1.00723 62.383C1.05965 61.1552 1.37788 60.1351 1.96195 59.3227C2.54054 58.5043 3.32176 57.8995 4.3056 57.5083C5.28968 57.1115 6.41294 56.9397 7.67538 56.9931C8.93783 57.0464 10.0424 57.3124 10.9891 57.7909C11.9361 58.2637 12.6658 58.9323 13.1783 59.7968C13.6853 60.6553 13.9126 61.6985 13.8602 62.9263ZM12.652 62.8753C12.693 61.9146 12.5073 61.1038 12.0948 60.4429C11.6824 59.782 11.0917 59.2758 10.3227 58.9244C9.54819 58.5671 8.64684 58.3667 7.6186 58.3232C6.59037 58.2797 5.67803 58.4035 4.8816 58.6944C4.08541 58.9796 3.45368 59.4341 2.9864 60.0579C2.51913 60.6816 2.26213 61.4737 2.21541 62.4341C2.1744 63.3947 2.36023 64.2027 2.77291 64.8579C3.18559 65.5132 3.77917 66.0195 4.55365 66.3768C5.32266 66.7282 6.22116 66.9285 7.24915 66.9776C8.27714 67.0268 9.18923 66.9087 9.98542 66.6235C10.7761 66.3323 11.408 65.875 11.881 65.2515C12.3483 64.6278 12.6053 63.8357 12.652 62.8753Z" stroke="white" stroke-opacity="0.15" stroke-width="2" mask="url(#path-1-outside-1_6532_200)"/>
<path d="M17.0521 46.7464L4.00667 46.092L4.49592 44.8805L16.0301 45.4548L7.31314 37.904L7.80239 36.6924L17.6757 45.2023L17.0521 46.7464Z" stroke="white" stroke-opacity="0.15" stroke-width="2" mask="url(#path-1-outside-1_6532_200)"/>
<path d="M20.8713 38.9861L10.355 32.5427L11.016 31.4745L21.5323 37.9178L20.8713 38.9861Z" stroke="white" stroke-opacity="0.15" stroke-width="2" mask="url(#path-1-outside-1_6532_200)"/>
<path d="M23.3898 34.8625L14.119 26.7433L16.5951 23.9437C16.682 23.8454 16.8315 23.6807 17.0435 23.4496C17.2594 23.2142 17.4786 23.0007 17.7013 22.8092C18.4195 22.1952 19.1989 21.8394 20.0393 21.7417C20.8797 21.6441 21.7321 21.7653 22.5966 22.1055C23.461 22.4458 24.2881 22.9617 25.0778 23.6533C25.8676 24.345 26.4869 25.0958 26.9358 25.9058C27.3847 26.7158 27.6139 27.5418 27.6233 28.3837C27.6327 29.2256 27.377 30.0401 26.8562 30.8269C26.6931 31.063 26.5081 31.3066 26.3014 31.5575C26.0904 31.8047 25.9452 31.9732 25.8659 32.0629L23.3898 34.8625ZM23.3433 33.0937L24.9581 31.2679C25.113 31.0928 25.2749 30.9011 25.4439 30.6928C25.6123 30.4765 25.7457 30.2826 25.8441 30.1111C26.2257 29.4903 26.3902 28.8651 26.3377 28.2355C26.289 27.6017 26.0751 26.9823 25.696 26.3775C25.3127 25.7689 24.812 25.194 24.1939 24.6527C23.5716 24.1077 22.9327 23.6846 22.2774 23.3835C21.6221 23.0825 20.9776 22.95 20.3439 22.9862C19.7102 23.0224 19.11 23.2661 18.5434 23.7172C18.3849 23.8361 18.2088 23.9965 18.0152 24.1982C17.821 24.3919 17.6502 24.5721 17.5029 24.7387L15.888 26.5645L23.3433 33.0937Z" stroke="white" stroke-opacity="0.15" stroke-width="2" mask="url(#path-1-outside-1_6532_200)"/>
<path d="M29.8459 27.74L22.0874 18.1784L28.0929 13.3532L28.8526 14.2894L23.828 18.3266L26.5111 21.6332L30.735 18.2395L31.4947 19.1757L27.2708 22.5695L30.0671 26.0156L35.0917 21.9785L35.8513 22.9147L29.8459 27.74Z" stroke="white" stroke-opacity="0.15" stroke-width="2" mask="url(#path-1-outside-1_6532_200)"/>
<path d="M40.3213 20.654C39.2481 21.2505 38.2097 21.5182 37.206 21.457C36.1996 21.3908 35.2711 21.0435 34.4205 20.4149C33.5699 19.7864 32.8365 18.9233 32.2202 17.8256C31.604 16.7279 31.2499 15.6539 31.158 14.6036C31.0661 13.5533 31.2571 12.5868 31.731 11.7043C32.202 10.8168 32.9741 10.0748 34.0473 9.47823C35.1255 8.87888 36.1653 8.61369 37.1667 8.68263C38.1704 8.74384 39.0975 9.08871 39.9481 9.71725C40.8037 10.343 41.5396 11.2048 42.1558 12.3025C42.7721 13.4002 43.1236 14.4756 43.2105 15.5286C43.3024 16.5789 43.1129 17.5478 42.6418 18.4353C42.1729 19.3151 41.3994 20.0546 40.3213 20.654ZM39.7315 19.6035C40.5751 19.1345 41.1715 18.5521 41.5209 17.8561C41.8702 17.1601 41.9936 16.3941 41.8911 15.5583C41.7908 14.7146 41.4897 13.8458 40.9878 12.9518C40.4859 12.0577 39.9017 11.3495 39.2351 10.8272C38.5736 10.3021 37.8535 10.0051 37.0747 9.93617C36.296 9.86726 35.4834 10.0648 34.6371 10.5287C33.7935 10.9977 33.1995 11.5788 32.8552 12.272C32.5109 12.9652 32.3888 13.7336 32.4891 14.5772C32.5916 15.4131 32.8913 16.2795 33.3882 17.1763C33.8852 18.0731 34.4644 18.7841 35.1259 19.3092C35.7897 19.8265 36.5123 20.1221 37.2939 20.196C38.0726 20.2649 38.8852 20.0674 39.7315 19.6035Z" stroke="white" stroke-opacity="0.15" stroke-width="2" mask="url(#path-1-outside-1_6532_200)"/>
<path d="M53.0409 10.4443L52.8583 9.38444L57.9301 8.51907L58.1127 9.57891L53.0409 10.4443Z" stroke="white" stroke-opacity="0.15" stroke-width="2" mask="url(#path-1-outside-1_6532_200)"/>
<path d="M69.9086 14.1125L71.9957 2L76.6956 2.80191C76.8139 2.82211 76.9454 2.85031 77.09 2.88652C77.2411 2.91809 77.3904 2.96088 77.5377 3.01488C78.1581 3.21886 78.6581 3.53219 79.0377 3.95486C79.424 4.37289 79.6849 4.86189 79.8204 5.42186C79.9616 5.98279 79.9776 6.58009 79.8684 7.21376C79.7602 7.84181 79.5456 8.39688 79.2247 8.87897C78.9038 9.36106 78.4908 9.73796 77.9857 10.0097C77.4872 10.2767 76.9142 10.4041 76.2666 10.3917C76.1106 10.3882 75.9555 10.3791 75.8014 10.3643C75.653 10.3505 75.5196 10.3335 75.4012 10.3134L71.944 9.72346L71.1511 14.3245L69.9086 14.1125ZM72.1469 8.54585L75.5704 9.12998C75.6718 9.14729 75.7911 9.16187 75.9283 9.17373C76.0655 9.1856 76.2013 9.18856 76.3357 9.18264C76.7682 9.16407 77.1386 9.05121 77.4469 8.84406C77.7609 8.63787 78.0127 8.37199 78.2022 8.04643C78.3973 7.72184 78.5273 7.37168 78.592 6.99597C78.6568 6.62026 78.6515 6.24703 78.5761 5.87628C78.5074 5.50088 78.3595 5.16393 78.1325 4.86543C77.9111 4.5679 77.5997 4.33869 77.1981 4.17782C77.0733 4.12766 76.9438 4.08825 76.8095 4.05956C76.6762 4.02527 76.5588 3.99947 76.4574 3.98216L73.0339 3.39803L72.1469 8.54585Z" stroke="white" stroke-opacity="0.15" stroke-width="2" mask="url(#path-1-outside-1_6532_200)"/>
<path d="M79.7098 16.0668L83.8241 4.47946L85.0128 4.8974L81.3014 15.3501L86.8325 17.2948L86.4296 18.4294L79.7098 16.0668Z" stroke="white" stroke-opacity="0.15" stroke-width="2" mask="url(#path-1-outside-1_6532_200)"/>
<path d="M86.0508 18.2191L95.7875 9.55474L97.2476 10.3664L94.9382 23.1595L93.7927 22.5227L95.9462 10.4445L96.3805 10.6859L87.1964 18.8559L86.0508 18.2191ZM89.1653 16.5387L89.7425 15.5105L95.313 18.6071L94.7358 19.6353L89.1653 16.5387Z" stroke="white" stroke-opacity="0.15" stroke-width="2" mask="url(#path-1-outside-1_6532_200)"/>
<path d="M97.0246 25.0432L100.273 21.0393L101.56 12.8922L102.695 13.8036L101.672 20.3206L107.846 17.9426L108.98 18.854L101.261 21.8328L98.0122 25.8367L97.0246 25.0432Z" stroke="white" stroke-opacity="0.15" stroke-width="2" mask="url(#path-1-outside-1_6532_200)"/>
<path d="M108.694 37.9193L119.21 31.4759L119.871 32.5442L109.355 38.9875L108.694 37.9193Z" stroke="white" stroke-opacity="0.15" stroke-width="2" mask="url(#path-1-outside-1_6532_200)"/>
<path d="M111.32 42.1618L122.779 37.5797L123.253 38.7517L116.398 48.7861L125.788 45.0313L126.262 46.2033L114.802 50.7854L114.329 49.6135L121.191 39.5758L111.793 43.3338L111.32 42.1618Z" stroke="white" stroke-opacity="0.15" stroke-width="2" mask="url(#path-1-outside-1_6532_200)"/>
<path d="M115.389 53.9315L126.28 51.596L125.371 47.3996L126.553 47.1461L128.637 56.7652L127.455 57.0187L126.546 52.8223L115.655 55.1579L115.389 53.9315Z" stroke="white" stroke-opacity="0.15" stroke-width="2" mask="url(#path-1-outside-1_6532_200)"/>
<path d="M116.455 58.9938L128.794 58.4723L128.996 63.213C129.001 63.3324 129.001 63.4662 128.996 63.6145C128.997 63.7682 128.986 63.9224 128.964 64.0771C128.895 64.7235 128.692 65.2759 128.357 65.7343C128.028 66.1981 127.602 66.5549 127.081 66.8047C126.559 67.0602 125.976 67.2016 125.331 67.2289C124.399 67.2683 123.581 67.058 122.874 66.5981C122.168 66.1383 121.707 65.4573 121.491 64.5553L121.37 64.1248L121.196 60.0491L116.508 60.2472L116.455 58.9938ZM116.772 66.429L121.69 63.7952L122.204 64.9779L116.834 67.87L116.772 66.429ZM122.395 59.9984L122.543 63.4516C122.547 63.554 122.558 63.6731 122.575 63.809C122.592 63.945 122.618 64.0777 122.652 64.2073C122.761 64.624 122.95 64.9606 123.219 65.2169C123.488 65.4788 123.802 65.6677 124.161 65.7835C124.521 65.9049 124.893 65.9576 125.276 65.9414C125.658 65.9252 126.024 65.8414 126.372 65.69C126.726 65.5441 127.026 65.3293 127.272 65.0455C127.517 64.7675 127.677 64.4162 127.75 63.9917C127.773 63.8598 127.785 63.7255 127.785 63.5888C127.79 63.4519 127.791 63.3323 127.787 63.23L127.639 59.7767L122.395 59.9984Z" stroke="white" stroke-opacity="0.15" stroke-width="2" mask="url(#path-1-outside-1_6532_200)"/>
<path d="M115.974 72.1041C116.13 70.8908 116.531 69.9008 117.178 69.1343C117.83 68.3684 118.662 67.8321 119.676 67.5253C120.69 67.2186 121.823 67.1451 123.076 67.3048C124.33 67.4645 125.408 67.8198 126.311 68.3709C127.215 68.9219 127.882 69.6494 128.313 70.5532C128.75 71.4578 128.89 72.5168 128.734 73.7301C128.577 74.9491 128.173 75.9387 127.522 76.6989C126.876 77.4655 126.046 78.0021 125.032 78.3089C124.018 78.6213 122.884 78.6977 121.631 78.5379C120.378 78.3782 119.3 78.02 118.397 77.4634C117.494 76.9123 116.824 76.1845 116.387 75.2799C115.955 74.3817 115.817 73.3231 115.974 72.1041ZM117.174 72.257C117.051 73.2107 117.167 74.0342 117.521 74.7276C117.876 75.4209 118.421 75.9751 119.158 76.3902C119.899 76.8116 120.78 77.0873 121.801 77.2174C122.822 77.3475 123.741 77.3012 124.56 77.0785C125.377 76.8615 126.045 76.4619 126.564 75.8799C127.083 75.2978 127.406 74.5303 127.535 73.5773C127.658 72.6235 127.541 71.8028 127.186 71.1151C126.831 70.4274 126.282 69.8729 125.541 69.4515C124.805 69.0364 123.927 68.761 122.906 68.6253C121.886 68.4896 120.968 68.5302 120.15 68.7473C119.337 68.9707 118.669 69.373 118.144 69.9544C117.625 70.5364 117.302 71.3039 117.174 72.257Z" stroke="white" stroke-opacity="0.15" stroke-width="2" mask="url(#path-1-outside-1_6532_200)"/>
<path d="M111.413 87.9562L124.356 89.7091L123.765 90.8751L112.321 89.3294L120.363 97.5887L119.772 98.7546L110.66 89.4422L111.413 87.9562Z" stroke="white" stroke-opacity="0.15" stroke-width="2" mask="url(#path-1-outside-1_6532_200)"/>
<path d="M106.947 95.3664L116.876 102.674L116.126 103.683L106.197 96.375L106.947 95.3664Z" stroke="white" stroke-opacity="0.15" stroke-width="2" mask="url(#path-1-outside-1_6532_200)"/>
<path d="M104.086 99.2628L112.631 108.135L109.926 110.716C109.831 110.806 109.668 110.958 109.437 111.17C109.202 111.386 108.965 111.581 108.727 111.753C107.959 112.304 107.152 112.593 106.306 112.619C105.46 112.645 104.621 112.453 103.789 112.041C102.957 111.629 102.177 111.045 101.449 110.289C100.721 109.533 100.168 108.733 99.7893 107.888C99.4111 107.043 99.2531 106.201 99.3155 105.361C99.3779 104.521 99.7021 103.731 100.288 102.991C100.471 102.77 100.676 102.543 100.903 102.31C101.134 102.082 101.293 101.926 101.38 101.843L104.086 99.2628ZM103.982 101.029L102.217 102.712C102.048 102.874 101.87 103.051 101.684 103.244C101.498 103.445 101.348 103.627 101.235 103.79C100.802 104.376 100.585 104.985 100.584 105.617C100.578 106.253 100.739 106.888 101.065 107.523C101.395 108.161 101.845 108.776 102.415 109.368C102.988 109.964 103.589 110.439 104.216 110.794C104.843 111.15 105.474 111.336 106.109 111.353C106.743 111.371 107.362 111.179 107.965 110.777C108.133 110.672 108.322 110.527 108.532 110.342C108.742 110.166 108.928 110 109.089 109.847L110.853 108.164L103.982 101.029Z" stroke="white" stroke-opacity="0.15" stroke-width="2" mask="url(#path-1-outside-1_6532_200)"/>
<path d="M97.0469 105.815L103.963 115.997L97.5675 120.298L96.8904 119.301L102.241 115.702L99.8492 112.181L95.3514 115.206L94.6742 114.209L99.1721 111.184L96.6795 107.514L91.329 111.113L90.6519 110.116L97.0469 105.815Z" stroke="white" stroke-opacity="0.15" stroke-width="2" mask="url(#path-1-outside-1_6532_200)"/>
<path d="M86.0054 111.991C87.1256 111.487 88.1831 111.308 89.1779 111.454C90.175 111.605 91.0706 112.029 91.8646 112.727C92.6586 113.426 93.3158 114.347 93.8362 115.493C94.3567 116.639 94.618 117.739 94.62 118.793C94.6221 119.847 94.3494 120.794 93.8021 121.634C93.2571 122.478 92.4245 123.152 91.3043 123.656C90.179 124.162 89.1203 124.339 88.1284 124.186C87.1336 124.04 86.2392 123.618 85.4452 122.92C84.646 122.224 83.9862 121.304 83.4657 120.158C82.9453 119.012 82.6866 117.911 82.6898 116.854C82.6877 115.8 82.9592 114.851 83.5042 114.006C84.0463 113.169 84.8801 112.498 86.0054 111.991ZM86.5035 113.088C85.623 113.484 84.9791 114.014 84.5717 114.678C84.1643 115.342 83.9761 116.095 84.007 116.936C84.035 117.785 84.261 118.676 84.6849 119.61C85.1088 120.543 85.6305 121.298 86.2502 121.874C86.8646 122.453 87.5568 122.81 88.3269 122.944C89.0969 123.079 89.9234 122.951 90.8063 122.56C91.6867 122.164 92.3281 121.635 92.7303 120.973C93.1324 120.311 93.3195 119.556 93.2915 118.707C93.2606 117.866 93.0358 116.977 92.6171 116.042C92.1984 115.106 91.6818 114.349 91.0674 113.77C90.4502 113.198 89.7553 112.843 88.9829 112.703C88.2128 112.569 87.3864 112.697 86.5035 113.088Z" stroke="white" stroke-opacity="0.15" stroke-width="2" mask="url(#path-1-outside-1_6532_200)"/>
<path d="M75.1684 121.091L75.2601 122.162L70.1328 122.596L70.0412 121.525L75.1684 121.091Z" stroke="white" stroke-opacity="0.15" stroke-width="2" mask="url(#path-1-outside-1_6532_200)"/>
</svg>
