<svg width="1920" height="1121" viewBox="0 0 1920 1121" fill="none" xmlns="http://www.w3.org/2000/svg">
<path d="M-45.9962 808.263L-20.4251 76.0017C-16.9557 -23.349 66.3965 -101.076 165.747 -97.6068L1795.75 -40.6857C1895.1 -37.2163 1972.83 46.1358 1969.36 145.487L1940 986.174C1937.32 1063.06 1872.81 1123.21 1795.93 1120.53C1759.01 1119.24 1724.11 1103.33 1698.91 1076.31L1637.47 1010.43C1581.81 950.738 1488.29 947.472 1428.6 1003.14C1368.91 1058.8 1275.39 1055.54 1219.73 995.843C1164.06 936.15 1070.55 932.884 1010.86 988.549C951.163 1044.21 857.647 1040.95 801.983 981.255C746.319 921.562 652.803 918.296 593.11 973.961L586.381 980.236C528.479 1034.23 439.431 1036.66 378.671 985.902L294.86 915.887C252.311 880.342 191.066 878.203 146.142 910.693C64.4239 969.793 -49.5158 909.05 -45.9962 808.263Z" fill="#1260FE"/>
</svg>
