<svg width="40" height="40" viewBox="0 0 40 40" fill="none" xmlns="http://www.w3.org/2000/svg">
<path d="M23.944 22.4985C23.972 22.4937 28.4778 20.9911 28.4778 20.9911C28.5522 20.9586 28.6069 20.9454 28.7067 20.8496L32.0048 17.5515C32.0314 17.5248 32.0955 17.4492 32.1275 17.3716L33.2273 14.8541C34.0522 12.9662 33.6439 10.8048 32.187 9.34783L30.2336 7.39445C28.7767 5.93769 26.6155 5.52945 24.7273 6.35406L22.2099 7.45389C22.1478 7.48705 22.1133 7.4969 22.03 7.57659L18.7319 10.8747C18.6956 10.9128 18.6237 10.9981 18.5904 11.1037L17.1431 15.4348L1.5424 32.6985L1.537 32.7046C0.907043 33.4215 0.942158 34.5117 1.61701 35.1866L2.66435 36.2339L0.171897 38.7264C0.0626874 38.8365 0.0015611 38.9855 0.00189344 39.1406C0.00222578 39.2957 0.0639897 39.4444 0.17367 39.5541C0.28335 39.6637 0.432015 39.7255 0.587133 39.7259C0.742251 39.7262 0.89119 39.6651 1.00136 39.5559L3.4939 37.0634L4.395 37.9645C5.03074 38.5976 6.11383 38.6917 6.883 38.039L22.1845 24.2115C22.2994 24.107 22.3682 23.9613 22.3758 23.8062C22.3834 23.6512 22.3292 23.4994 22.2251 23.3842C22.121 23.269 21.9755 23.1998 21.8205 23.1917C21.6654 23.1836 21.5135 23.2374 21.398 23.3411L6.09999 37.1655C5.84636 37.386 5.46237 37.3729 5.22438 37.1349L2.44639 34.3569C2.20849 34.119 2.19535 33.7351 2.41589 33.4814L17.6821 16.5879L23.4298 22.3357C23.506 22.416 23.7149 22.5429 23.944 22.4985ZM19.4024 12.3748L27.2066 20.179L24.0027 21.2495L18.3318 15.5786L19.4024 12.3748ZM22.4448 8.82087L30.7605 17.1367L28.2919 19.6052L19.9761 11.2895L22.4448 8.82087ZM25.197 7.4291C26.6394 6.79875 28.2909 7.11087 29.4041 8.22399L31.3574 10.1773C32.4706 11.2905 32.7827 12.942 32.1524 14.3844L31.3968 16.114L23.4676 8.18465L25.197 7.4291Z" fill="#DE0977"/>
<path d="M16.0432 20.8606L12.8296 24.0741C12.1107 24.7658 12.0232 26.1163 12.8296 26.8981C13.5211 27.617 14.8718 27.7044 15.6535 26.8981L18.867 23.6846C19.5859 22.9929 19.6733 21.6424 18.867 20.8606C18.1755 20.1417 16.8249 20.0544 16.0432 20.8606ZM18.0375 22.855L14.8239 26.0686C14.5637 26.3245 14.0273 26.4289 13.6591 26.0686C13.338 25.7474 13.338 25.2249 13.6591 24.9037L16.8726 21.6901C17.1286 21.454 17.603 21.3157 18.0375 21.6901C18.3587 22.0113 18.3587 22.5339 18.0375 22.855ZM37.0767 27.9588C37.003 27.9042 36.9176 27.8677 36.8272 27.8521C36.7369 27.8366 36.6442 27.8424 36.5565 27.8692L34.2688 28.5673C32.5455 29.0455 32.1296 31.4604 33.5894 32.5116C34.1891 32.931 34.9199 33.0892 35.7274 32.808C36.6765 32.5184 37.3142 31.657 37.3142 30.6647V28.4303C37.3142 28.3386 37.2928 28.2482 37.2515 28.1663C37.2103 28.0845 37.1504 28.0134 37.0767 27.9588ZM36.1411 30.6646C36.1411 31.1375 35.8373 31.5479 35.385 31.6859C35.1019 31.8009 34.65 31.8228 34.2874 31.5689C33.6641 31.1529 33.7357 29.9375 34.6111 29.6895L36.141 29.2225V30.6646H36.1411Z" fill="#DE0977"/>
<path d="M36.7044 21.3132C36.5159 21.1795 36.2981 21.0928 36.0692 21.0604C35.8404 21.028 35.6071 21.0508 35.3888 21.1268L30.2957 22.9054C30.0122 23.0047 29.7666 23.1895 29.5927 23.4344C29.4188 23.6793 29.3253 23.9721 29.3251 24.2724V27.9959L27.4527 28.5673C26.5036 28.857 25.8659 29.7183 25.8659 30.7106C25.8463 31.8512 26.8513 32.9654 28.1001 32.9533C29.2477 32.9797 30.5554 31.9699 30.4982 30.6646V24.2724C30.4982 24.1557 30.5723 24.0515 30.6825 24.013L35.7757 22.2343C35.8995 22.22 36.0568 22.1763 36.1411 22.4938V25.6816C36.1411 26.0056 36.4037 26.2681 36.7277 26.2681C37.0516 26.2681 37.3142 26.0056 37.3142 25.6816V22.4938C37.314 22.2626 37.2586 22.0349 37.1525 21.8295C37.0464 21.6241 36.8928 21.4471 36.7044 21.3132ZM29.3251 30.6647C29.3251 31.1375 29.0213 31.548 28.569 31.686C27.9665 31.965 27.0445 31.5537 27.0391 30.7107C27.0391 30.2378 27.3429 29.8275 27.7952 29.6894L29.3251 29.2225V30.6647ZM12.1683 12.6405C12.7269 13.0257 13.3863 13.204 14.1559 12.9828C15.1155 12.7639 15.9052 11.8312 15.8932 10.7935V2.50554C15.8932 2.18153 15.6306 1.91899 15.3067 1.91899C14.9827 1.91899 14.7201 2.18153 14.7201 2.50554V8.12479L12.8478 8.69617C11.8987 8.98585 11.261 9.84715 11.261 10.8394C11.2609 11.5571 11.5916 12.2135 12.1683 12.6405ZM13.1901 9.81829L14.7201 9.35131V10.7935C14.7201 11.2663 14.4162 11.6767 13.9639 11.8148C13.3614 12.0938 12.4394 11.6824 12.434 10.8394C12.434 10.3667 12.7379 9.95632 13.1901 9.81829ZM39.4135 2.45627H38.7276V1.77039C38.7276 1.44638 38.465 1.18384 38.141 1.18384C37.8171 1.18384 37.5545 1.44638 37.5545 1.77039V2.45627H36.8686C36.5447 2.45627 36.282 2.71881 36.282 3.04282C36.282 3.36683 36.5447 3.62938 36.8686 3.62938H37.5545V4.31525C37.5545 4.63926 37.8171 4.9018 38.141 4.9018C38.465 4.9018 38.7276 4.63926 38.7276 4.31525V3.62938H39.4135C39.7374 3.62938 40 3.36683 40 3.04282C40 2.71881 39.7374 2.45627 39.4135 2.45627ZM35.4552 10.0333C35.7854 10.0333 36.0531 9.76565 36.0531 9.43546C36.0531 9.10527 35.7854 8.83765 35.4552 8.83765C35.125 8.83765 34.8574 9.10527 34.8574 9.43546C34.8574 9.76565 35.1251 10.0333 35.4552 10.0333ZM20.5196 1.46797C20.8498 1.46797 21.1174 1.20034 21.1174 0.870153C21.1174 0.539963 20.8498 0.272339 20.5196 0.272339C20.1894 0.272339 19.9218 0.539963 19.9218 0.870153C19.9218 1.0287 19.9847 1.18076 20.0969 1.29287C20.209 1.40498 20.361 1.46797 20.5196 1.46797ZM24.0433 13.6142L25.6674 15.2384C25.8508 15.4076 26.1923 15.5044 26.4969 15.2384C26.5513 15.184 26.5945 15.1193 26.624 15.0481C26.6535 14.977 26.6687 14.9007 26.6687 14.8237C26.6687 14.7466 26.6535 14.6703 26.624 14.5992C26.5945 14.528 26.5513 14.4634 26.4969 14.4089L24.8727 12.7847C24.7621 12.6777 24.6139 12.6185 24.46 12.6199C24.3062 12.6212 24.159 12.6829 24.0502 12.7917C23.9414 12.9005 23.8797 13.0477 23.8784 13.2015C23.8771 13.3554 23.9363 13.5036 24.0433 13.6142Z" fill="#DE0977"/>
</svg>
