<svg width="179" height="46" viewBox="0 0 179 46" fill="none" xmlns="http://www.w3.org/2000/svg">
<g clip-path="url(#clip0_6363_672)">
<path d="M13.3699 2.72C13.3699 4.22 12.1499 5.44 10.6499 5.44C9.14993 5.44 7.92993 4.22 7.92993 2.72C7.92993 1.22 9.14993 0 10.6499 0C12.1499 0 13.3699 1.22 13.3699 2.72Z" fill="#F69D18"/>
<path d="M37.0201 2.72C37.0201 4.22 35.8001 5.44 34.3001 5.44C32.8001 5.44 31.5801 4.22 31.5801 2.72C31.5801 1.22 32.8001 0 34.3001 0C35.8001 0 37.0201 1.22 37.0201 2.72Z" fill="#F69D18"/>
<path d="M60.66 2.72C60.66 4.22 59.44 5.44 57.94 5.44C56.44 5.44 55.22 4.22 55.22 2.72C55.22 1.22 56.44 0 57.94 0C59.44 0 60.66 1.22 60.66 2.72Z" fill="#F69D18"/>
<path d="M84.3001 2.72C84.3001 4.22 83.0801 5.44 81.5801 5.44C80.0801 5.44 78.8601 4.22 78.8601 2.72C78.8601 1.22 80.0801 0 81.5801 0C83.0801 0 84.3001 1.22 84.3001 2.72Z" fill="#F69D18"/>
<path d="M107.94 2.72C107.94 4.22 106.72 5.44 105.22 5.44C103.72 5.44 102.5 4.22 102.5 2.72C102.5 1.22 103.72 0 105.22 0C106.72 0 107.94 1.22 107.94 2.72Z" fill="#F69D18"/>
<path d="M131.59 2.72C131.59 4.22 130.37 5.44 128.87 5.44C127.37 5.44 126.15 4.22 126.15 2.72C126.15 1.22 127.37 0 128.87 0C130.37 0 131.59 1.22 131.59 2.72Z" fill="#F69D18"/>
<path d="M13.3699 2.72C13.3699 4.22 12.1499 5.44 10.6499 5.44C9.14993 5.44 7.92993 4.22 7.92993 2.72C7.92993 1.22 9.14993 0 10.6499 0C12.1499 0 13.3699 1.22 13.3699 2.72Z" fill="#F69D18"/>
<path d="M37.0201 2.72C37.0201 4.22 35.8001 5.44 34.3001 5.44C32.8001 5.44 31.5801 4.22 31.5801 2.72C31.5801 1.22 32.8001 0 34.3001 0C35.8001 0 37.0201 1.22 37.0201 2.72Z" fill="#F69D18"/>
<path d="M60.66 2.72C60.66 4.22 59.44 5.44 57.94 5.44C56.44 5.44 55.22 4.22 55.22 2.72C55.22 1.22 56.44 0 57.94 0C59.44 0 60.66 1.22 60.66 2.72Z" fill="#F69D18"/>
<path d="M84.3001 2.72C84.3001 4.22 83.0801 5.44 81.5801 5.44C80.0801 5.44 78.8601 4.22 78.8601 2.72C78.8601 1.22 80.0801 0 81.5801 0C83.0801 0 84.3001 1.22 84.3001 2.72Z" fill="#F69D18"/>
<path d="M107.94 2.72C107.94 4.22 106.72 5.44 105.22 5.44C103.72 5.44 102.5 4.22 102.5 2.72C102.5 1.22 103.72 0 105.22 0C106.72 0 107.94 1.22 107.94 2.72Z" fill="#F69D18"/>
<path d="M131.59 2.72C131.59 4.22 130.37 5.44 128.87 5.44C127.37 5.44 126.15 4.22 126.15 2.72C126.15 1.22 127.37 0 128.87 0C130.37 0 131.59 1.22 131.59 2.72Z" fill="#F69D18"/>
<path d="M178.87 2.72C178.87 4.22 177.65 5.44 176.15 5.44C174.65 5.44 173.43 4.22 173.43 2.72C173.43 1.22 174.65 0 176.15 0C177.65 0 178.87 1.22 178.87 2.72Z" fill="#F69D18"/>
<path d="M13.3699 22.7786C13.3699 24.2786 12.1499 25.4986 10.6499 25.4986C9.14993 25.4986 7.92993 24.2786 7.92993 22.7786C7.92993 21.2786 9.14993 20.0586 10.6499 20.0586C12.1499 20.0586 13.3699 21.2786 13.3699 22.7786Z" fill="#1260FE"/>
<path d="M37.0201 22.7786C37.0201 24.2786 35.8001 25.4986 34.3001 25.4986C32.8001 25.4986 31.5801 24.2786 31.5801 22.7786C31.5801 21.2786 32.8001 20.0586 34.3001 20.0586C35.8001 20.0586 37.0201 21.2786 37.0201 22.7786Z" fill="#1260FE"/>
<path d="M60.66 22.7786C60.66 24.2786 59.44 25.4986 57.94 25.4986C56.44 25.4986 55.22 24.2786 55.22 22.7786C55.22 21.2786 56.44 20.0586 57.94 20.0586C59.44 20.0586 60.66 21.2786 60.66 22.7786Z" fill="#1260FE"/>
<path d="M84.3001 22.7786C84.3001 24.2786 83.0801 25.4986 81.5801 25.4986C80.0801 25.4986 78.8601 24.2786 78.8601 22.7786C78.8601 21.2786 80.0801 20.0586 81.5801 20.0586C83.0801 20.0586 84.3001 21.2786 84.3001 22.7786Z" fill="#1260FE"/>
<path d="M107.94 22.7786C107.94 24.2786 106.72 25.4986 105.22 25.4986C103.72 25.4986 102.5 24.2786 102.5 22.7786C102.5 21.2786 103.72 20.0586 105.22 20.0586C106.72 20.0586 107.94 21.2786 107.94 22.7786Z" fill="#1260FE"/>
<path d="M131.59 22.7786C131.59 24.2786 130.37 25.4986 128.87 25.4986C127.37 25.4986 126.15 24.2786 126.15 22.7786C126.15 21.2786 127.37 20.0586 128.87 20.0586C130.37 20.0586 131.59 21.2786 131.59 22.7786Z" fill="#1260FE"/>
<path d="M155.23 22.7786C155.23 24.2786 154.01 25.4986 152.51 25.4986C151.01 25.4986 149.79 24.2786 149.79 22.7786C149.79 21.2786 151.01 20.0586 152.51 20.0586C154.01 20.0586 155.23 21.2786 155.23 22.7786Z" fill="#1260FE"/>
<path d="M13.3699 22.7786C13.3699 24.2786 12.1499 25.4986 10.6499 25.4986C9.14993 25.4986 7.92993 24.2786 7.92993 22.7786C7.92993 21.2786 9.14993 20.0586 10.6499 20.0586C12.1499 20.0586 13.3699 21.2786 13.3699 22.7786Z" fill="#1260FE"/>
<path d="M37.0201 22.7786C37.0201 24.2786 35.8001 25.4986 34.3001 25.4986C32.8001 25.4986 31.5801 24.2786 31.5801 22.7786C31.5801 21.2786 32.8001 20.0586 34.3001 20.0586C35.8001 20.0586 37.0201 21.2786 37.0201 22.7786Z" fill="#1260FE"/>
<path d="M60.66 22.7786C60.66 24.2786 59.44 25.4986 57.94 25.4986C56.44 25.4986 55.22 24.2786 55.22 22.7786C55.22 21.2786 56.44 20.0586 57.94 20.0586C59.44 20.0586 60.66 21.2786 60.66 22.7786Z" fill="#1260FE"/>
<path d="M84.3001 22.7786C84.3001 24.2786 83.0801 25.4986 81.5801 25.4986C80.0801 25.4986 78.8601 24.2786 78.8601 22.7786C78.8601 21.2786 80.0801 20.0586 81.5801 20.0586C83.0801 20.0586 84.3001 21.2786 84.3001 22.7786Z" fill="#1260FE"/>
<path d="M107.94 22.7786C107.94 24.2786 106.72 25.4986 105.22 25.4986C103.72 25.4986 102.5 24.2786 102.5 22.7786C102.5 21.2786 103.72 20.0586 105.22 20.0586C106.72 20.0586 107.94 21.2786 107.94 22.7786Z" fill="#1260FE"/>
<path d="M131.59 22.7786C131.59 24.2786 130.37 25.4986 128.87 25.4986C127.37 25.4986 126.15 24.2786 126.15 22.7786C126.15 21.2786 127.37 20.0586 128.87 20.0586C130.37 20.0586 131.59 21.2786 131.59 22.7786Z" fill="#1260FE"/>
<path d="M155.23 22.7786C155.23 24.2786 154.01 25.4986 152.51 25.4986C151.01 25.4986 149.79 24.2786 149.79 22.7786C149.79 21.2786 151.01 20.0586 152.51 20.0586C154.01 20.0586 155.23 21.2786 155.23 22.7786Z" fill="#1260FE"/>
<path d="M178.87 22.7786C178.87 24.2786 177.65 25.4986 176.15 25.4986C174.65 25.4986 173.43 24.2786 173.43 22.7786C173.43 21.2786 174.65 20.0586 176.15 20.0586C177.65 20.0586 178.87 21.2786 178.87 22.7786Z" fill="#1260FE"/>
<path d="M13.3699 42.8391C13.3699 44.3391 12.1499 45.5591 10.6499 45.5591C9.14993 45.5591 7.92993 44.3391 7.92993 42.8391C7.92993 41.3391 9.14993 40.1191 10.6499 40.1191C12.1499 40.1191 13.3699 41.3391 13.3699 42.8391Z" fill="#D2003E"/>
<path d="M37.0198 42.8391C37.0198 44.3391 35.7998 45.5591 34.2998 45.5591C32.7998 45.5591 31.5798 44.3391 31.5798 42.8391C31.5798 41.3391 32.7998 40.1191 34.2998 40.1191C35.7998 40.1191 37.0198 41.3391 37.0198 42.8391Z" fill="#D2003E"/>
<path d="M60.66 42.8391C60.66 44.3391 59.44 45.5591 57.94 45.5591C56.44 45.5591 55.22 44.3391 55.22 42.8391C55.22 41.3391 56.44 40.1191 57.94 40.1191C59.44 40.1191 60.66 41.3391 60.66 42.8391Z" fill="#D2003E"/>
<path d="M107.94 42.8391C107.94 44.3391 106.72 45.5591 105.22 45.5591C103.72 45.5591 102.5 44.3391 102.5 42.8391C102.5 41.3391 103.72 40.1191 105.22 40.1191C106.72 40.1191 107.94 41.3391 107.94 42.8391Z" fill="#D2003E"/>
<path d="M131.59 42.8391C131.59 44.3391 130.37 45.5591 128.87 45.5591C127.37 45.5591 126.15 44.3391 126.15 42.8391C126.15 41.3391 127.37 40.1191 128.87 40.1191C130.37 40.1191 131.59 41.3391 131.59 42.8391Z" fill="#D2003E"/>
<path d="M155.23 42.8391C155.23 44.3391 154.01 45.5591 152.51 45.5591C151.01 45.5591 149.79 44.3391 149.79 42.8391C149.79 41.3391 151.01 40.1191 152.51 40.1191C154.01 40.1191 155.23 41.3391 155.23 42.8391Z" fill="#D2003E"/>
<path d="M13.3699 42.8391C13.3699 44.3391 12.1499 45.5591 10.6499 45.5591C9.14993 45.5591 7.92993 44.3391 7.92993 42.8391C7.92993 41.3391 9.14993 40.1191 10.6499 40.1191C12.1499 40.1191 13.3699 41.3391 13.3699 42.8391Z" fill="#D2003E"/>
<path d="M37.0198 42.8391C37.0198 44.3391 35.7998 45.5591 34.2998 45.5591C32.7998 45.5591 31.5798 44.3391 31.5798 42.8391C31.5798 41.3391 32.7998 40.1191 34.2998 40.1191C35.7998 40.1191 37.0198 41.3391 37.0198 42.8391Z" fill="#D2003E"/>
<path d="M60.66 42.8391C60.66 44.3391 59.44 45.5591 57.94 45.5591C56.44 45.5591 55.22 44.3391 55.22 42.8391C55.22 41.3391 56.44 40.1191 57.94 40.1191C59.44 40.1191 60.66 41.3391 60.66 42.8391Z" fill="#D2003E"/>
<path d="M107.94 42.8391C107.94 44.3391 106.72 45.5591 105.22 45.5591C103.72 45.5591 102.5 44.3391 102.5 42.8391C102.5 41.3391 103.72 40.1191 105.22 40.1191C106.72 40.1191 107.94 41.3391 107.94 42.8391Z" fill="#D2003E"/>
<path d="M131.59 42.8391C131.59 44.3391 130.37 45.5591 128.87 45.5591C127.37 45.5591 126.15 44.3391 126.15 42.8391C126.15 41.3391 127.37 40.1191 128.87 40.1191C130.37 40.1191 131.59 41.3391 131.59 42.8391Z" fill="#D2003E"/>
<path d="M155.23 42.8391C155.23 44.3391 154.01 45.5591 152.51 45.5591C151.01 45.5591 149.79 44.3391 149.79 42.8391C149.79 41.3391 151.01 40.1191 152.51 40.1191C154.01 40.1191 155.23 41.3391 155.23 42.8391Z" fill="#D2003E"/>
</g>
<defs>
<clipPath id="clip0_6363_672">
<rect width="241.87" height="45.56" fill="white" transform="translate(-63)"/>
</clipPath>
</defs>
</svg>
