<svg width="106" height="189" viewBox="0 0 106 189" fill="none" xmlns="http://www.w3.org/2000/svg">
<path d="M91.8208 70.0073V2.32104C91.8208 1.05307 92.8631 0 94.1418 0C95.4205 0 96.4629 1.04232 96.4629 2.32104V70.0073C94.9048 69.8569 93.3466 69.8569 91.8208 70.0073ZM105.414 72.6829L120.726 35.1487C121.21 33.9667 120.651 32.602 119.458 32.1292C118.276 31.6349 116.912 32.2152 116.428 33.3972L101.126 70.9314C102.62 71.3827 104.049 71.9737 105.414 72.6829ZM35.1487 67.5788C33.9774 67.0953 32.6128 67.654 32.1292 68.8468C31.6457 70.0395 32.2152 71.3935 33.3972 71.8663L70.9314 87.1787C71.3827 85.6636 71.9737 84.2344 72.6829 82.8805L35.1487 67.5788ZM32.3979 120.114C32.7739 121.006 33.6228 121.532 34.5362 121.532C34.8371 121.532 35.138 121.479 35.4281 121.35L72.7904 105.65C72.049 104.286 71.4472 102.856 70.9851 101.374L33.6336 117.084C32.4516 117.567 31.9036 118.932 32.3979 120.114ZM155.897 68.1805C155.402 66.9985 154.038 66.4505 152.856 66.9448L115.504 82.6441C116.245 84.0088 116.836 85.4379 117.309 86.9208L154.672 71.2108C155.843 70.7273 156.391 69.3626 155.897 68.1805ZM112.85 78.7219L160.711 30.8612C161.613 29.9479 161.613 28.4865 160.711 27.5731C159.808 26.6705 158.336 26.6705 157.422 27.5731L109.562 75.4338C110.776 76.4331 111.872 77.5292 112.85 78.7219ZM82.6441 72.8011C84.0088 72.0597 85.4379 71.4687 86.9208 70.9959L71.2108 33.6443C70.7165 32.4623 69.3518 31.9036 68.1698 32.3979C66.9878 32.8922 66.429 34.2568 66.9341 35.4388L82.6441 72.8011ZM153.146 120.726C153.425 120.845 153.726 120.898 154.016 120.898C154.929 120.898 155.8 120.35 156.154 119.458C156.638 118.276 156.079 116.922 154.886 116.439L117.374 101.116C116.922 102.62 116.331 104.06 115.622 105.414L153.146 120.726ZM105.64 115.504C104.286 116.235 102.856 116.847 101.363 117.309L117.062 154.65C117.438 155.542 118.298 156.068 119.2 156.068C119.512 156.068 119.813 156.004 120.103 155.886C121.285 155.391 121.833 154.027 121.35 152.845L105.64 115.504ZM91.8208 118.298V185.973C91.8208 187.252 92.8631 188.294 94.1418 188.294C95.4205 188.294 96.4629 187.263 96.4629 185.973V118.298C94.9477 118.448 93.3896 118.448 91.8208 118.298ZM185.973 91.8315H118.298C118.438 93.3574 118.438 94.9048 118.287 96.4736H185.973C187.252 96.4736 188.294 95.442 188.294 94.1526C188.294 92.8738 187.252 91.8315 185.973 91.8315ZM112.861 109.583C111.872 110.787 110.776 111.883 109.572 112.861L157.433 160.721C157.895 161.173 158.475 161.398 159.066 161.398C159.668 161.398 160.259 161.173 160.721 160.721C161.624 159.819 161.624 158.347 160.721 157.444L112.861 109.583ZM70.0073 91.8315H2.32104C1.04232 91.8315 0 92.8738 0 94.1526C0 95.4313 1.04232 96.4736 2.32104 96.4736H70.0073C69.8569 94.9477 69.8569 93.3896 70.0073 91.8315ZM75.4445 78.7219C76.4331 77.5184 77.5292 76.4224 78.7219 75.4338L30.8612 27.5731C29.9479 26.6705 28.4865 26.6705 27.5838 27.5731C26.6812 28.4865 26.6812 29.9479 27.5838 30.8612L75.4445 78.7219ZM75.4445 109.572L27.5838 157.433C26.6812 158.347 26.6812 159.808 27.5838 160.711C28.0352 161.162 28.6262 161.388 29.2279 161.388C29.8297 161.388 30.4207 161.162 30.872 160.711L78.7219 112.85C77.5077 111.872 76.4224 110.765 75.4445 109.572ZM82.8912 115.622L67.5788 153.146C67.0953 154.328 67.6648 155.682 68.8575 156.165C69.1477 156.283 69.4378 156.337 69.7279 156.337C70.6413 156.337 71.5224 155.789 71.877 154.897L87.1787 117.374C85.6743 116.922 84.2344 116.331 82.8912 115.622Z" fill="white"/>
<path opacity="0.1" d="M170.8 109.906C162.107 152.243 120.715 179.505 78.3879 170.801C36.0612 162.097 8.78895 120.726 17.4821 78.389C26.1968 36.0515 67.5671 8.79002 109.905 17.4939C152.231 26.2086 179.504 67.579 170.8 109.906Z" fill="white"/>
<path opacity="0.3" d="M132.643 102.06C128.269 123.325 107.498 137.015 86.2218 132.652C64.9778 128.279 51.2772 107.497 55.6399 86.2423C60.0241 64.9875 80.7845 51.287 102.05 55.6497C123.315 60.0231 137.005 80.7943 132.643 102.06Z" fill="white"/>
<path d="M106.746 96.7413C105.317 103.694 98.5149 108.175 91.5625 106.756C84.5994 105.327 80.1293 98.525 81.5477 91.5619C82.9768 84.6095 89.7788 80.1179 96.7419 81.5578C103.694 82.9869 108.175 89.7781 106.746 96.7413Z" fill="white"/>
</svg>
