<svg width="58" height="47" viewBox="0 0 58 47" fill="none" xmlns="http://www.w3.org/2000/svg">
<g clip-path="url(#clip0_6363_1031)">
<path d="M50.1197 44.8308C45.9997 40.7108 47.4497 35.4908 48.5097 31.6808C49.2597 28.9808 49.6897 27.1608 48.9797 26.4508C48.2697 25.7408 46.4497 26.1708 43.7497 26.9208C39.9397 27.9808 34.7197 29.4208 30.5997 25.3108C26.4897 21.2008 27.9297 15.9808 28.9897 12.1608C29.7397 9.46078 30.1797 7.64078 29.4597 6.93078C27.8697 5.34078 27.8697 2.77078 29.4597 1.18078C31.0497 -0.409219 33.6197 -0.409219 35.2097 1.18078C39.3197 5.29078 37.8797 10.5108 36.8197 14.3308C36.0697 17.0308 35.6297 18.8508 36.3397 19.5608C37.0497 20.2708 38.8697 19.8408 41.5697 19.0908C45.3797 18.0308 50.5997 16.5908 54.7197 20.7008C58.8297 24.8208 57.3897 30.0408 56.3297 33.8508C55.5797 36.5508 55.1497 38.3708 55.8597 39.0808C57.4497 40.6708 57.4497 43.2408 55.8597 44.8308C54.2797 46.4208 51.7097 46.4208 50.1197 44.8308Z" fill="#F69D18"/>
<path d="M3.29642 25.9623L0.00585938 28.5078L10.7141 42.3503L14.0047 39.8048L3.29642 25.9623Z" fill="#80DE7A"/>
</g>
<defs>
<clipPath id="clip0_6363_1031">
<rect width="57.48" height="46.02" fill="white"/>
</clipPath>
</defs>
</svg>
