<svg width="242" height="46" viewBox="0 0 242 46" fill="none" xmlns="http://www.w3.org/2000/svg">
<g clip-path="url(#clip0_6363_1083)">
<path d="M5.45 2.72C5.45 4.22 4.23 5.44 2.73 5.44C1.22 5.45 0 4.23 0 2.72C0 1.22 1.22 0 2.72 0C4.23 0 5.45 1.22 5.45 2.72Z" fill="white"/>
<path d="M29.0904 2.72C29.0904 4.22 27.8704 5.44 26.3704 5.44C24.8704 5.44 23.6504 4.22 23.6504 2.72C23.6504 1.22 24.8704 0 26.3704 0C27.8704 0 29.0904 1.22 29.0904 2.72Z" fill="white"/>
<path d="M52.7291 2.72C52.7291 4.22 51.5091 5.44 50.0091 5.44C48.5091 5.44 47.2891 4.22 47.2891 2.72C47.2891 1.22 48.5091 0 50.0091 0C51.5091 0 52.7291 1.22 52.7291 2.72Z" fill="white"/>
<path d="M76.3697 2.72C76.3697 4.22 75.1497 5.44 73.6497 5.44C72.1497 5.44 70.9297 4.22 70.9297 2.72C70.9297 1.22 72.1497 0 73.6497 0C75.1497 0 76.3697 1.22 76.3697 2.72Z" fill="white"/>
<path d="M100.02 2.72C100.02 4.22 98.8001 5.44 97.3001 5.44C95.8001 5.44 94.5801 4.22 94.5801 2.72C94.5801 1.22 95.8001 0 97.3001 0C98.8001 0 100.02 1.22 100.02 2.72Z" fill="white"/>
<path d="M123.661 2.72C123.661 4.22 122.441 5.44 120.941 5.44C119.441 5.44 118.221 4.22 118.221 2.72C118.221 1.22 119.441 0 120.941 0C122.441 0 123.661 1.22 123.661 2.72Z" fill="white"/>
<path d="M147.299 2.72C147.299 4.22 146.079 5.44 144.579 5.44C143.079 5.44 141.859 4.22 141.859 2.72C141.859 1.22 143.079 0 144.579 0C146.079 0 147.299 1.22 147.299 2.72Z" fill="white"/>
<path d="M170.94 2.72C170.94 4.22 169.72 5.44 168.22 5.44C166.72 5.44 165.5 4.22 165.5 2.72C165.5 1.22 166.72 0 168.22 0C169.72 0 170.94 1.22 170.94 2.72Z" fill="white"/>
<path d="M194.59 2.72C194.59 4.22 193.37 5.44 191.87 5.44C190.37 5.44 189.15 4.22 189.15 2.72C189.15 1.22 190.37 0 191.87 0C193.37 0 194.59 1.22 194.59 2.72Z" fill="white"/>
<path d="M5.45 2.72C5.45 4.22 4.23 5.44 2.73 5.44C1.22 5.45 0 4.23 0 2.72C0 1.22 1.22 0 2.72 0C4.23 0 5.45 1.22 5.45 2.72Z" fill="white"/>
<path d="M29.0904 2.72C29.0904 4.22 27.8704 5.44 26.3704 5.44C24.8704 5.44 23.6504 4.22 23.6504 2.72C23.6504 1.22 24.8704 0 26.3704 0C27.8704 0 29.0904 1.22 29.0904 2.72Z" fill="white"/>
<path d="M52.7291 2.72C52.7291 4.22 51.5091 5.44 50.0091 5.44C48.5091 5.44 47.2891 4.22 47.2891 2.72C47.2891 1.22 48.5091 0 50.0091 0C51.5091 0 52.7291 1.22 52.7291 2.72Z" fill="white"/>
<path d="M76.3697 2.72C76.3697 4.22 75.1497 5.44 73.6497 5.44C72.1497 5.44 70.9297 4.22 70.9297 2.72C70.9297 1.22 72.1497 0 73.6497 0C75.1497 0 76.3697 1.22 76.3697 2.72Z" fill="white"/>
<path d="M100.02 2.72C100.02 4.22 98.8001 5.44 97.3001 5.44C95.8001 5.44 94.5801 4.22 94.5801 2.72C94.5801 1.22 95.8001 0 97.3001 0C98.8001 0 100.02 1.22 100.02 2.72Z" fill="white"/>
<path d="M123.661 2.72C123.661 4.22 122.441 5.44 120.941 5.44C119.441 5.44 118.221 4.22 118.221 2.72C118.221 1.22 119.441 0 120.941 0C122.441 0 123.661 1.22 123.661 2.72Z" fill="white"/>
<path d="M147.299 2.72C147.299 4.22 146.079 5.44 144.579 5.44C143.079 5.44 141.859 4.22 141.859 2.72C141.859 1.22 143.079 0 144.579 0C146.079 0 147.299 1.22 147.299 2.72Z" fill="white"/>
<path d="M170.94 2.72C170.94 4.22 169.72 5.44 168.22 5.44C166.72 5.44 165.5 4.22 165.5 2.72C165.5 1.22 166.72 0 168.22 0C169.72 0 170.94 1.22 170.94 2.72Z" fill="white"/>
<path d="M194.59 2.72C194.59 4.22 193.37 5.44 191.87 5.44C190.37 5.44 189.15 4.22 189.15 2.72C189.15 1.22 190.37 0 191.87 0C193.37 0 194.59 1.22 194.59 2.72Z" fill="white"/>
<path d="M241.87 2.72C241.87 4.22 240.65 5.44 239.15 5.44C237.65 5.44 236.43 4.22 236.43 2.72C236.43 1.22 237.65 0 239.15 0C240.65 0 241.87 1.22 241.87 2.72Z" fill="white"/>
<path d="M5.45 22.7786C5.45 24.2786 4.23 25.4986 2.73 25.4986C1.22 25.4986 0 24.2786 0 22.7786C0 21.2786 1.22 20.0586 2.72 20.0586C4.23 20.0586 5.45 21.2786 5.45 22.7786Z" fill="white"/>
<path d="M29.0904 22.7786C29.0904 24.2786 27.8704 25.4986 26.3704 25.4986C24.8704 25.4986 23.6504 24.2786 23.6504 22.7786C23.6504 21.2786 24.8704 20.0586 26.3704 20.0586C27.8704 20.0586 29.0904 21.2786 29.0904 22.7786Z" fill="white"/>
<path d="M52.7291 22.7786C52.7291 24.2786 51.5091 25.4986 50.0091 25.4986C48.5091 25.4986 47.2891 24.2786 47.2891 22.7786C47.2891 21.2786 48.5091 20.0586 50.0091 20.0586C51.5091 20.0586 52.7291 21.2786 52.7291 22.7786Z" fill="white"/>
<path d="M76.3697 22.7786C76.3697 24.2786 75.1497 25.4986 73.6497 25.4986C72.1497 25.4986 70.9297 24.2786 70.9297 22.7786C70.9297 21.2786 72.1497 20.0586 73.6497 20.0586C75.1497 20.0586 76.3697 21.2786 76.3697 22.7786Z" fill="white"/>
<path d="M100.02 22.7786C100.02 24.2786 98.8001 25.4986 97.3001 25.4986C95.8001 25.4986 94.5801 24.2786 94.5801 22.7786C94.5801 21.2786 95.8001 20.0586 97.3001 20.0586C98.8001 20.0586 100.02 21.2786 100.02 22.7786Z" fill="white"/>
<path d="M123.661 22.7786C123.661 24.2786 122.441 25.4986 120.941 25.4986C119.441 25.4986 118.221 24.2786 118.221 22.7786C118.221 21.2786 119.441 20.0586 120.941 20.0586C122.441 20.0586 123.661 21.2786 123.661 22.7786Z" fill="white"/>
<path d="M147.299 22.7786C147.299 24.2786 146.079 25.4986 144.579 25.4986C143.079 25.4986 141.859 24.2786 141.859 22.7786C141.859 21.2786 143.079 20.0586 144.579 20.0586C146.079 20.0586 147.299 21.2786 147.299 22.7786Z" fill="white"/>
<path d="M170.94 22.7786C170.94 24.2786 169.72 25.4986 168.22 25.4986C166.72 25.4986 165.5 24.2786 165.5 22.7786C165.5 21.2786 166.72 20.0586 168.22 20.0586C169.72 20.0586 170.94 21.2786 170.94 22.7786Z" fill="white"/>
<path d="M194.59 22.7786C194.59 24.2786 193.37 25.4986 191.87 25.4986C190.37 25.4986 189.15 24.2786 189.15 22.7786C189.15 21.2786 190.37 20.0586 191.87 20.0586C193.37 20.0586 194.59 21.2786 194.59 22.7786Z" fill="white"/>
<path d="M218.229 22.7786C218.229 24.2786 217.009 25.4986 215.509 25.4986C214.009 25.4986 212.789 24.2786 212.789 22.7786C212.789 21.2786 214.009 20.0586 215.509 20.0586C217.009 20.0586 218.229 21.2786 218.229 22.7786Z" fill="white"/>
<path d="M5.45 22.7786C5.45 24.2786 4.23 25.4986 2.73 25.4986C1.22 25.4986 0 24.2786 0 22.7786C0 21.2786 1.22 20.0586 2.72 20.0586C4.23 20.0586 5.45 21.2786 5.45 22.7786Z" fill="white"/>
<path d="M29.0904 22.7786C29.0904 24.2786 27.8704 25.4986 26.3704 25.4986C24.8704 25.4986 23.6504 24.2786 23.6504 22.7786C23.6504 21.2786 24.8704 20.0586 26.3704 20.0586C27.8704 20.0586 29.0904 21.2786 29.0904 22.7786Z" fill="white"/>
<path d="M52.7291 22.7786C52.7291 24.2786 51.5091 25.4986 50.0091 25.4986C48.5091 25.4986 47.2891 24.2786 47.2891 22.7786C47.2891 21.2786 48.5091 20.0586 50.0091 20.0586C51.5091 20.0586 52.7291 21.2786 52.7291 22.7786Z" fill="white"/>
<path d="M76.3697 22.7786C76.3697 24.2786 75.1497 25.4986 73.6497 25.4986C72.1497 25.4986 70.9297 24.2786 70.9297 22.7786C70.9297 21.2786 72.1497 20.0586 73.6497 20.0586C75.1497 20.0586 76.3697 21.2786 76.3697 22.7786Z" fill="white"/>
<path d="M100.02 22.7786C100.02 24.2786 98.8001 25.4986 97.3001 25.4986C95.8001 25.4986 94.5801 24.2786 94.5801 22.7786C94.5801 21.2786 95.8001 20.0586 97.3001 20.0586C98.8001 20.0586 100.02 21.2786 100.02 22.7786Z" fill="white"/>
<path d="M123.661 22.7786C123.661 24.2786 122.441 25.4986 120.941 25.4986C119.441 25.4986 118.221 24.2786 118.221 22.7786C118.221 21.2786 119.441 20.0586 120.941 20.0586C122.441 20.0586 123.661 21.2786 123.661 22.7786Z" fill="white"/>
<path d="M147.299 22.7786C147.299 24.2786 146.079 25.4986 144.579 25.4986C143.079 25.4986 141.859 24.2786 141.859 22.7786C141.859 21.2786 143.079 20.0586 144.579 20.0586C146.079 20.0586 147.299 21.2786 147.299 22.7786Z" fill="white"/>
<path d="M170.94 22.7786C170.94 24.2786 169.72 25.4986 168.22 25.4986C166.72 25.4986 165.5 24.2786 165.5 22.7786C165.5 21.2786 166.72 20.0586 168.22 20.0586C169.72 20.0586 170.94 21.2786 170.94 22.7786Z" fill="white"/>
<path d="M194.59 22.7786C194.59 24.2786 193.37 25.4986 191.87 25.4986C190.37 25.4986 189.15 24.2786 189.15 22.7786C189.15 21.2786 190.37 20.0586 191.87 20.0586C193.37 20.0586 194.59 21.2786 194.59 22.7786Z" fill="white"/>
<path d="M218.229 22.7786C218.229 24.2786 217.009 25.4986 215.509 25.4986C214.009 25.4986 212.789 24.2786 212.789 22.7786C212.789 21.2786 214.009 20.0586 215.509 20.0586C217.009 20.0586 218.229 21.2786 218.229 22.7786Z" fill="white"/>
<path d="M241.87 22.7786C241.87 24.2786 240.65 25.4986 239.15 25.4986C237.65 25.4986 236.43 24.2786 236.43 22.7786C236.43 21.2786 237.65 20.0586 239.15 20.0586C240.65 20.0586 241.87 21.2786 241.87 22.7786Z" fill="white"/>
<path d="M29.0904 42.8372C29.0904 44.3372 27.8704 45.5572 26.3704 45.5572C24.8704 45.5572 23.6504 44.3372 23.6504 42.8372C23.6504 41.3372 24.8704 40.1172 26.3704 40.1172C27.8704 40.1172 29.0904 41.3372 29.0904 42.8372Z" fill="white"/>
<path d="M52.731 42.8372C52.731 44.3372 51.511 45.5572 50.011 45.5572C48.511 45.5572 47.291 44.3372 47.291 42.8372C47.291 41.3372 48.511 40.1172 50.011 40.1172C51.511 40.1172 52.731 41.3372 52.731 42.8372Z" fill="white"/>
<path d="M76.3697 42.8372C76.3697 44.3372 75.1497 45.5572 73.6497 45.5572C72.1497 45.5572 70.9297 44.3372 70.9297 42.8372C70.9297 41.3372 72.1497 40.1172 73.6497 40.1172C75.1497 40.1172 76.3697 41.3372 76.3697 42.8372Z" fill="white"/>
<path d="M100.02 42.8372C100.02 44.3372 98.8001 45.5572 97.3001 45.5572C95.8001 45.5572 94.5801 44.3372 94.5801 42.8372C94.5801 41.3372 95.8001 40.1172 97.3001 40.1172C98.8001 40.1172 100.02 41.3372 100.02 42.8372Z" fill="white"/>
<path d="M123.661 42.8372C123.661 44.3372 122.441 45.5572 120.941 45.5572C119.441 45.5572 118.221 44.3372 118.221 42.8372C118.221 41.3372 119.441 40.1172 120.941 40.1172C122.441 40.1172 123.661 41.3372 123.661 42.8372Z" fill="white"/>
<path d="M170.94 42.8372C170.94 44.3372 169.72 45.5572 168.22 45.5572C166.72 45.5572 165.5 44.3372 165.5 42.8372C165.5 41.3372 166.72 40.1172 168.22 40.1172C169.72 40.1172 170.94 41.3372 170.94 42.8372Z" fill="white"/>
<path d="M194.59 42.8372C194.59 44.3372 193.37 45.5572 191.87 45.5572C190.37 45.5572 189.15 44.3372 189.15 42.8372C189.15 41.3372 190.37 40.1172 191.87 40.1172C193.37 40.1172 194.59 41.3372 194.59 42.8372Z" fill="white"/>
<path d="M218.231 42.8372C218.231 44.3372 217.011 45.5572 215.511 45.5572C214.011 45.5572 212.791 44.3372 212.791 42.8372C212.791 41.3372 214.011 40.1172 215.511 40.1172C217.011 40.1172 218.231 41.3372 218.231 42.8372Z" fill="white"/>
<path d="M29.0904 42.8372C29.0904 44.3372 27.8704 45.5572 26.3704 45.5572C24.8704 45.5572 23.6504 44.3372 23.6504 42.8372C23.6504 41.3372 24.8704 40.1172 26.3704 40.1172C27.8704 40.1172 29.0904 41.3372 29.0904 42.8372Z" fill="white"/>
<path d="M52.731 42.8372C52.731 44.3372 51.511 45.5572 50.011 45.5572C48.511 45.5572 47.291 44.3372 47.291 42.8372C47.291 41.3372 48.511 40.1172 50.011 40.1172C51.511 40.1172 52.731 41.3372 52.731 42.8372Z" fill="white"/>
<path d="M76.3697 42.8372C76.3697 44.3372 75.1497 45.5572 73.6497 45.5572C72.1497 45.5572 70.9297 44.3372 70.9297 42.8372C70.9297 41.3372 72.1497 40.1172 73.6497 40.1172C75.1497 40.1172 76.3697 41.3372 76.3697 42.8372Z" fill="white"/>
<path d="M100.02 42.8372C100.02 44.3372 98.8001 45.5572 97.3001 45.5572C95.8001 45.5572 94.5801 44.3372 94.5801 42.8372C94.5801 41.3372 95.8001 40.1172 97.3001 40.1172C98.8001 40.1172 100.02 41.3372 100.02 42.8372Z" fill="white"/>
<path d="M123.661 42.8372C123.661 44.3372 122.441 45.5572 120.941 45.5572C119.441 45.5572 118.221 44.3372 118.221 42.8372C118.221 41.3372 119.441 40.1172 120.941 40.1172C122.441 40.1172 123.661 41.3372 123.661 42.8372Z" fill="white"/>
<path d="M170.94 42.8372C170.94 44.3372 169.72 45.5572 168.22 45.5572C166.72 45.5572 165.5 44.3372 165.5 42.8372C165.5 41.3372 166.72 40.1172 168.22 40.1172C169.72 40.1172 170.94 41.3372 170.94 42.8372Z" fill="white"/>
<path d="M194.59 42.8372C194.59 44.3372 193.37 45.5572 191.87 45.5572C190.37 45.5572 189.15 44.3372 189.15 42.8372C189.15 41.3372 190.37 40.1172 191.87 40.1172C193.37 40.1172 194.59 41.3372 194.59 42.8372Z" fill="white"/>
<path d="M218.231 42.8372C218.231 44.3372 217.011 45.5572 215.511 45.5572C214.011 45.5572 212.791 44.3372 212.791 42.8372C212.791 41.3372 214.011 40.1172 215.511 40.1172C217.011 40.1172 218.231 41.3372 218.231 42.8372Z" fill="white"/>
</g>
<defs>
<clipPath id="clip0_6363_1083">
<rect width="241.87" height="45.56" fill="white"/>
</clipPath>
</defs>
</svg>
