<svg width="75" height="74" viewBox="0 0 75 74" fill="none" xmlns="http://www.w3.org/2000/svg">
<path d="M37.3898 0L69.2596 18.5V55.5L37.3898 74L5.52011 55.5V18.5L37.3898 0Z" fill="#EEF4FF"/>
<g clip-path="url(#clip0_8018_222)">
<path d="M53.5652 39.3413L46.1993 29.7164C46.0483 29.5191 45.8541 29.3593 45.6319 29.2493C45.4097 29.1393 45.1654 29.0821 44.9177 29.082H24.7559C24.5083 29.0821 24.2639 29.1393 24.0417 29.2493C23.8195 29.3593 23.6254 29.5191 23.4743 29.7164L16.1085 39.3413C15.4274 40.2313 15.4391 41.4742 16.1365 42.3515L31.2783 61.3888C31.4297 61.5793 31.6219 61.7331 31.8404 61.8387C32.059 61.9444 32.2985 61.9992 32.541 61.9992H37.1327C37.6235 61.9992 38.0884 61.7748 38.3953 61.3888L53.5371 42.3515C53.8761 41.9253 54.0631 41.397 54.0682 40.8513C54.0733 40.3056 53.8962 39.7739 53.5653 39.3413H53.5652Z" fill="#B7E5F7"/>
<path d="M53.5653 39.3413L46.1994 29.7164C46.0484 29.5191 45.8542 29.3593 45.632 29.2493C45.4098 29.1393 45.1655 29.0821 44.9178 29.082H41.1879C41.4356 29.0821 41.6799 29.1393 41.9021 29.2493C42.1243 29.3593 42.3184 29.5191 42.4695 29.7164L49.835 39.3413C50.5164 40.2313 50.5046 41.4742 49.8073 42.3515L34.665 61.3888C34.5136 61.5793 34.3215 61.7331 34.1029 61.8388C33.8843 61.9444 33.6449 61.9993 33.4023 61.9992H37.1324C37.6237 61.9992 38.0884 61.7748 38.3954 61.3888L53.5372 42.3515C53.8762 41.9253 54.0632 41.397 54.0683 40.8513C54.0734 40.3056 53.8964 39.7739 53.5654 39.3413H53.5653Z" fill="#84C8D8"/>
<path d="M33.5697 62.0022H32.5411C32.2984 62.0022 32.0589 61.9472 31.8403 61.8413C31.6217 61.7355 31.4297 61.5815 31.2784 61.3907L16.1374 42.3535C15.7993 41.9291 15.612 41.4031 15.6055 40.8594H26.2964L33.5697 62.0022Z" fill="#94D8ED"/>
<path d="M54.0687 40.8572H43.3774L39.5078 29.082H44.9181C45.4192 29.082 45.8931 29.3162 46.1985 29.716L53.5639 39.342C53.9066 39.7876 54.0732 40.3239 54.0686 40.8572H54.0687Z" fill="#DEF6FF"/>
<path d="M54.0175 40.3335C53.9446 39.981 53.7941 39.6411 53.5641 39.3416L47.8518 31.8763L46.199 29.7164C46.048 29.5191 45.8538 29.3593 45.6316 29.2493C45.4094 29.1393 45.1651 29.0821 44.9174 29.082H41.1875C41.4351 29.0821 41.6794 29.1393 41.9015 29.2493C42.1237 29.3593 42.3177 29.5191 42.4687 29.7164L49.8345 39.3413C50.167 39.7753 50.3442 40.3092 50.3377 40.8569H54.0676C54.0695 40.6891 54.0542 40.5215 54.022 40.3567C54.0213 40.3514 54.0201 40.346 54.019 40.3407C54.0186 40.3385 54.0179 40.3358 54.0175 40.3335Z" fill="#B7E5F7"/>
<path d="M43.3786 40.8572H26.2969L30.1665 29.082H39.5091L43.3786 40.8572Z" fill="#94D8ED"/>
<path d="M43.3786 40.8594L36.1054 62.0023H33.5701L26.2969 40.8594H43.3786Z" fill="#DEF6FF"/>
<path d="M33.5691 61.9992H36.1051L37.5718 57.7344L34.6651 61.3889C34.531 61.5576 34.3648 61.6978 34.1761 61.8012C33.9874 61.9046 33.7802 61.969 33.5664 61.9908L33.5691 61.9992Z" fill="#B7E5F7"/>
<path d="M49.8834 25.7165L47.5625 17.2484L40.3708 22.2357L33.3047 14.4922L33.6781 27.6861C33.6839 27.8896 33.7503 28.0867 33.8689 28.2517C33.9874 28.4168 34.1525 28.5423 34.3428 28.6119L50.4248 34.4972C50.6151 34.5668 50.8218 34.5773 51.0181 34.5274C51.2144 34.4775 51.3913 34.3694 51.5258 34.2173L60.247 24.3517L49.8834 25.7165Z" fill="#FFCD34"/>
<path d="M56.1589 24.8902L49.1964 33.3648C48.9361 33.6815 48.5362 33.8059 48.1875 33.6781L50.4256 34.4972C50.6159 34.5669 50.8226 34.5775 51.0189 34.5276C51.2153 34.4778 51.3922 34.3697 51.5267 34.2175L60.2478 24.3516L56.1589 24.8902Z" fill="#E69012"/>
<path d="M48.4251 14.8644C47.7171 14.605 46.9344 14.9724 46.6768 15.6842C46.4187 16.396 46.7841 17.1829 47.4921 17.442C48.2002 17.7014 48.9828 17.334 49.2404 16.6222C49.4984 15.9104 49.1331 15.1233 48.4251 14.8644ZM61.1451 21.9647C60.4371 21.7057 59.6541 22.0727 59.3965 22.7845C59.1388 23.4963 59.5038 24.2832 60.2118 24.5427C60.9199 24.8017 61.7029 24.4347 61.9605 23.7225C62.2181 23.0107 61.8532 22.2238 61.1451 21.9647ZM34.1419 12.0831C33.4338 11.824 32.6511 12.191 32.3931 12.9028C32.1356 13.6147 32.5005 14.402 33.2088 14.661C33.9169 14.92 34.6996 14.5531 34.9572 13.8413C35.2148 13.1291 34.8499 12.3421 34.1419 12.0831Z" fill="#FF8736"/>
<path d="M44.7274 25.0766C43.9148 24.7791 42.9359 25.4214 42.5413 26.5109C42.1471 27.6008 42.4863 28.7254 43.2989 29.0229C44.112 29.3205 45.0909 28.678 45.4851 27.5882C45.8797 26.4983 45.5405 25.3738 44.7274 25.0766Z" fill="#FA7EC1"/>
<path d="M22.7019 25.9979C22.5524 25.9978 22.4065 25.9515 22.2841 25.8652C22.1617 25.7789 22.0686 25.6569 22.0175 25.5156L21.2321 23.3463C21.1994 23.2559 21.1847 23.1599 21.1889 23.0638C21.1931 22.9677 21.216 22.8733 21.2565 22.7862C21.2969 22.699 21.354 22.6206 21.4246 22.5557C21.4951 22.4907 21.5777 22.4403 21.6677 22.4074C21.7576 22.3745 21.853 22.3598 21.9486 22.364C22.0442 22.3682 22.138 22.3913 22.2247 22.432C22.3115 22.4726 22.3893 22.5301 22.454 22.601C22.5186 22.672 22.5687 22.755 22.6014 22.8454L23.3864 25.0148C23.4264 25.1254 23.4394 25.2441 23.4241 25.3609C23.4089 25.4776 23.3658 25.589 23.2987 25.6855C23.2315 25.7819 23.1422 25.8607 23.0383 25.9151C22.9344 25.9695 22.819 25.9979 22.7019 25.9979ZM27.0643 25.8318C26.9612 25.8318 26.8565 25.8094 26.757 25.7629C26.6703 25.7223 26.5924 25.6649 26.5278 25.594C26.4631 25.5231 26.413 25.4401 26.3803 25.3497C26.3476 25.2594 26.3329 25.1634 26.337 25.0673C26.3412 24.9712 26.3641 24.8769 26.4045 24.7898L27.2734 22.9167C27.4434 22.5501 27.8766 22.3914 28.2413 22.5623C28.606 22.7332 28.7638 23.1692 28.5938 23.5358L27.7249 25.4085C27.6664 25.535 27.5731 25.6421 27.4561 25.7171C27.3391 25.7921 27.2032 25.832 27.0644 25.8319L27.0643 25.8318ZM19.2532 28.6902C19.1468 28.6902 19.0418 28.6667 18.9454 28.6216L17.0829 27.7484C16.9078 27.6663 16.7722 27.5176 16.7061 27.335C16.64 27.1525 16.6487 26.9509 16.7303 26.7748C16.8121 26.5988 16.9601 26.4627 17.1416 26.3962C17.3232 26.3298 17.5235 26.3385 17.6987 26.4205L19.5611 27.2937C19.7114 27.3642 19.8332 27.4841 19.9064 27.6337C19.9797 27.7832 20.0001 27.9534 19.9642 28.1161C19.9283 28.2789 19.8383 28.4245 19.709 28.5288C19.5798 28.6332 19.4189 28.6901 19.2532 28.6902Z" fill="#FF8736"/>
</g>
<defs>
<clipPath id="clip0_8018_222">
<rect width="49.7297" height="50" fill="white" transform="translate(15.5078 12)"/>
</clipPath>
</defs>
</svg>
