<svg width="179" height="46" viewBox="0 0 179 46" fill="none" xmlns="http://www.w3.org/2000/svg">
<g clip-path="url(#clip0_6363_555)">
<path d="M13.3697 2.72C13.3697 4.22 12.1497 5.44 10.6497 5.44C9.14969 5.44 7.92969 4.22 7.92969 2.72C7.92969 1.22 9.14969 0 10.6497 0C12.1497 0 13.3697 1.22 13.3697 2.72Z" fill="#F69D18"/>
<path d="M37.0201 2.72C37.0201 4.22 35.8001 5.44 34.3001 5.44C32.8001 5.44 31.5801 4.22 31.5801 2.72C31.5801 1.22 32.8001 0 34.3001 0C35.8001 0 37.0201 1.22 37.0201 2.72Z" fill="#F69D18"/>
<path d="M60.6607 2.72C60.6607 4.22 59.4407 5.44 57.9407 5.44C56.4407 5.44 55.2207 4.22 55.2207 2.72C55.2207 1.22 56.4407 0 57.9407 0C59.4407 0 60.6607 1.22 60.6607 2.72Z" fill="#F69D18"/>
<path d="M84.2994 2.72C84.2994 4.22 83.0794 5.44 81.5794 5.44C80.0794 5.44 78.8594 4.22 78.8594 2.72C78.8594 1.22 80.0794 0 81.5794 0C83.0794 0 84.2994 1.22 84.2994 2.72Z" fill="#F69D18"/>
<path d="M107.94 2.72C107.94 4.22 106.72 5.44 105.22 5.44C103.72 5.44 102.5 4.22 102.5 2.72C102.5 1.22 103.72 0 105.22 0C106.72 0 107.94 1.22 107.94 2.72Z" fill="#F69D18"/>
<path d="M131.59 2.72C131.59 4.22 130.37 5.44 128.87 5.44C127.37 5.44 126.15 4.22 126.15 2.72C126.15 1.22 127.37 0 128.87 0C130.37 0 131.59 1.22 131.59 2.72Z" fill="#F69D18"/>
<path d="M13.3697 2.72C13.3697 4.22 12.1497 5.44 10.6497 5.44C9.14969 5.44 7.92969 4.22 7.92969 2.72C7.92969 1.22 9.14969 0 10.6497 0C12.1497 0 13.3697 1.22 13.3697 2.72Z" fill="#F69D18"/>
<path d="M37.0201 2.72C37.0201 4.22 35.8001 5.44 34.3001 5.44C32.8001 5.44 31.5801 4.22 31.5801 2.72C31.5801 1.22 32.8001 0 34.3001 0C35.8001 0 37.0201 1.22 37.0201 2.72Z" fill="#F69D18"/>
<path d="M60.6607 2.72C60.6607 4.22 59.4407 5.44 57.9407 5.44C56.4407 5.44 55.2207 4.22 55.2207 2.72C55.2207 1.22 56.4407 0 57.9407 0C59.4407 0 60.6607 1.22 60.6607 2.72Z" fill="#F69D18"/>
<path d="M84.2994 2.72C84.2994 4.22 83.0794 5.44 81.5794 5.44C80.0794 5.44 78.8594 4.22 78.8594 2.72C78.8594 1.22 80.0794 0 81.5794 0C83.0794 0 84.2994 1.22 84.2994 2.72Z" fill="#F69D18"/>
<path d="M107.94 2.72C107.94 4.22 106.72 5.44 105.22 5.44C103.72 5.44 102.5 4.22 102.5 2.72C102.5 1.22 103.72 0 105.22 0C106.72 0 107.94 1.22 107.94 2.72Z" fill="#F69D18"/>
<path d="M131.59 2.72C131.59 4.22 130.37 5.44 128.87 5.44C127.37 5.44 126.15 4.22 126.15 2.72C126.15 1.22 127.37 0 128.87 0C130.37 0 131.59 1.22 131.59 2.72Z" fill="#F69D18"/>
<path d="M178.87 2.72C178.87 4.22 177.65 5.44 176.15 5.44C174.65 5.44 173.43 4.22 173.43 2.72C173.43 1.22 174.65 0 176.15 0C177.65 0 178.87 1.22 178.87 2.72Z" fill="#F69D18"/>
<path d="M13.3697 22.7786C13.3697 24.2786 12.1497 25.4986 10.6497 25.4986C9.14969 25.4986 7.92969 24.2786 7.92969 22.7786C7.92969 21.2786 9.14969 20.0586 10.6497 20.0586C12.1497 20.0586 13.3697 21.2786 13.3697 22.7786Z" fill="#1260FE"/>
<path d="M37.0201 22.7786C37.0201 24.2786 35.8001 25.4986 34.3001 25.4986C32.8001 25.4986 31.5801 24.2786 31.5801 22.7786C31.5801 21.2786 32.8001 20.0586 34.3001 20.0586C35.8001 20.0586 37.0201 21.2786 37.0201 22.7786Z" fill="#1260FE"/>
<path d="M60.6607 22.7786C60.6607 24.2786 59.4407 25.4986 57.9407 25.4986C56.4407 25.4986 55.2207 24.2786 55.2207 22.7786C55.2207 21.2786 56.4407 20.0586 57.9407 20.0586C59.4407 20.0586 60.6607 21.2786 60.6607 22.7786Z" fill="#1260FE"/>
<path d="M84.2994 22.7786C84.2994 24.2786 83.0794 25.4986 81.5794 25.4986C80.0794 25.4986 78.8594 24.2786 78.8594 22.7786C78.8594 21.2786 80.0794 20.0586 81.5794 20.0586C83.0794 20.0586 84.2994 21.2786 84.2994 22.7786Z" fill="#1260FE"/>
<path d="M107.94 22.7786C107.94 24.2786 106.72 25.4986 105.22 25.4986C103.72 25.4986 102.5 24.2786 102.5 22.7786C102.5 21.2786 103.72 20.0586 105.22 20.0586C106.72 20.0586 107.94 21.2786 107.94 22.7786Z" fill="#1260FE"/>
<path d="M131.59 22.7786C131.59 24.2786 130.37 25.4986 128.87 25.4986C127.37 25.4986 126.15 24.2786 126.15 22.7786C126.15 21.2786 127.37 20.0586 128.87 20.0586C130.37 20.0586 131.59 21.2786 131.59 22.7786Z" fill="#1260FE"/>
<path d="M155.229 22.7786C155.229 24.2786 154.009 25.4986 152.509 25.4986C151.009 25.4986 149.789 24.2786 149.789 22.7786C149.789 21.2786 151.009 20.0586 152.509 20.0586C154.009 20.0586 155.229 21.2786 155.229 22.7786Z" fill="#1260FE"/>
<path d="M13.3697 22.7786C13.3697 24.2786 12.1497 25.4986 10.6497 25.4986C9.14969 25.4986 7.92969 24.2786 7.92969 22.7786C7.92969 21.2786 9.14969 20.0586 10.6497 20.0586C12.1497 20.0586 13.3697 21.2786 13.3697 22.7786Z" fill="#1260FE"/>
<path d="M37.0201 22.7786C37.0201 24.2786 35.8001 25.4986 34.3001 25.4986C32.8001 25.4986 31.5801 24.2786 31.5801 22.7786C31.5801 21.2786 32.8001 20.0586 34.3001 20.0586C35.8001 20.0586 37.0201 21.2786 37.0201 22.7786Z" fill="#1260FE"/>
<path d="M60.6607 22.7786C60.6607 24.2786 59.4407 25.4986 57.9407 25.4986C56.4407 25.4986 55.2207 24.2786 55.2207 22.7786C55.2207 21.2786 56.4407 20.0586 57.9407 20.0586C59.4407 20.0586 60.6607 21.2786 60.6607 22.7786Z" fill="#1260FE"/>
<path d="M84.2994 22.7786C84.2994 24.2786 83.0794 25.4986 81.5794 25.4986C80.0794 25.4986 78.8594 24.2786 78.8594 22.7786C78.8594 21.2786 80.0794 20.0586 81.5794 20.0586C83.0794 20.0586 84.2994 21.2786 84.2994 22.7786Z" fill="#1260FE"/>
<path d="M107.94 22.7786C107.94 24.2786 106.72 25.4986 105.22 25.4986C103.72 25.4986 102.5 24.2786 102.5 22.7786C102.5 21.2786 103.72 20.0586 105.22 20.0586C106.72 20.0586 107.94 21.2786 107.94 22.7786Z" fill="#1260FE"/>
<path d="M131.59 22.7786C131.59 24.2786 130.37 25.4986 128.87 25.4986C127.37 25.4986 126.15 24.2786 126.15 22.7786C126.15 21.2786 127.37 20.0586 128.87 20.0586C130.37 20.0586 131.59 21.2786 131.59 22.7786Z" fill="#1260FE"/>
<path d="M155.229 22.7786C155.229 24.2786 154.009 25.4986 152.509 25.4986C151.009 25.4986 149.789 24.2786 149.789 22.7786C149.789 21.2786 151.009 20.0586 152.509 20.0586C154.009 20.0586 155.229 21.2786 155.229 22.7786Z" fill="#1260FE"/>
<path d="M178.87 22.7786C178.87 24.2786 177.65 25.4986 176.15 25.4986C174.65 25.4986 173.43 24.2786 173.43 22.7786C173.43 21.2786 174.65 20.0586 176.15 20.0586C177.65 20.0586 178.87 21.2786 178.87 22.7786Z" fill="#1260FE"/>
<path d="M13.3697 42.8372C13.3697 44.3372 12.1497 45.5572 10.6497 45.5572C9.14969 45.5572 7.92969 44.3372 7.92969 42.8372C7.92969 41.3372 9.14969 40.1172 10.6497 40.1172C12.1497 40.1172 13.3697 41.3372 13.3697 42.8372Z" fill="#D2003E"/>
<path d="M37.0201 42.8372C37.0201 44.3372 35.8001 45.5572 34.3001 45.5572C32.8001 45.5572 31.5801 44.3372 31.5801 42.8372C31.5801 41.3372 32.8001 40.1172 34.3001 40.1172C35.8001 40.1172 37.0201 41.3372 37.0201 42.8372Z" fill="#D2003E"/>
<path d="M60.6607 42.8372C60.6607 44.3372 59.4407 45.5572 57.9407 45.5572C56.4407 45.5572 55.2207 44.3372 55.2207 42.8372C55.2207 41.3372 56.4407 40.1172 57.9407 40.1172C59.4407 40.1172 60.6607 41.3372 60.6607 42.8372Z" fill="#D2003E"/>
<path d="M107.94 42.8372C107.94 44.3372 106.72 45.5572 105.22 45.5572C103.72 45.5572 102.5 44.3372 102.5 42.8372C102.5 41.3372 103.72 40.1172 105.22 40.1172C106.72 40.1172 107.94 41.3372 107.94 42.8372Z" fill="#D2003E"/>
<path d="M131.59 42.8372C131.59 44.3372 130.37 45.5572 128.87 45.5572C127.37 45.5572 126.15 44.3372 126.15 42.8372C126.15 41.3372 127.37 40.1172 128.87 40.1172C130.37 40.1172 131.59 41.3372 131.59 42.8372Z" fill="#D2003E"/>
<path d="M155.231 42.8372C155.231 44.3372 154.011 45.5572 152.511 45.5572C151.011 45.5572 149.791 44.3372 149.791 42.8372C149.791 41.3372 151.011 40.1172 152.511 40.1172C154.011 40.1172 155.231 41.3372 155.231 42.8372Z" fill="#D2003E"/>
<path d="M13.3697 42.8372C13.3697 44.3372 12.1497 45.5572 10.6497 45.5572C9.14969 45.5572 7.92969 44.3372 7.92969 42.8372C7.92969 41.3372 9.14969 40.1172 10.6497 40.1172C12.1497 40.1172 13.3697 41.3372 13.3697 42.8372Z" fill="#D2003E"/>
<path d="M37.0201 42.8372C37.0201 44.3372 35.8001 45.5572 34.3001 45.5572C32.8001 45.5572 31.5801 44.3372 31.5801 42.8372C31.5801 41.3372 32.8001 40.1172 34.3001 40.1172C35.8001 40.1172 37.0201 41.3372 37.0201 42.8372Z" fill="#D2003E"/>
<path d="M60.6607 42.8372C60.6607 44.3372 59.4407 45.5572 57.9407 45.5572C56.4407 45.5572 55.2207 44.3372 55.2207 42.8372C55.2207 41.3372 56.4407 40.1172 57.9407 40.1172C59.4407 40.1172 60.6607 41.3372 60.6607 42.8372Z" fill="#D2003E"/>
<path d="M107.94 42.8372C107.94 44.3372 106.72 45.5572 105.22 45.5572C103.72 45.5572 102.5 44.3372 102.5 42.8372C102.5 41.3372 103.72 40.1172 105.22 40.1172C106.72 40.1172 107.94 41.3372 107.94 42.8372Z" fill="#D2003E"/>
<path d="M131.59 42.8372C131.59 44.3372 130.37 45.5572 128.87 45.5572C127.37 45.5572 126.15 44.3372 126.15 42.8372C126.15 41.3372 127.37 40.1172 128.87 40.1172C130.37 40.1172 131.59 41.3372 131.59 42.8372Z" fill="#D2003E"/>
<path d="M155.231 42.8372C155.231 44.3372 154.011 45.5572 152.511 45.5572C151.011 45.5572 149.791 44.3372 149.791 42.8372C149.791 41.3372 151.011 40.1172 152.511 40.1172C154.011 40.1172 155.231 41.3372 155.231 42.8372Z" fill="#D2003E"/>
</g>
<defs>
<clipPath id="clip0_6363_555">
<rect width="241.87" height="45.56" fill="white" transform="translate(-63)"/>
</clipPath>
</defs>
</svg>
