<svg width="113" height="113" viewBox="0 0 113 113" fill="none" xmlns="http://www.w3.org/2000/svg">
<path d="M59.5747 7.47234L63.5979 0L65.1453 0.152497L67.1569 8.23482L65.7643 8.08232L65.1453 6.09987L61.8958 5.79487L60.9674 7.62483L59.5747 7.47234ZM62.36 4.7274L65.1453 5.03239L64.2169 1.37247L62.36 4.7274Z" fill="white"/>
<path d="M69.0138 8.99684C68.5496 8.84435 68.2401 8.69185 68.0854 8.38686C67.9307 8.08186 67.9307 7.77687 67.9307 7.16688L69.4781 0.457031L70.8707 0.762025L69.3233 7.31938C69.3233 7.47188 69.3233 7.77687 69.3233 7.77687C69.3233 7.92937 69.4781 7.92937 69.6328 7.92937C69.7875 7.92937 69.9423 7.92937 70.2518 7.92937L70.097 8.84435C69.9423 8.84435 69.7875 8.84435 69.6328 8.84435C69.3233 8.99684 69.1686 8.99684 69.0138 8.99684Z" fill="white"/>
<path d="M71.7989 9.75841C71.3347 9.60591 71.0252 9.45341 70.8704 9.14842C70.7157 8.84343 70.7157 8.38594 70.8704 7.92845L72.8821 1.37109L74.12 1.67609L72.2631 8.08095C72.2631 8.23344 72.2631 8.38594 72.2631 8.53844C72.2631 8.69093 72.4178 8.69093 72.5726 8.69093C72.7273 8.69093 72.8821 8.84343 73.1915 8.84343L72.8821 9.75841C72.7273 9.75841 72.5726 9.75841 72.4178 9.75841C72.2631 9.91091 72.1084 9.75841 71.7989 9.75841Z" fill="white"/>
<path d="M76.1318 10.9798L79.5361 3.8125L84.6425 6.09995L84.1783 7.01493L80.3098 5.18497L79.3814 7.62492L82.7856 9.14988L82.3214 10.0649L78.9171 8.5399L77.834 10.6748L81.7025 12.5048L81.2382 13.4198L76.1318 10.9798Z" fill="white"/>
<path d="M84.333 15.4028C83.4045 14.7929 82.9403 14.1829 82.7856 13.5729C82.6308 12.8104 82.7856 12.0479 83.2498 11.1329C83.714 10.3705 84.333 9.91296 85.1067 9.60797C85.7256 9.45547 86.4993 9.60797 87.4277 10.0655C88.2014 10.5229 88.6657 11.1329 88.8204 11.7429C88.9751 12.3529 88.8204 12.9629 88.3562 13.5729L87.7372 14.4879L84.1782 12.2004C83.8687 12.6579 83.8687 13.1154 84.0235 13.5729C84.1782 14.0304 84.6424 14.3354 85.2614 14.6404C85.5709 14.7929 85.7256 14.9453 86.0351 15.0978C86.3446 15.2503 86.654 15.2503 86.8088 15.4028L86.3446 16.1653C86.0351 16.1653 85.7256 16.0128 85.4161 15.8603C85.1067 15.7078 84.6424 15.5553 84.333 15.4028ZM84.4877 11.5904L87.1183 13.2679L87.273 12.9629C87.4278 12.6579 87.5825 12.3529 87.4277 12.0479C87.4277 11.7429 87.1183 11.4379 86.6541 11.1329C86.1898 10.6754 85.8804 10.5229 85.4161 10.6754C84.9519 10.8279 84.7972 11.1329 84.4877 11.5904Z" fill="white"/>
<path d="M88.2017 17.9941L90.2133 12.1992L91.2964 12.9617L89.7491 17.5366L93.927 15.0967L95.0102 16.0116L89.5943 19.0616L88.2017 17.9941Z" fill="white"/>
<path d="M93.4626 22.8748C92.6889 22.1123 92.3794 21.3498 92.3794 20.7398C92.3794 19.9773 92.6889 19.2148 93.4626 18.6048C94.0815 17.9949 94.8552 17.6899 95.6289 17.5374C96.4026 17.3849 97.0216 17.8424 97.7953 18.4523C98.4142 19.0623 98.7237 19.6723 98.7237 20.2823C98.7237 20.8923 98.4142 21.5023 97.95 21.9598L96.8668 22.8748L93.9268 19.8248C93.6173 20.2823 93.4626 20.7398 93.4626 21.0448C93.6173 21.5023 93.772 21.9598 94.391 22.4173C94.5457 22.5698 94.8552 22.8748 95.1647 23.0272C95.4742 23.1797 95.6289 23.3322 95.9384 23.4847L95.1647 24.0947C94.8552 23.9422 94.7005 23.7897 94.391 23.6372C93.9268 23.3322 93.7721 23.1797 93.4626 22.8748ZM94.5457 19.2148L96.7121 21.3498L97.0216 21.0448C97.3311 20.7398 97.4858 20.4348 97.4858 20.1298C97.4858 19.8248 97.3311 19.5198 97.0216 19.0623C96.5574 18.6048 96.2479 18.4523 95.7837 18.4523C95.3194 18.6048 95.01 18.7573 94.5457 19.2148Z" fill="white"/>
<path d="M95.7837 25.3159L100.581 21.9609L101.354 22.8759L100.89 23.3334C101.2 23.4859 101.509 23.6384 101.819 23.7909C102.128 23.9434 102.437 24.2484 102.747 24.7059C103.211 25.3159 103.366 25.9258 103.366 26.3833C103.211 26.8408 102.902 27.2983 102.283 27.7558L99.188 30.0433L98.4143 28.9758L101.354 26.8408C101.664 26.5358 101.973 26.3833 101.973 26.0783C101.973 25.7734 101.819 25.4684 101.509 25.1634C101.354 24.8584 101.045 24.7059 100.89 24.5534C100.581 24.4009 100.271 24.2484 100.116 24.2484L96.7121 26.6883L95.7837 25.3159Z" fill="white"/>
<path d="M100.735 32.7864C100.426 32.1765 100.271 31.719 100.426 31.414C100.581 30.9565 100.89 30.6515 101.354 30.3465L103.985 28.8215L103.675 28.0591L104.604 27.6016L105.068 28.364L106.306 27.7541L107.389 28.669L105.842 29.584L106.616 30.9565L105.687 31.414L104.913 30.194L102.283 31.719C101.973 31.8715 101.819 32.024 101.819 32.329C101.819 32.4815 101.819 32.7864 101.973 33.0914C102.128 33.2439 102.283 33.3964 102.438 33.7014L101.664 34.1589C101.354 33.5489 101.045 33.2439 100.735 32.7864Z" fill="white"/>
<path d="M104.139 40.1075C103.675 39.04 103.675 38.1251 103.985 37.3626C104.294 36.6001 104.913 36.1426 105.842 35.8376L110.639 34.1602L111.103 35.3801L106.461 37.0576C105.842 37.2101 105.377 37.6676 105.223 38.1251C105.068 38.5826 105.068 39.04 105.223 39.8025C105.377 40.4125 105.842 40.87 106.151 41.0225C106.615 41.3275 107.08 41.3275 107.698 41.0225L112.341 39.345L112.805 40.565L108.008 42.2425C107.08 42.5475 106.306 42.5475 105.532 42.09C105.068 41.785 104.449 41.0225 104.139 40.1075Z" fill="white"/>
<path d="M103.057 44.8336L111.413 43.3086L111.567 44.3761L110.948 44.5286C111.258 44.6811 111.413 44.9861 111.567 45.2911C111.722 45.596 111.877 45.901 111.877 46.3585C112.032 47.121 111.877 47.8835 111.567 48.341C111.258 48.951 110.484 49.256 109.401 49.4085C108.318 49.561 107.544 49.561 106.925 49.1035C106.306 48.7985 105.997 48.1885 105.842 47.2735C105.687 46.511 105.687 45.901 105.997 45.4435L103.057 46.0535V44.8336ZM107.08 46.816C107.235 47.8835 108.163 48.341 109.556 48.036C110.175 47.8835 110.639 47.731 110.948 47.426C111.258 47.121 111.258 46.6635 111.103 46.0535C110.948 45.4435 110.639 44.9861 110.175 44.6811L107.235 45.2911C107.08 45.4435 107.08 45.7485 106.925 46.0535C106.925 46.3585 106.925 46.511 107.08 46.816Z" fill="white"/>
<path d="M106.925 53.8313C106.925 52.7639 107.08 52.0014 107.544 51.5439C108.008 50.9339 108.782 50.6289 109.71 50.6289C110.793 50.6289 111.567 50.7814 112.031 51.3914C112.495 52.0014 112.805 52.6114 112.96 53.6788C112.96 54.1363 112.96 54.4413 112.96 54.7463C112.96 55.0513 112.805 55.3563 112.805 55.5088H111.876C112.031 55.0513 112.186 54.5938 112.031 53.9838C112.031 53.3738 111.876 52.7639 111.412 52.4589C111.103 52.1539 110.484 52.0014 109.865 52.0014C109.091 52.0014 108.627 52.3064 108.317 52.6114C108.008 52.9164 107.853 53.5263 108.008 54.2888C108.008 54.8988 108.163 55.3563 108.472 55.8138H107.389C107.234 55.5088 107.234 55.2038 107.08 54.8988C106.925 54.5938 106.925 54.2888 106.925 53.8313Z" fill="white"/>
<path d="M106.925 59.3193C106.925 58.2518 107.234 57.4894 107.853 57.0319C108.472 56.5744 109.246 56.4219 110.175 56.4219C111.103 56.4219 111.877 56.7269 112.341 57.3369C112.805 57.7943 113.115 58.5568 112.96 59.6243C112.96 60.6918 112.65 61.4543 112.031 61.9118C111.412 62.3692 110.639 62.5217 109.71 62.5217C108.782 62.5217 108.008 62.2167 107.544 61.6068C107.08 61.1493 106.77 60.3868 106.925 59.3193ZM108.008 59.3193C108.008 59.9293 108.163 60.3868 108.318 60.6918C108.627 60.9968 109.091 61.1493 109.71 61.1493C110.329 61.1493 110.948 61.1493 111.258 60.8443C111.567 60.5393 111.722 60.2343 111.722 59.6243C111.722 59.0143 111.567 58.5568 111.412 58.2518C111.258 57.9468 110.639 57.7943 110.02 57.7943C109.401 57.7943 108.782 57.7943 108.472 58.0993C108.163 58.4043 108.008 58.8618 108.008 59.3193Z" fill="white"/>
<path d="M106.77 63.2852L112.496 64.6576L112.186 65.8776L111.567 65.7251C111.722 66.0301 111.877 66.3351 111.877 66.7926C111.877 67.0976 111.877 67.5551 111.877 67.8601C111.722 68.3175 111.567 68.6225 111.413 68.775C111.258 68.9275 110.948 69.08 110.794 69.2325C110.948 69.5375 111.103 69.8425 111.103 70.3C111.103 70.7575 111.103 71.0625 110.948 71.52C110.794 72.13 110.484 72.5875 110.175 72.8924C109.71 73.1974 109.246 73.1974 108.473 73.0449L104.759 72.13L105.068 70.91L108.782 71.825C109.246 71.9775 109.556 71.9775 109.71 71.825C109.865 71.6725 110.02 71.3675 110.175 71.0625C110.175 70.7575 110.329 70.4525 110.175 70.3C110.175 69.995 110.02 69.8425 109.865 69.5375C109.71 69.5375 109.71 69.5375 109.556 69.5375C109.401 69.5375 109.401 69.5375 109.246 69.5375L105.532 68.6225L105.842 67.4026L109.401 68.3175C109.865 68.47 110.175 68.47 110.329 68.3175C110.484 68.165 110.794 68.0126 110.794 67.5551C110.794 67.2501 110.794 66.9451 110.794 66.7926C110.794 66.4876 110.639 66.1826 110.484 66.0301L106.306 65.1151L106.77 63.2852Z" fill="white"/>
<path d="M104.294 73.0469L109.555 75.4868L109.091 76.5543L108.472 76.4018C108.627 76.7068 108.627 77.1643 108.627 77.4693C108.627 77.7743 108.472 78.2318 108.317 78.5368C108.163 78.8417 108.008 79.1467 107.699 79.2992C107.544 79.4517 107.234 79.6042 106.925 79.6042C107.08 79.9092 107.08 80.3667 107.08 80.6717C107.08 80.9767 106.925 81.4342 106.77 81.8917C106.461 82.5017 106.151 82.8067 105.687 82.9592C105.223 83.1117 104.758 82.9592 103.985 82.6542L100.426 80.9767L101.045 79.7567L104.449 81.2817C104.913 81.4342 105.223 81.5867 105.377 81.4342C105.687 81.2817 105.842 81.1292 105.996 80.6717C106.151 80.3667 106.151 80.2142 106.151 79.9092C106.151 79.6042 106.151 79.4517 105.996 79.1467C105.842 79.1467 105.842 79.1467 105.687 79.1467C105.532 79.1467 105.532 79.1467 105.377 78.9942L101.973 77.4693L102.437 76.4018L105.842 77.9268C106.306 78.0793 106.615 78.2318 106.77 78.0793C107.08 78.0793 107.234 77.7743 107.389 77.4693C107.544 77.1643 107.544 77.0118 107.544 76.7068C107.544 76.4018 107.544 76.0968 107.389 75.9443L103.521 74.1143L104.294 73.0469Z" fill="white"/>
<path d="M99.3425 82.5L103.366 85.0924L103.83 84.33L104.604 84.9399L103.521 86.6174L98.5688 83.415L99.3425 82.5ZM105.377 86.3124L106.306 86.9224L105.532 88.1424L104.604 87.5324L105.377 86.3124Z" fill="white"/>
<path d="M97.9501 84.7891L102.592 88.449L101.819 89.364L101.354 89.059C101.354 89.364 101.354 89.669 101.2 90.1264C101.045 90.4314 100.89 90.8889 100.581 91.1939C100.116 91.8039 99.6523 92.1089 99.188 92.1089C98.7238 92.1089 98.1049 91.9564 97.6406 91.4989L94.3911 89.2115L95.1648 88.144L98.1049 90.4314C98.4143 90.7364 98.7238 90.8889 99.0333 90.7364C99.3428 90.7364 99.6523 90.4314 99.9617 90.1264C100.116 89.8215 100.271 89.669 100.426 89.364C100.581 89.059 100.581 88.754 100.581 88.449L97.1764 85.8565L97.9501 84.7891Z" fill="white"/>
<path d="M90.2133 90.1264C90.5228 89.8214 90.8322 89.5164 91.2964 89.3639C91.6059 89.0589 91.9154 88.9064 92.2249 88.7539L92.9986 89.5164C92.6891 89.6689 92.3796 89.8214 92.0701 90.1264C91.7607 90.4314 91.4512 90.5839 91.1417 90.8889C90.6775 91.3463 90.368 91.6513 90.2133 91.8038C90.0585 92.1088 90.0585 92.2613 90.2133 92.4138C90.368 92.5663 90.5227 92.5663 90.6775 92.5663C90.8322 92.5663 90.987 92.4138 91.2964 92.1088L92.3796 91.0414C93.1533 90.2789 93.7723 90.2789 94.2365 90.7364C94.3912 90.8889 94.546 91.0414 94.546 91.3463C94.546 91.6513 94.546 91.8038 94.3912 92.1088C94.7007 91.9563 95.1649 91.9563 95.4744 92.1088C95.7839 92.2613 96.0934 92.4138 96.4028 92.7188C96.8671 93.3288 97.1765 93.7863 97.0218 94.3963C96.8671 95.0063 96.5576 95.4638 95.9386 96.0737C95.7839 96.2262 95.6292 96.3787 95.4744 96.3787C95.3197 96.5312 95.1649 96.5312 95.0102 96.6837L93.4628 98.2087L92.8438 97.4462L93.6175 96.8362C93.4628 96.8362 93.1533 96.8362 92.9986 96.6837C92.8438 96.5312 92.6891 96.5312 92.5344 96.2262C92.0701 95.7687 91.9154 95.3113 91.9154 94.8538C91.9154 94.3963 92.2249 93.7863 92.8438 93.3288C92.9986 93.1763 92.9986 93.1763 93.1533 93.0238C93.3081 93.0238 93.3081 92.8713 93.4628 92.8713C93.6175 92.7188 93.7723 92.4138 93.7723 92.2613C93.7723 92.1088 93.7723 91.9563 93.6175 91.8038C93.4628 91.6513 93.4628 91.6513 93.3081 91.6513C93.1533 91.6513 92.9986 91.8038 92.8438 91.9563L91.6059 93.0238C91.1417 93.4813 90.8322 93.6338 90.368 93.6338C89.9038 93.6338 89.5943 93.4813 89.2848 93.1763C88.8206 92.7188 88.8206 92.2613 88.9754 91.8038C89.1301 91.3463 89.5943 90.7364 90.2133 90.1264ZM93.4628 93.6338C92.9986 93.9388 92.8438 94.2438 92.8438 94.5488C92.8438 94.8538 92.9986 95.1588 93.3081 95.4638C93.6175 95.7687 93.927 95.9212 94.2365 95.9212C94.546 95.9212 94.8555 95.7687 95.3197 95.3113C95.6291 95.0063 95.9386 94.7013 95.9386 94.3963C95.9386 94.0913 95.7839 93.7863 95.4744 93.4813C95.1649 93.1763 94.8555 93.0238 94.546 93.0238C94.2365 93.0238 93.927 93.3288 93.4628 93.6338Z" fill="white"/>
<path d="M82.0119 98.8164L83.4045 101.409L88.3562 104.306L87.1183 104.916L83.4045 102.629V107.051L82.1666 107.661L82.3214 102.019L80.9287 99.4264L82.0119 98.8164Z" fill="white"/>
<path d="M75.8224 101.564C76.7509 101.107 77.6793 101.107 78.2983 101.412C78.9172 101.717 79.3814 102.327 79.8457 103.242C80.1551 104.157 80.3099 104.919 80.0004 105.529C79.6909 106.139 79.072 106.749 78.1435 107.054C77.2151 107.512 76.2867 107.512 75.6677 107.207C75.0487 106.902 74.4298 106.292 74.1203 105.377C73.8108 104.462 73.6561 103.699 73.9656 103.089C74.1203 102.479 74.7393 102.022 75.8224 101.564ZM76.1319 102.632C75.513 102.784 75.2035 103.089 75.0487 103.547C74.894 103.852 75.0487 104.462 75.2035 105.072C75.513 105.682 75.8224 106.139 76.1319 106.292C76.4414 106.444 76.9056 106.444 77.5246 106.292C78.1435 106.139 78.453 105.834 78.6077 105.377C78.7625 105.072 78.6078 104.462 78.453 103.852C78.1435 103.242 77.834 102.784 77.5246 102.632C77.2151 102.479 76.7509 102.479 76.1319 102.632Z" fill="white"/>
<path d="M69.7876 103.545C70.4066 103.393 71.0255 103.393 71.4897 103.698C71.954 104.003 72.2634 104.46 72.4182 105.223L73.3466 108.73L72.1087 109.035L71.1803 105.528C71.0255 105.07 70.8708 104.765 70.7161 104.613C70.4066 104.46 70.0971 104.46 69.6329 104.613C69.3234 104.613 69.0139 104.765 68.8592 105.07C68.5497 105.223 68.395 105.528 68.2402 105.68L69.3234 109.798L68.0855 110.103L66.5381 104.46L67.776 104.155L67.9307 104.765C68.0855 104.46 68.395 104.308 68.7044 104.003C69.0139 103.85 69.4781 103.698 69.7876 103.545Z" fill="white"/>
<path d="M62.5147 105.07L62.8242 112.848L59.5746 113C58.3367 113 57.563 112.695 56.9441 112.238C56.3251 111.628 56.0156 110.56 56.0156 109.188C56.0156 107.815 56.1704 106.9 56.7893 106.138C57.2535 105.528 58.182 105.223 59.4199 105.07H62.5147ZM61.2768 106.138H59.5746C59.1104 106.138 58.6462 106.29 58.3367 106.443C58.0272 106.595 57.7178 106.9 57.563 107.358C57.4083 107.815 57.4083 108.425 57.4083 109.188C57.4083 109.95 57.563 110.56 57.7178 111.018C57.8725 111.475 58.182 111.78 58.4915 111.933C58.8009 112.085 59.2652 112.085 59.8841 112.085H61.5862L61.2768 106.138Z" fill="white"/>
<path d="M52.1471 104.764C53.2303 104.917 54.004 105.222 54.3135 105.832C54.623 106.442 54.9324 107.204 54.7777 108.119C54.623 109.034 54.3135 109.797 53.8493 110.254C53.385 110.712 52.4566 110.864 51.5282 110.712C50.445 110.559 49.6713 110.254 49.3618 109.644C49.0523 109.034 48.7429 108.272 48.8976 107.357C49.0523 106.442 49.3618 105.679 49.826 105.222C50.2903 104.764 51.064 104.612 52.1471 104.764ZM51.9924 105.832C51.3734 105.832 50.9092 105.832 50.5997 106.137C50.2903 106.442 50.1355 106.899 49.9808 107.509C49.9808 108.119 49.9808 108.729 50.1355 109.034C50.2903 109.339 50.7545 109.492 51.3734 109.644C51.9924 109.644 52.4566 109.644 52.7661 109.339C53.0756 109.034 53.2303 108.577 53.385 107.967C53.385 107.357 53.385 106.747 53.2303 106.442C52.9208 106.137 52.6113 105.984 51.9924 105.832Z" fill="white"/>
<path d="M47.9693 104.306L46.5767 109.948L45.3388 109.643L45.4935 109.033C45.184 109.186 44.8746 109.186 44.4103 109.338C43.9461 109.491 43.6366 109.338 43.1724 109.186C42.3987 109.033 41.9345 108.728 41.625 108.271C41.3156 107.813 41.3156 107.204 41.4703 106.594L42.3987 102.934L43.6366 103.239L42.7082 106.746C42.5535 107.203 42.5535 107.508 42.7082 107.661C42.8629 107.813 43.1724 108.118 43.6366 108.118C43.9461 108.118 44.2556 108.271 44.5651 108.118C44.8746 107.966 45.184 107.966 45.3388 107.813L46.422 103.696L47.9693 104.306Z" fill="white"/>
<path d="M39.6144 107.817L38.2213 109.799L37.1377 109.494L38.6856 107.512L39.6144 107.817Z" fill="white"/>
<path d="M37.1372 100.649C37.7562 100.954 38.0657 101.259 38.2204 101.716C38.3751 102.174 38.3751 102.631 38.0657 103.089L36.8277 105.834L37.6014 106.139L37.1372 107.054L36.3635 106.749L35.8993 107.969L34.5067 107.816L35.2803 106.291L33.8877 105.681L34.3519 104.766L35.7446 105.376L36.9825 102.631C37.1372 102.326 37.1372 102.021 36.9825 101.869C36.8277 101.716 36.673 101.564 36.3635 101.411C36.2088 101.259 35.8993 101.259 35.5898 101.259L35.8993 100.344C36.3635 100.344 36.673 100.496 37.1372 100.649Z" fill="white"/>
<path d="M31.5671 98.0542L28.4723 105.526L27.3891 104.764L29.7102 99.1216L25.5322 102.324L24.9133 103.087L23.9848 102.477L25.9964 96.6817L21.6637 100.799L20.5806 100.037L26.6154 94.6992L27.6986 95.4617L25.8417 100.799L30.4839 97.2917L31.5671 98.0542Z" fill="white"/>
<path d="M23.9848 92.1076C24.2943 92.4126 24.449 92.7176 24.6038 93.0226C24.7585 93.3276 24.7585 93.6326 24.7585 93.9376C24.7585 94.2426 24.6038 94.5476 24.2943 94.8525C23.8301 95.31 23.5206 95.4625 22.9016 95.4625C22.4374 95.4625 21.8185 95.1575 21.1995 94.5476L19.8068 93.3276L19.6521 93.4801C19.4974 93.6326 19.3426 93.9376 19.3426 94.0901C19.3426 94.2426 19.3426 94.3951 19.4974 94.7C19.6521 94.8525 19.8068 95.1575 20.1163 95.4625C20.5805 95.92 21.1995 96.3775 21.6637 96.53L21.0448 97.2925C20.7353 97.14 20.4258 96.9875 20.1163 96.835C19.8068 96.6825 19.4974 96.3775 19.1879 96.0725C18.5689 95.4625 18.2594 94.8526 18.1047 94.3951C17.95 93.9376 18.2594 93.3276 18.7237 92.7176L21.3542 89.9727L22.1279 90.7351L21.8185 91.1926C22.1279 91.1926 22.4374 91.1926 22.9016 91.3451C23.2111 91.4976 23.5206 91.6501 23.9848 92.1076ZM23.0564 92.4126C22.7469 92.1076 22.4374 91.9551 22.1279 91.8026C21.8185 91.6501 21.509 91.6501 21.1995 91.6501L20.4258 92.4126L21.8185 93.6326C22.1279 93.9376 22.4374 94.0901 22.5921 94.0901C22.9016 94.0901 23.0564 93.9376 23.2111 93.7851C23.3658 93.6326 23.5206 93.3276 23.3658 93.1751C23.5206 93.0226 23.3658 92.7176 23.0564 92.4126Z" fill="white"/>
<path d="M20.5803 88.9066L15.9381 92.5665L15.1644 91.4991L15.6287 91.0416C15.3192 90.8891 15.0097 90.8891 14.7002 90.5841C14.236 90.5841 13.9265 90.2791 13.7718 89.9741C13.3076 89.3641 13.1528 88.9066 13.1528 88.2966C13.1528 87.8392 13.4623 87.3817 14.0813 86.9242L17.0213 84.6367L17.795 85.7042L14.855 87.9916C14.5455 88.2966 14.236 88.6016 14.236 88.7541C14.236 89.0591 14.3907 89.3641 14.7002 89.6691C14.855 89.9741 15.1644 90.1266 15.4739 90.2791C15.7834 90.4316 16.0929 90.5841 16.2476 90.5841L19.6519 87.9916L20.5803 88.9066Z" fill="white"/>
<path d="M15.3194 81.5867C15.6289 82.0442 15.7836 82.6542 15.6289 82.9592C15.4742 83.4167 15.1647 83.7217 14.7005 84.0266L12.0699 85.7041L12.5341 86.4666L11.6057 86.9241L11.1414 86.1616L10.0583 86.9241L8.9751 86.0091L10.5225 85.0941L9.59405 83.8742L10.5225 83.4167L11.2962 84.6366L13.772 83.1117C14.0815 82.9592 14.2362 82.8067 14.2362 82.5017C14.2362 82.3492 14.2362 82.0442 13.9268 81.7392C13.772 81.5867 13.6173 81.4342 13.4625 81.2817L14.2362 80.8242C14.7005 80.8242 15.0099 81.1292 15.3194 81.5867Z" fill="white"/>
<path d="M12.0697 75.6379L5.72534 78.2304L6.65378 80.5178L5.72534 80.9753L3.24951 75.1805L4.17795 74.723L5.10638 77.0104L11.4507 74.418L12.0697 75.6379Z" fill="white"/>
<path d="M10.0582 69.6913C10.3677 70.7587 10.3677 71.5212 9.90345 72.1312C9.59397 72.7412 8.82027 73.1987 7.89184 73.5037C6.9634 73.8087 6.1897 73.6562 5.57074 73.3512C4.95179 73.0462 4.48757 72.4362 4.17809 71.3687C3.86861 70.3012 3.86861 69.5388 4.33283 68.9288C4.79705 68.3188 5.41601 67.8613 6.34444 67.5563C7.27288 67.2513 8.04658 67.2513 8.66553 67.7088C9.28449 68.1663 9.74871 68.7763 10.0582 69.6913ZM8.97501 69.9963C8.82027 69.3863 8.51079 69.0813 8.20131 68.9288C7.89184 68.7763 7.27288 68.7763 6.65392 68.9288C6.03496 69.0813 5.57074 69.3863 5.41601 69.6913C5.26127 69.9963 5.10653 70.4537 5.41601 71.0637C5.57074 71.6737 5.88022 71.9787 6.1897 72.1312C6.49918 72.2837 7.11814 72.2837 7.7371 72.1312C8.35605 71.9787 8.82027 71.6737 8.97501 71.3687C9.12975 71.0637 9.12975 70.6062 8.97501 69.9963Z" fill="white"/>
<path d="M8.35599 63.2862L2.47589 63.5912V62.3712H3.09485C2.78537 62.0662 2.63063 61.7612 2.47589 61.4562C2.32115 61.1513 2.16641 60.6938 2.16641 60.3888C2.16641 59.9313 2.16641 59.6263 2.32115 59.4738C2.47589 59.1688 2.63063 59.0163 2.78537 58.8638C2.47589 58.5588 2.32115 58.2538 2.16641 57.9488C2.01167 57.6438 1.85693 57.1863 1.85693 56.7289C1.85693 56.1189 2.01167 55.5089 2.32115 55.2039C2.63063 54.8989 3.24959 54.7464 3.86855 54.5939L7.73703 54.4414V55.8139L4.02328 55.9664C3.55907 55.9664 3.24959 56.1189 3.09485 56.2714C3.09485 56.4239 3.09485 56.7289 3.09485 57.1863C3.09485 57.4913 3.09485 57.6438 3.24959 57.9488C3.40433 58.2538 3.55907 58.4063 3.71381 58.5588C3.86855 58.5588 3.86855 58.5588 4.02328 58.5588C4.17802 58.5588 4.17802 58.5588 4.33276 58.5588L8.04651 58.4063V59.6263L4.33276 59.7788C3.86855 59.7788 3.55907 59.9313 3.40433 60.0838C3.24959 60.2363 3.09485 60.5413 3.09485 60.9988C3.09485 61.3038 3.24959 61.6087 3.40433 61.7612C3.55907 62.0662 3.71381 62.2187 3.86855 62.3712L8.20125 62.2187L8.35599 63.2862Z" fill="white"/>
<path d="M1.08318 52.1539L0 52.0014L0.154739 50.6289L1.23792 50.7814L1.08318 52.1539ZM8.20119 52.6114L3.40427 52.1539V53.0689L2.32109 52.9164L2.47583 50.7814L8.35593 51.2389L8.20119 52.6114Z" fill="white"/>
<path d="M8.82012 48.0382C8.82012 48.4957 8.66538 48.8007 8.51064 49.1057C8.35591 49.4107 8.20117 49.7157 8.20117 50.0207L7.11799 49.8682C7.27273 49.5632 7.42747 49.2582 7.58221 48.9532C7.58221 48.6482 7.73695 48.3432 7.73695 48.0382C7.89169 47.5807 7.89169 47.2757 7.73695 47.1232C7.58221 46.9707 7.58221 46.8182 7.27273 46.8182C7.11799 46.8182 6.96325 46.8182 6.80851 46.9707C6.65377 47.1232 6.49903 47.2757 6.49903 47.4282C6.34429 47.5807 6.18955 47.8857 6.03481 48.1907C5.88007 48.4957 5.72533 48.8007 5.5706 48.9532C5.41586 49.1057 5.26112 49.4107 4.95164 49.4107C4.64216 49.5632 4.48742 49.5632 4.0232 49.4107C3.55898 49.2582 3.09477 49.1057 2.94003 48.6482C2.78529 48.1907 2.63055 47.5807 2.78529 46.8182C2.94003 46.3608 3.09477 46.0558 3.09477 45.7508C3.2495 45.4458 3.2495 45.2933 3.40424 44.9883L4.64216 45.2933C4.48742 45.4458 4.33268 45.7508 4.33268 46.0558C4.17794 46.3608 4.17794 46.5132 4.17794 46.8182C4.17794 47.2757 4.0232 47.5807 4.17794 47.7332C4.33268 47.8857 4.33268 48.0382 4.48742 48.1907C4.64216 48.1907 4.95164 48.1907 4.95164 47.8857C5.10638 47.7332 5.26112 47.2757 5.5706 46.8182C5.72533 46.3608 6.03481 46.0558 6.18955 45.7508C6.34429 45.4458 6.65377 45.2933 6.80851 45.2933C7.11799 45.1408 7.27273 45.1408 7.73695 45.2933C8.35591 45.4458 8.66538 45.5983 8.97486 46.0558C9.28434 46.5132 8.97486 47.2757 8.82012 48.0382Z" fill="white"/>
<path d="M10.0579 43.0034C9.90312 43.4609 9.74838 43.7658 9.59365 44.0708C9.43891 44.3758 9.28417 44.6808 9.12943 44.8333L8.04625 44.5283C8.20099 44.2233 8.35573 44.0708 8.51047 43.7658C8.66521 43.4609 8.81995 43.1559 8.81995 42.8509C8.97469 42.3934 8.97469 42.0884 8.97469 41.9359C8.97469 41.7834 8.81995 41.6309 8.66521 41.4784C8.51047 41.4784 8.35573 41.4784 8.20099 41.4784C8.04625 41.6309 7.89151 41.7834 7.73677 41.9359C7.58203 42.0884 7.42729 42.3934 7.27255 42.6984C7.11782 43.0034 6.80834 43.3084 6.6536 43.4609C6.49886 43.6134 6.18938 43.7658 6.03464 43.9183C5.72516 43.9183 5.57042 43.9183 5.1062 43.9183C4.64199 43.7658 4.17777 43.4609 4.02303 43.0034C3.86829 42.5459 3.86829 41.9359 4.17777 41.1734C4.33251 40.8684 4.33251 40.5634 4.48725 40.2584C4.64199 39.9534 4.79673 39.8009 4.95146 39.6484L6.03464 39.9534C5.8799 40.1059 5.72516 40.4109 5.57042 40.5634C5.41568 40.8684 5.41568 41.0209 5.26094 41.3259C5.1062 41.7834 5.1062 42.0884 5.1062 42.2409C5.1062 42.3934 5.26094 42.5459 5.41568 42.6984C5.57042 42.6984 5.8799 42.6984 6.03464 42.5459C6.18938 42.3934 6.34412 42.0884 6.6536 41.6309C6.96308 41.1734 7.11782 40.8684 7.42729 40.7159C7.58203 40.5634 7.89151 40.4109 8.20099 40.2584C8.51047 40.2584 8.66521 40.2584 9.12943 40.2584C9.74839 40.4109 10.0579 40.7159 10.2126 41.1734C10.2126 41.6309 10.2126 42.2409 10.0579 43.0034Z" fill="white"/>
<path d="M14.0811 32.9408L8.04623 29.5859L6.80832 31.7208L5.87988 31.2633L8.97467 25.7734L9.90311 26.2309L8.66519 28.3659L14.7 31.7208L14.0811 32.9408Z" fill="white"/>
<path d="M16.4023 28.9761L9.74854 23.9437L10.5222 22.8762L12.9981 24.7062C12.9981 24.4012 12.9981 24.0962 13.1528 23.6387C13.3075 23.1812 13.4623 22.8762 13.7718 22.5712C14.236 21.9612 14.7002 21.6562 15.1644 21.6562C15.6286 21.6562 16.2476 21.8087 16.8665 22.2662L19.9613 24.5537L19.1876 25.6212L16.2476 23.3337C15.9381 23.0287 15.6286 22.8762 15.3192 23.0287C15.0097 23.0287 14.8549 23.3337 14.5455 23.6387C14.3907 23.9437 14.236 24.0962 14.0812 24.4012C13.9265 24.7062 13.9265 25.0112 14.0812 25.3162L17.4855 27.9086L16.4023 28.9761Z" fill="white"/>
<path d="M22.7469 21.8058C21.9732 22.5683 21.3543 22.8733 20.5806 22.8733C19.8069 22.8733 19.0332 22.5683 18.4142 21.8058C17.7953 21.1958 17.3311 20.4334 17.3311 19.8234C17.3311 19.0609 17.6405 18.4509 18.2595 17.6884C18.8784 17.0784 19.4974 16.7734 20.1164 16.7734C20.7353 16.7734 21.3543 17.0784 21.8185 17.5359L22.5922 18.2984L19.4974 21.3483C19.9616 21.6533 20.4258 21.8058 20.7353 21.8058C21.1995 21.6533 21.509 21.3483 22.128 20.8908C22.2827 20.7383 22.5922 20.4334 22.7469 20.1284C22.9017 19.8234 23.0564 19.6709 23.2112 19.3659L23.9848 20.1284C23.8301 20.4334 23.6754 20.7383 23.5206 20.8908C23.3659 21.1958 23.0564 21.5008 22.7469 21.8058ZM19.0332 20.7384L21.1995 18.6034L20.8901 18.2984C20.5806 17.9934 20.2711 17.8409 19.9616 17.8409C19.6521 17.8409 19.3427 17.9934 18.8784 18.4509C18.4142 18.9084 18.2595 19.2134 18.2595 19.6709C18.4142 19.9759 18.569 20.2809 19.0332 20.7384Z" fill="white"/>
<path d="M29.5551 16.1654L22.5918 11.2855L23.8297 10.523L29.4003 14.488L27.8529 7.77811L29.0908 7.01562L30.9477 15.2504L29.5551 16.1654Z" fill="white"/>
<path d="M31.1028 7.01325L30.4839 6.09827L31.7218 5.48828L32.186 6.40326L31.1028 7.01325ZM34.3524 13.2656L32.186 8.9957L31.4123 9.45319L31.1028 8.53821L32.9597 7.62323L35.5903 12.6556L34.3524 13.2656Z" fill="white"/>
<path d="M39.6132 10.9808C38.6848 11.4383 37.7563 11.4383 37.1374 11.1333C36.3637 10.8283 35.8995 10.2183 35.4352 9.30336C35.1258 8.38838 34.971 7.6259 35.2805 7.01591C35.59 6.40593 36.0542 5.79594 36.9826 5.49095C37.7563 5.18595 38.53 5.18595 39.149 5.33845C39.768 5.64344 40.2322 6.10093 40.3869 6.86342L40.8511 7.93089L36.8279 9.45586C37.1374 9.91335 37.4469 10.2183 37.9111 10.3708C38.3753 10.3708 38.8395 10.3708 39.4585 10.0658C39.768 9.91335 40.0774 9.76085 40.2322 9.60836C40.5416 9.45586 40.6964 9.30336 40.8511 9.15087L41.1606 10.0658C41.0059 10.2183 40.6964 10.5233 40.3869 10.6758C40.2322 10.6758 39.9227 10.8283 39.6132 10.9808ZM36.5184 8.54088L39.4585 7.4734L39.3037 7.16841C39.149 6.86342 38.9943 6.55842 38.6848 6.40593C38.3753 6.25343 38.0658 6.25343 37.4469 6.55842C36.8279 6.86342 36.5184 7.01591 36.3637 7.4734C36.2089 7.6259 36.3637 8.08339 36.5184 8.54088Z" fill="white"/>
<path d="M43.4816 9.4564L40.5415 4.11902L41.7794 3.96653L43.791 7.77894L44.1005 4.11902L43.9458 3.35654L44.8742 3.05155L47.0406 6.86396V2.59406L48.2785 2.28906L48.1237 8.23643L46.8858 8.54142L44.7195 5.1865V9.15141L43.4816 9.4564Z" fill="white"/>
</svg>
