<svg width="201" height="191" viewBox="0 0 201 191" fill="none" xmlns="http://www.w3.org/2000/svg">
<path d="M48.065 60.0383C52.0129 53.2004 60.4324 50.5242 67.5184 53.5567L87.333 19.2369C88.5462 17.1356 90.9366 16.1432 93.2813 16.7678C95.6251 17.3927 97.2054 19.4421 97.2126 21.868C97.2611 38.5263 103.757 53.6441 116.521 66.8019C126.173 76.7514 135.976 81.7769 136.071 81.8244C136.215 81.8971 136.351 81.984 136.48 82.0774L160.896 96.1738C173.161 103.255 177.379 118.995 170.297 131.261C163.628 142.813 149.277 147.222 137.383 141.779L112.535 167.81C109.245 171.256 104.065 172 99.9386 169.617L94.8275 166.666C92.0739 165.076 90.2354 162.359 89.7837 159.212C89.3319 156.064 90.3323 152.94 92.5276 150.64L113.833 128.32L110.8 126.568C110.653 126.502 110.51 126.428 110.374 126.339C110.282 126.279 101.029 120.302 87.5864 116.918C69.8098 112.444 53.4692 114.377 39.0183 122.663C37.3379 123.627 35.3643 123.602 33.7651 122.679C33.3611 122.446 32.9813 122.155 32.6357 121.809C30.9224 120.091 30.5865 117.525 31.7996 115.423L51.6145 81.1031C45.4451 76.4829 43.553 67.8533 47.5009 61.0154L48.065 60.0383ZM99.8021 151.91L96.9685 154.879C96.0817 155.807 95.6776 157.069 95.8602 158.34C96.0423 159.611 96.7848 160.708 97.8967 161.35L103.008 164.301C104.674 165.263 106.766 164.963 108.094 163.571L131.827 138.709L119.305 131.479L112.97 138.116L114.24 138.849C115.708 139.697 116.211 141.574 115.364 143.042C114.516 144.51 112.639 145.013 111.171 144.166L108.607 142.686L104.164 147.34L104.997 147.821C106.466 148.669 106.969 150.546 106.121 152.014C105.273 153.482 103.396 153.985 101.928 153.137L99.8021 151.91ZM122.769 111.35L139.289 120.888C140.757 121.736 141.26 123.613 140.412 125.081C139.565 126.549 137.688 127.052 136.219 126.204L119.7 116.667L116.257 122.631L120.14 124.873C120.19 124.898 120.241 124.923 120.29 124.951L138.284 135.34C138.309 135.354 138.332 135.372 138.357 135.388C147.679 140.715 159.607 137.5 164.981 128.191C170.37 118.857 167.161 106.879 157.827 101.49L135.803 88.775L122.769 111.35ZM71.3577 59.1857L58.4088 81.6138L38.6159 115.896C53.7346 108.107 71.1874 106.414 89.2937 111.018C99.3189 113.568 107.047 117.383 110.947 119.55L115.918 110.939L130.48 85.7167C126.653 83.4229 119.485 78.6373 112.265 71.2305C99.2247 57.8523 91.964 41.8913 91.1506 24.9034L71.3577 59.1857ZM52.8177 64.0851C50.5657 67.9857 51.4642 72.855 54.7193 75.7267L64.4146 58.9339C60.3004 57.551 55.6339 59.2074 53.3819 63.108L52.8177 64.0851Z" fill="white" fill-opacity="0.25"/>
<path d="M55.9394 44.559C55.3006 44.1902 54.7919 43.5913 54.5504 42.8334L50.9147 31.4244C50.4002 29.8092 51.292 28.0827 52.9074 27.5678C54.5226 27.0533 56.2489 27.9454 56.7639 29.5605L60.3994 40.9691C60.914 42.5843 60.0221 44.3108 58.4068 44.8256C57.5495 45.0987 56.6614 44.9758 55.9394 44.559Z" fill="white" fill-opacity="0.25"/>
<path d="M35.8439 75.2367C37.5001 74.8752 39.1359 75.9242 39.4978 77.5803C39.8598 79.2363 38.8104 80.8722 37.1543 81.2342L25.4564 83.79C24.6786 83.9598 23.9058 83.8188 23.2671 83.45C22.5451 83.0332 21.9944 82.3253 21.8025 81.4465C21.4405 79.7904 22.4899 78.1545 24.146 77.7926L35.8439 75.2367Z" fill="white" fill-opacity="0.25"/>
<path d="M38.3913 51.5605L44.2784 54.9594C45.7465 55.8071 46.2495 57.6842 45.4019 59.1523C44.5543 60.6204 42.6771 61.1234 41.209 60.2758L35.3219 56.8769C33.8538 56.0293 33.3508 54.1521 34.1984 52.684C35.0461 51.2159 36.9232 50.7129 38.3913 51.5605Z" fill="white" fill-opacity="0.25"/>
<path d="M146.84 127.436C147 127.312 147.172 127.206 147.35 127.118C147.533 127.028 147.72 126.955 147.913 126.904C148.109 126.854 148.309 126.82 148.51 126.809C148.709 126.796 148.911 126.803 149.108 126.828C149.309 126.856 149.506 126.902 149.693 126.964C150.076 127.093 150.429 127.297 150.732 127.564C150.883 127.697 151.021 127.844 151.142 128.002C151.263 128.161 151.372 128.334 151.461 128.513C151.552 128.693 151.623 128.883 151.674 129.075C151.726 129.268 151.759 129.468 151.771 129.67C151.784 129.869 151.777 130.07 151.75 130.271C151.724 130.469 151.678 130.665 151.614 130.855C151.551 131.045 151.468 131.232 151.368 131.404C151.268 131.577 151.149 131.742 151.014 131.895C150.883 132.042 150.736 132.181 150.576 132.304C150.417 132.425 150.246 132.532 150.067 132.62C149.887 132.711 149.697 132.782 149.504 132.834C149.311 132.886 149.111 132.919 148.908 132.933C148.71 132.946 148.505 132.938 148.307 132.912C148.109 132.886 147.913 132.84 147.723 132.777C147.53 132.711 147.348 132.628 147.175 132.528C147 132.427 146.836 132.311 146.683 132.177C146.533 132.044 146.398 131.898 146.274 131.738C146.153 131.58 146.046 131.408 145.958 131.23C145.868 131.047 145.797 130.857 145.743 130.662C145.691 130.47 145.661 130.271 145.647 130.068C145.634 129.869 145.64 129.668 145.666 129.47C145.693 129.269 145.739 129.073 145.802 128.885C145.867 128.692 145.952 128.508 146.052 128.335C146.152 128.162 146.269 127.996 146.402 127.846C146.534 127.696 146.682 127.557 146.84 127.436Z" fill="white" fill-opacity="0.25"/>
</svg>
