<svg width="72" height="60" viewBox="0 0 72 60" fill="none" xmlns="http://www.w3.org/2000/svg">
						<path d="M35.9032 38.8125C24.2204 38.8125 14.7151 48.3175 14.7151 60.0006H18.7796C18.7796 50.5585 26.4615 42.877 35.9032 42.877C45.3449 42.877 53.0268 50.5585 53.0268 60.0006H57.0913C57.0913 48.3175 47.586 38.8125 35.9032 38.8125Z" fill="black" />
						<path d="M35.9032 45.9531C28.1577 45.9531 21.8567 52.2542 21.8567 59.9997H25.9212C25.9212 54.4956 30.3992 50.0176 35.9032 50.0176C41.4073 50.0176 45.8852 54.4956 45.8852 59.9997H49.9498C49.9498 52.2546 43.6487 45.9531 35.9032 45.9531Z" fill="black" />
						<path d="M35.9032 21.1881C47.586 21.1881 57.0913 11.6832 57.0913 0H53.0268C53.0268 9.4421 45.3449 17.1236 35.9032 17.1236C26.4615 17.1236 18.7796 9.4421 18.7796 0H14.7151C14.7155 11.6835 24.2204 21.1881 35.9032 21.1881Z" fill="black" />
						<path d="M14.4248 28.7546C15.6383 27.9178 16.9025 27.1515 18.2118 26.4582C9.68746 20.7391 4.06451 11.0157 4.06451 0.00195312H0C0 11.7514 5.67329 22.2006 14.4248 28.7546Z" fill="black" />
						<path d="M42.9528 31.0425C40.6834 31.5578 38.3264 31.8388 35.9032 31.8388C33.4801 31.8388 31.1231 31.5578 28.8537 31.0425C26.6649 31.5756 24.5711 32.3503 22.6003 33.3378C26.7175 34.9867 31.2042 35.9033 35.9032 35.9033C40.6023 35.9033 45.089 34.9867 49.2062 33.3378C52.1397 32.1629 54.8882 30.6208 57.3818 28.753C66.1329 22.199 71.8066 11.7498 71.8066 0H67.742C67.742 11.0138 62.1191 20.7376 53.5948 26.4563C50.4068 28.5951 46.811 30.1668 42.9528 31.0425Z" fill="black" />
						<path d="M35.9032 14.0469C43.6487 14.0469 49.9498 7.74549 49.9498 0H45.8852C45.8852 5.50442 41.4073 9.98239 35.9032 9.98239C30.3992 9.98239 25.9212 5.50442 25.9212 0H21.8567C21.8567 7.74549 28.1577 14.0469 35.9032 14.0469Z" fill="black" />
						<path d="M57.3822 31.2461C56.1687 32.0829 54.9045 32.8492 53.5952 33.5428C62.1195 39.2619 67.7425 48.9853 67.7425 59.9991H71.807C71.8066 48.2493 66.1333 37.8001 57.3822 31.2461Z" fill="black" />
						<path d="M28.8537 28.9565C31.1232 28.4412 33.4801 28.1602 35.9033 28.1602C38.3265 28.1602 40.6834 28.4412 42.9529 28.9565C45.1417 28.4234 47.2355 27.6487 49.2062 26.6613C45.0891 25.0123 40.6024 24.0957 35.9033 24.0957C31.2042 24.0957 26.7175 25.0123 22.6004 26.6613C19.6668 27.8361 16.9184 29.3783 14.4248 31.246C5.67367 37.8 0 48.2492 0 59.999H4.06451C4.06451 48.9852 9.68746 39.2614 18.2118 33.5427C21.3998 31.4039 24.9959 29.8326 28.8537 28.9565Z" fill="black" />
					</svg>