<svg width="60" height="60" viewBox="0 0 60 60" fill="none" xmlns="http://www.w3.org/2000/svg">
						<path d="M27.2821 23.8021C28.7403 24.629 30.1313 25.6177 31.4222 26.7784C29.858 16.1461 20.6767 7.95703 9.6167 7.95703V11.2759C17.7696 11.2762 24.7178 16.5154 27.2821 23.8021Z" fill="black" />
						<path d="M32.7228 36.21C31.2516 35.373 29.8613 34.3771 28.5789 33.2227C30.1431 43.8549 39.324 52.0434 50.3838 52.0434V48.7245C42.2356 48.7242 35.2902 43.4907 32.7228 36.21Z" fill="black" />
						<path d="M33.2227 31.4224C43.8546 29.8578 52.0431 20.6772 52.0431 9.61719H48.7242C48.7242 17.7698 43.4853 24.718 36.199 27.2822C35.372 28.7408 34.3834 30.1315 33.2227 31.4224Z" fill="black" />
						<path d="M26.7784 28.5781C16.1455 30.1424 7.95703 39.323 7.95703 50.383H11.2759C11.2759 42.2307 16.5151 35.2825 23.8018 32.7183C24.629 31.26 25.6177 29.8691 26.7784 28.5781Z" fill="black" />
						<path d="M32.4612 23.6948C32.9079 25.3106 33.1919 26.9932 33.2844 28.7264C39.6956 20.1019 38.9935 7.82014 31.1737 0L28.8271 2.34658C34.5914 8.11142 35.7999 16.7289 32.4612 23.6948Z" fill="black" />
						<path d="M27.5395 36.3053C27.0929 34.6895 26.8088 33.0069 26.7163 31.2734C20.3048 39.8976 21.0066 52.179 28.827 59.9995L31.1736 57.6529C25.4094 51.8881 24.2009 43.2708 27.5395 36.3053Z" fill="black" />
						<path d="M36.2908 32.4646C34.6775 32.9094 32.9978 33.1925 31.2671 33.284C35.0461 36.104 39.6122 37.6293 44.4133 37.6293C50.3014 37.6293 55.8366 35.3362 60.0001 31.1728L57.6535 28.8262C54.117 32.3627 49.415 34.3101 44.4133 34.3101C41.5536 34.3104 38.7931 33.6713 36.2908 32.4646Z" fill="black" />
						<path d="M23.6944 27.5398C25.3106 27.0931 26.9932 26.8088 28.7267 26.7166C20.1022 20.305 7.82045 21.0068 0 28.8272L2.34657 31.1738C8.1111 25.4093 16.7283 24.2011 23.6944 27.5398Z" fill="black" />
					</svg>