<svg width="73" height="60" viewBox="0 0 73 60" fill="none" xmlns="http://www.w3.org/2000/svg">
						<path d="M40.2451 23.1693L37.7232 25.6913L42.032 30L23.5379 48.4937L5.04384 30L23.5379 11.5059L27.4781 15.4461L19.3866 23.5376L24.588 28.7389L27.1099 26.2169L24.4305 23.5376L30 17.968L32.6794 20.6474L35.2013 18.1255L32.5219 15.4461L42.9242 5.04383L45.6036 7.72323L48.1255 5.20131L42.9242 0L30 12.9242L23.5379 6.4621L0 30L23.5379 53.5376L47.0758 30L40.2451 23.1693Z" fill="black" />
						<path d="M72.9243 30.0008L49.3868 6.46289L25.8489 30.0008L32.6795 36.8311L35.2014 34.3092L30.8927 30.0008L49.3868 11.5067L67.8805 30.0008L49.3868 48.4945L45.4466 44.5547L53.538 36.4632L48.3367 31.2616L45.8148 33.7835L48.4945 36.4632L42.9247 42.0328L40.2453 39.353L37.7234 41.875L40.4028 44.5547L30.0005 54.957L27.3207 52.2776L24.7988 54.7995L30.0005 60.0008L42.9247 47.0766L49.3868 53.5383L72.9243 30.0008Z" fill="black" />
					</svg>