<svg width="28" height="16" viewBox="0 0 28 16" fill="none" xmlns="http://www.w3.org/2000/svg">
<path d="M8.59914 0H1.42279C0.956322 0 0.578125 0.378144 0.578125 0.844662V5.12625C0.578125 5.59277 0.956322 5.97091 1.42279 5.97091C2.54159 5.97091 3.45182 6.88114 3.45182 8C3.45182 9.11886 2.54159 10.029 1.42279 10.029C0.956322 10.029 0.578125 10.4071 0.578125 10.8736V15.1553C0.578125 15.6218 0.956322 15.9999 1.42279 15.9999H8.59914V0Z" fill="white"/>
<path d="M26.5772 5.97091C27.0437 5.97091 27.4219 5.59277 27.4219 5.12625V0.844662C27.4219 0.378144 27.0437 0 26.5772 0H10.2881V16H26.5772C27.0437 16 27.4219 15.6219 27.4219 15.1553V10.8737C27.4219 10.4072 27.0437 10.029 26.5772 10.029C25.4584 10.029 24.5482 9.11886 24.5482 8C24.5482 6.88114 25.4584 5.97091 26.5772 5.97091Z" fill="white"/>
</svg>
